<svg xmlns="http://www.w3.org/2000/svg" xmlns:xlink="http://www.w3.org/1999/xlink" viewBox="0 0 379.89 222"><defs><style>.cls-1{isolation:isolate;}.cls-2{fill:url(#linear-gradient);}.cls-3{fill:url(#linear-gradient-2);}.cls-4{fill:url(#linear-gradient-3);}.cls-5{fill:url(#linear-gradient-4);}.cls-6{fill:url(#linear-gradient-5);}.cls-7{fill:url(#linear-gradient-6);}.cls-8{fill:url(#linear-gradient-7);}.cls-9{fill:url(#linear-gradient-8);}.cls-10{fill:url(#linear-gradient-9);}.cls-11{fill:url(#linear-gradient-10);}.cls-12{fill:url(#linear-gradient-11);}.cls-13{fill:url(#linear-gradient-12);}.cls-14{fill:url(#linear-gradient-13);}.cls-15{fill:url(#linear-gradient-14);}.cls-16{fill:url(#linear-gradient-15);}.cls-17{fill:url(#linear-gradient-16);}.cls-18{fill:url(#linear-gradient-17);}.cls-19{fill:url(#linear-gradient-18);}.cls-20{fill:url(#linear-gradient-19);}.cls-21{fill:url(#linear-gradient-20);}.cls-22{fill:url(#linear-gradient-21);}.cls-23{fill:url(#linear-gradient-22);}.cls-24{fill:url(#linear-gradient-23);}.cls-25{fill:url(#linear-gradient-24);}.cls-26{fill:url(#linear-gradient-25);}.cls-27{fill:url(#linear-gradient-26);}.cls-28{fill:url(#linear-gradient-27);}.cls-29{fill:url(#linear-gradient-28);}.cls-30{fill:url(#linear-gradient-29);}.cls-31{fill:url(#linear-gradient-30);}.cls-32{fill:url(#linear-gradient-31);}.cls-33{fill:url(#linear-gradient-32);}.cls-34{fill:url(#linear-gradient-33);}.cls-35{fill:url(#linear-gradient-34);}.cls-36{fill:url(#linear-gradient-35);}.cls-37{fill:url(#linear-gradient-36);}.cls-38{fill:url(#linear-gradient-37);}.cls-39{fill:url(#linear-gradient-38);}.cls-40{fill:url(#linear-gradient-39);}.cls-41{fill:url(#linear-gradient-40);}.cls-42{fill:url(#linear-gradient-41);}.cls-43{fill:url(#linear-gradient-42);}.cls-44{fill:url(#linear-gradient-43);}.cls-45{fill:url(#linear-gradient-44);}.cls-46{fill:url(#linear-gradient-45);}.cls-47{fill:url(#linear-gradient-46);}.cls-48{fill:url(#linear-gradient-47);}.cls-49{fill:url(#linear-gradient-48);}.cls-50{fill:url(#linear-gradient-49);}.cls-51{fill:url(#linear-gradient-50);}.cls-52{fill:url(#linear-gradient-51);}.cls-53{fill:url(#linear-gradient-52);}.cls-54{fill:url(#linear-gradient-53);}.cls-55{fill:url(#linear-gradient-54);}.cls-56{fill:url(#linear-gradient-55);}.cls-57{fill:url(#linear-gradient-56);}.cls-58{fill:url(#linear-gradient-57);}.cls-59{fill:url(#linear-gradient-58);}.cls-60{fill:url(#linear-gradient-59);}.cls-61{fill:url(#linear-gradient-60);}.cls-62{fill:url(#linear-gradient-61);}.cls-63{fill:url(#linear-gradient-62);}.cls-64{fill:url(#linear-gradient-63);}.cls-65{fill:url(#linear-gradient-64);}.cls-66{fill:url(#linear-gradient-65);}.cls-67{fill:url(#linear-gradient-66);}.cls-68{fill:url(#linear-gradient-67);}.cls-69{fill:url(#linear-gradient-68);}.cls-70{fill:url(#linear-gradient-69);}</style><linearGradient id="linear-gradient" x1="392.9" y1="-5.72" x2="401.1" y2="-5.72" gradientTransform="translate(-85.85 18.95) rotate(0.69)" gradientUnits="userSpaceOnUse"><stop offset="0" stop-color="#00ffc4"/><stop offset="1" stop-color="#00b3ff"/></linearGradient><linearGradient id="linear-gradient-2" x1="399.7" y1="11.09" x2="422.75" y2="11.09" xlink:href="#linear-gradient"/><linearGradient id="linear-gradient-3" x1="375.07" y1="13.62" x2="395.53" y2="13.62" xlink:href="#linear-gradient"/><linearGradient id="linear-gradient-4" x1="281.16" y1="32.06" x2="296.54" y2="32.06" xlink:href="#linear-gradient"/><linearGradient id="linear-gradient-5" x1="345.52" y1="17.44" x2="411.93" y2="17.44" xlink:href="#linear-gradient"/><linearGradient id="linear-gradient-6" x1="382.85" y1="28.5" x2="444.39" y2="28.5" xlink:href="#linear-gradient"/><linearGradient id="linear-gradient-7" x1="291.99" y1="14.21" x2="390.28" y2="14.21" xlink:href="#linear-gradient"/><linearGradient id="linear-gradient-8" x1="302.81" y1="27.66" x2="354.96" y2="27.66" xlink:href="#linear-gradient"/><linearGradient id="linear-gradient-9" x1="313.63" y1="36.6" x2="356.41" y2="36.6" xlink:href="#linear-gradient"/><linearGradient id="linear-gradient-10" x1="324.44" y1="51.36" x2="359.41" y2="51.36" xlink:href="#linear-gradient"/><linearGradient id="linear-gradient-11" x1="387.31" y1="55.9" x2="410.35" y2="55.9" xlink:href="#linear-gradient"/><linearGradient id="linear-gradient-12" x1="335.26" y1="39.21" x2="433.57" y2="39.21" xlink:href="#linear-gradient"/><linearGradient id="linear-gradient-13" x1="335.11" y1="51.79" x2="455.21" y2="51.79" xlink:href="#linear-gradient"/><linearGradient id="linear-gradient-14" x1="346.22" y1="58" x2="466.03" y2="58" xlink:href="#linear-gradient"/><linearGradient id="linear-gradient-15" x1="367.73" y1="79.82" x2="390.78" y2="79.82" xlink:href="#linear-gradient"/><linearGradient id="linear-gradient-16" x1="353.15" y1="-12.95" x2="379.46" y2="-12.95" xlink:href="#linear-gradient"/><linearGradient id="linear-gradient-17" x1="246.19" y1="149.49" x2="272.51" y2="149.49" xlink:href="#linear-gradient"/><linearGradient id="linear-gradient-18" x1="174.21" y1="194.51" x2="189.59" y2="194.51" xlink:href="#linear-gradient"/><linearGradient id="linear-gradient-19" x1="152.76" y1="101.27" x2="186.74" y2="101.27" xlink:href="#linear-gradient"/><linearGradient id="linear-gradient-20" x1="211.29" y1="120.84" x2="233.41" y2="120.84" xlink:href="#linear-gradient"/><linearGradient id="linear-gradient-21" x1="140.94" y1="126.78" x2="153.94" y2="126.78" xlink:href="#linear-gradient"/><linearGradient id="linear-gradient-22" x1="156.59" y1="128.26" x2="176.35" y2="128.26" xlink:href="#linear-gradient"/><linearGradient id="linear-gradient-23" x1="237.55" y1="130.53" x2="260.09" y2="130.53" xlink:href="#linear-gradient"/><linearGradient id="linear-gradient-24" x1="203.18" y1="140.06" x2="218.54" y2="140.06" xlink:href="#linear-gradient"/><linearGradient id="linear-gradient-25" x1="116.68" y1="118.02" x2="208.39" y2="118.02" xlink:href="#linear-gradient"/><linearGradient id="linear-gradient-26" x1="87.64" y1="139.8" x2="119.27" y2="139.8" xlink:href="#linear-gradient"/><linearGradient id="linear-gradient-27" x1="98.46" y1="126.04" x2="220.53" y2="126.04" xlink:href="#linear-gradient"/><linearGradient id="linear-gradient-28" x1="173.63" y1="141.1" x2="244.31" y2="141.1" xlink:href="#linear-gradient"/><linearGradient id="linear-gradient-29" x1="120.1" y1="136.98" x2="225.77" y2="136.98" xlink:href="#linear-gradient"/><linearGradient id="linear-gradient-30" x1="130.92" y1="163.83" x2="165.88" y2="163.83" xlink:href="#linear-gradient"/><linearGradient id="linear-gradient-31" x1="141.74" y1="169.11" x2="201.58" y2="169.11" xlink:href="#linear-gradient"/><linearGradient id="linear-gradient-32" x1="152.56" y1="172.06" x2="223.75" y2="172.06" xlink:href="#linear-gradient"/><linearGradient id="linear-gradient-33" x1="163.38" y1="159.93" x2="276.12" y2="159.93" xlink:href="#linear-gradient"/><linearGradient id="linear-gradient-34" x1="173.85" y1="-4.88" x2="229.88" y2="-4.88" xlink:href="#linear-gradient"/><linearGradient id="linear-gradient-35" x1="130.85" y1="12.98" x2="162.16" y2="12.98" xlink:href="#linear-gradient"/><linearGradient id="linear-gradient-36" x1="98.6" y1="25.72" x2="109.13" y2="25.72" xlink:href="#linear-gradient"/><linearGradient id="linear-gradient-37" x1="205.56" y1="28.21" x2="226.52" y2="28.21" xlink:href="#linear-gradient"/><linearGradient id="linear-gradient-38" x1="181.43" y1="15.92" x2="272.78" y2="15.92" xlink:href="#linear-gradient"/><linearGradient id="linear-gradient-39" x1="148.68" y1="33.44" x2="172.09" y2="33.44" xlink:href="#linear-gradient"/><linearGradient id="linear-gradient-40" x1="234.57" y1="34.38" x2="262.03" y2="34.38" xlink:href="#linear-gradient"/><linearGradient id="linear-gradient-41" x1="163.11" y1="16.87" x2="251.27" y2="16.87" xlink:href="#linear-gradient"/><linearGradient id="linear-gradient-42" x1="227.63" y1="51.08" x2="240.52" y2="51.08" xlink:href="#linear-gradient"/><linearGradient id="linear-gradient-43" x1="141.6" y1="29.37" x2="229.77" y2="29.37" xlink:href="#linear-gradient"/><linearGradient id="linear-gradient-44" x1="87.84" y1="45.28" x2="187.65" y2="45.28" xlink:href="#linear-gradient"/><linearGradient id="linear-gradient-45" x1="120.1" y1="44.8" x2="218.43" y2="44.8" xlink:href="#linear-gradient"/><linearGradient id="linear-gradient-46" x1="108.67" y1="63.72" x2="209.28" y2="63.72" xlink:href="#linear-gradient"/><linearGradient id="linear-gradient-47" x1="162.92" y1="79.39" x2="187.63" y2="79.39" xlink:href="#linear-gradient"/><linearGradient id="linear-gradient-48" x1="109.35" y1="21.26" x2="126.07" y2="21.26" xlink:href="#linear-gradient"/><linearGradient id="linear-gradient-49" x1="209.08" y1="64.6" x2="219.06" y2="64.6" xlink:href="#linear-gradient"/><linearGradient id="linear-gradient-50" x1="421.36" y1="163.23" x2="435.3" y2="163.23" xlink:href="#linear-gradient"/><linearGradient id="linear-gradient-51" x1="441.09" y1="140.87" x2="467.55" y2="140.87" xlink:href="#linear-gradient"/><linearGradient id="linear-gradient-52" x1="368.63" y1="95.86" x2="384.09" y2="95.86" xlink:href="#linear-gradient"/><linearGradient id="linear-gradient-53" x1="318.84" y1="120.33" x2="345.91" y2="120.33" xlink:href="#linear-gradient"/><linearGradient id="linear-gradient-54" x1="386.23" y1="123.21" x2="418.08" y2="123.21" xlink:href="#linear-gradient"/><linearGradient id="linear-gradient-55" x1="306.85" y1="127.18" x2="339.02" y2="127.18" xlink:href="#linear-gradient"/><linearGradient id="linear-gradient-56" x1="326.91" y1="118.6" x2="418.57" y2="118.6" xlink:href="#linear-gradient"/><linearGradient id="linear-gradient-57" x1="347.12" y1="123.13" x2="456.8" y2="123.13" xlink:href="#linear-gradient"/><linearGradient id="linear-gradient-58" x1="365.67" y1="144.03" x2="446.05" y2="144.03" xlink:href="#linear-gradient"/><linearGradient id="linear-gradient-59" x1="282.62" y1="155.2" x2="330.47" y2="155.2" xlink:href="#linear-gradient"/><linearGradient id="linear-gradient-60" x1="401.37" y1="166.81" x2="424.54" y2="166.81" xlink:href="#linear-gradient"/><linearGradient id="linear-gradient-61" x1="325.6" y1="141.79" x2="413.79" y2="141.79" xlink:href="#linear-gradient"/><linearGradient id="linear-gradient-62" x1="281.77" y1="150.8" x2="403.04" y2="150.8" xlink:href="#linear-gradient"/><linearGradient id="linear-gradient-63" x1="339.07" y1="170.65" x2="392.29" y2="170.65" xlink:href="#linear-gradient"/><linearGradient id="linear-gradient-64" x1="267.83" y1="159.45" x2="381.54" y2="159.45" xlink:href="#linear-gradient"/><linearGradient id="linear-gradient-65" x1="364.51" y1="88.77" x2="370.16" y2="88.77" xlink:href="#linear-gradient"/><linearGradient id="linear-gradient-66" x1="206.86" y1="88.76" x2="212.51" y2="88.76" xlink:href="#linear-gradient"/><linearGradient id="linear-gradient-67" x1="185.2" y1="88.77" x2="190.86" y2="88.77" xlink:href="#linear-gradient"/><linearGradient id="linear-gradient-68" x1="342.99" y1="88.86" x2="348.65" y2="88.86" xlink:href="#linear-gradient"/><linearGradient id="linear-gradient-69" x1="270.97" y1="140.6" x2="284.15" y2="140.6" xlink:href="#linear-gradient"/></defs><title>资源 75</title><g id="图层_2" data-name="图层 2"><g id="央铋_1" data-name="央铋 1"><g class="cls-1"><polygon class="cls-2" points="315.31 16.56 308.6 20.35 307.07 19.45 313.78 15.65 315.31 16.56"/><polygon class="cls-3" points="336.8 29.32 315.15 41.55 313.62 40.64 335.27 28.4 336.8 29.32"/><polygon class="cls-4" points="309.55 32.27 290.5 43.03 288.97 42.13 308.02 31.36 309.55 32.27"/><polygon class="cls-5" points="210.32 50.99 196.39 58.87 194.86 57.96 208.8 50.09 210.32 50.99"/><path class="cls-6" d="M326.06,22.94l-4.23,2.39a8.82,8.82,0,0,1-4.28,1l-15.4-.18a12.67,12.67,0,0,0-6.26,1.42L282.66,35c-1.65.93-2.6,2.24-2.6,3.59L280,47.52A3,3,0,0,1,278.21,50l-17.47,9.87-1.53-.9,17.47-9.88a2,2,0,0,0,1.15-1.57l.05-8.93c0-1.67,1.2-3.3,3.25-4.46l13.23-7.48a16,16,0,0,1,7.79-1.78l15.41.19a5.6,5.6,0,0,0,2.74-.62L324.53,22Z"/><path class="cls-7" d="M358.29,42.07l-24.42,13.8a15.87,15.87,0,0,1-7.79,1.77l-15.41-.18a5.66,5.66,0,0,0-2.74.62L298,63.68l-1.53-.91,9.91-5.6a8.72,8.72,0,0,1,4.29-1l15.4.18A12.8,12.8,0,0,0,332.34,55l24.42-13.8Z"/><path class="cls-8" d="M304.56,10.18,280.77,23.63a8.73,8.73,0,0,1-4.28,1l-15.41-.19a12.84,12.84,0,0,0-6.26,1.42L224.06,43.23a4.46,4.46,0,0,0-2.6,3.58l-.06,8.93a3,3,0,0,1-1.79,2.45l-12.48,7.06-1.52-.91,12.48-7.05a2,2,0,0,0,1.14-1.58l.06-8.92c0-1.68,1.2-3.31,3.25-4.47L253.3,24.94a16,16,0,0,1,7.8-1.78l15.4.18a5.49,5.49,0,0,0,2.74-.62L303,9.28Z"/><path class="cls-9" d="M269,30.39,238.41,47.57c-1.65.93-2.6,2.24-2.6,3.59l-.06,8.92A3,3,0,0,1,234,62.54l-16.08,9.08-1.52-.9,16.07-9.09a2,2,0,0,0,1.15-1.57l0-8.93c0-1.68,1.2-3.3,3.25-4.47l30.59-17.17Z"/><path class="cls-10" d="M270.31,42l-18.49,10.4A2,2,0,0,0,250.67,54l0,8.93c0,1.67-1.2,3.3-3.26,4.46L228.62,78l-1.52-.9,18.73-10.59c1.66-.94,2.61-2.24,2.61-3.6L248.5,54a3,3,0,0,1,1.79-2.45l18.49-10.41Z"/><polygon class="cls-11" points="273.03 65.36 239.37 84.38 237.84 83.47 271.49 64.45 273.03 65.36"/><polygon class="cls-12" points="323.87 73.98 302.21 86.21 300.68 85.3 322.33 73.07 323.87 73.98"/><path class="cls-13" d="M347.55,35.69,327.36,47.1a8.77,8.77,0,0,1-4.29,1l-15.41-.19a12.8,12.8,0,0,0-6.25,1.43l-13.79,7.79C286,58,285,59.35,285,60.69L285,69.62a3.05,3.05,0,0,1-1.79,2.46L250.12,90.76l-1.54-.91,33.06-18.69a1.94,1.94,0,0,0,1.15-1.57l0-8.92c0-1.68,1.2-3.31,3.25-4.47l13.78-7.79a16.05,16.05,0,0,1,7.8-1.78l15.42.19a5.59,5.59,0,0,0,2.73-.63L346,34.78Z"/><path class="cls-14" d="M369,48.45l-31,17.49a8.7,8.7,0,0,1-4.28,1l-15.41-.19a12.88,12.88,0,0,0-6.25,1.43L249.8,103.42l-1.53-.91,62.34-35.27a16.05,16.05,0,0,1,7.8-1.78l15.41.2a5.74,5.74,0,0,0,2.74-.63L367.5,47.54Z"/><path class="cls-15" d="M379.78,54.83l-62,35.06a16,16,0,0,1-7.8,1.77l-15.4-.19a5.67,5.67,0,0,0-2.75.63l-30.95,17.63-1.53-.91,30.95-17.63a8.75,8.75,0,0,1,4.29-1l15.4.19A12.85,12.85,0,0,0,316.21,89l62-35.07Z"/><polygon class="cls-16" points="304 97.66 282.35 109.89 280.82 108.98 302.47 96.74 304 97.66"/></g><polygon class="cls-17" points="293.82 3.81 268.87 17.9 267.34 17 292.29 2.9 293.82 3.81"/><polygon class="cls-18" points="184.92 164.95 159.98 179.05 158.44 178.14 183.39 164.04 184.92 164.95"/><polygon class="cls-19" points="101.43 212.14 87.49 220.02 85.96 219.11 99.9 211.23 101.43 212.14"/><g class="cls-1"><polygon class="cls-20" points="99.76 113.47 67.1 131.94 65.58 131.03 98.24 112.57 99.76 113.47"/><polygon class="cls-21" points="146.15 137.04 125.43 148.77 123.9 147.87 144.62 136.13 146.15 137.04"/><polygon class="cls-22" points="66.59 144.68 55.05 151.2 53.52 150.3 65.06 143.77 66.59 144.68"/><polygon class="cls-23" points="89 144.46 70.65 154.83 69.13 153.93 87.47 143.56 89 144.46"/><polygon class="cls-24" points="172.72 146.93 151.58 158.9 150.05 157.99 171.19 146.02 172.72 146.93"/><polygon class="cls-25" points="131.04 158.06 117.12 165.92 115.59 165.01 129.5 157.15 131.04 158.06"/><path class="cls-26" d="M121.42,113.72,78.76,137.8a8.84,8.84,0,0,1-4.28,1l-19.07-.23-8.2,4.63a4.44,4.44,0,0,0-2.61,3.59l-.05,8.92a3.06,3.06,0,0,1-1.79,2.46L30.61,165l-1.52-.91,12.14-6.86a2,2,0,0,0,1.14-1.57l.06-8.93c0-1.68,1.2-3.3,3.25-4.47l8.84-5,20,.24a5.63,5.63,0,0,0,2.74-.63l42.66-24.08Z"/><polygon class="cls-27" points="31.83 151.88 1.53 169 0 168.09 30.3 150.97 31.83 151.88"/><path class="cls-28" d="M133.48,119.32,99.72,138.41A2,2,0,0,0,98.57,140l0,8.93c0,1.67-1.2,3.3-3.26,4.46l-10.67,6a16,16,0,0,1-7.79,1.77L61.39,161a5.53,5.53,0,0,0-2.75.62l-15.49,8.76a16,16,0,0,1-7.79,1.77L19.94,172a5.56,5.56,0,0,0-2.73.62l-4.94,2.79-1.52-.91,4.93-2.79a8.79,8.79,0,0,1,4.28-1l15.4.18a12.59,12.59,0,0,0,6.26-1.42l15.5-8.75a8.73,8.73,0,0,1,4.28-1l15.4.18a12.78,12.78,0,0,0,6.26-1.42l10.68-6c1.65-.94,2.6-2.25,2.61-3.59L96.4,140a3.06,3.06,0,0,1,1.79-2.46L132,118.41Z"/><path class="cls-29" d="M157,143.27l-13.67,7.85a1.92,1.92,0,0,0-1.13,1.57l-.06,8.92c0,1.68-1.2,3.31-3.26,4.47l-8.08,4.57a15.87,15.87,0,0,1-7.79,1.77l-15.41-.18a5.63,5.63,0,0,0-2.74.62l-17.47,9.88-1.54-.91L103.31,172a8.73,8.73,0,0,1,4.28-1l15.41.18a12.77,12.77,0,0,0,6.25-1.42l8.08-4.57c1.65-.93,2.61-2.24,2.61-3.58l.06-8.93a3,3,0,0,1,1.78-2.45l13.67-7.85Z"/><path class="cls-30" d="M138.61,128.77l-22.47,12.8a2,2,0,0,0-1.14,1.58l0,8.92c0,1.68-1.2,3.31-3.26,4.47l-18.93,10.7A16.08,16.08,0,0,1,85,169l-15.42-.19a5.6,5.6,0,0,0-2.74.62L33.76,188.13l-1.52-.91,33.05-18.68a8.84,8.84,0,0,1,4.28-1l15.41.18a12.8,12.8,0,0,0,6.25-1.42l18.93-10.7c1.64-.93,2.6-2.24,2.61-3.59l.06-8.92a3,3,0,0,1,1.79-2.45l22.47-12.81Z"/><polygon class="cls-31" points="78.16 175.49 44.51 194.51 42.98 193.6 76.63 174.58 78.16 175.49"/><path class="cls-32" d="M113.8,180.25l-13.86,7.83a8.73,8.73,0,0,1-4.28,1l-15.42-.19A12.71,12.71,0,0,0,74,190.3L55.26,200.88l-1.54-.9,18.74-10.59a15.79,15.79,0,0,1,7.79-1.77l15.42.18a5.63,5.63,0,0,0,2.74-.63l13.86-7.83Z"/><path class="cls-33" d="M136,180.17,108,196a15.87,15.87,0,0,1-7.79,1.78l-15.4-.19a5.78,5.78,0,0,0-2.75.62L66,207.26l-1.53-.91,16.08-9.08a8.75,8.75,0,0,1,4.29-1l15.4.19a12.77,12.77,0,0,0,6.25-1.43l28-15.79Z"/><path class="cls-34" d="M188.71,150.28,150.38,172a1.94,1.94,0,0,0-1.14,1.57l-.06,8.92c0,1.68-1.19,3.31-3.25,4.47l-30.76,17.38a15.9,15.9,0,0,1-7.79,1.78L92,206a5.63,5.63,0,0,0-2.74.63l-12.48,7-1.54-.91,12.48-7a8.88,8.88,0,0,1,4.29-1l15.4.19a12.81,12.81,0,0,0,6.26-1.42l30.76-17.39c1.65-.93,2.6-2.24,2.61-3.59l.06-8.92a3,3,0,0,1,1.78-2.46l38.32-21.74Z"/></g><g class="cls-1"><polygon class="cls-35" points="143.89 32.11 142.34 32.99 88.23 0.87 89.78 0 143.89 32.11"/><polygon class="cls-36" points="76.04 42.02 74.5 42.89 44.93 25.34 46.48 24.47 76.04 42.02"/><polygon class="cls-37" points="22.93 48.13 21.39 49 12.45 43.7 14 42.83 22.93 48.13"/><polygon class="cls-38" points="140.25 55.04 138.71 55.92 119.42 44.47 120.97 43.6 140.25 55.04"/><path class="cls-39" d="M186.48,57.39l-1.54.88-27.29-16.2a5.73,5.73,0,0,0-2.74-.69l-15.4-.18a16.24,16.24,0,0,1-7.77-2L95.61,17.79l1.54-.87,36.13,21.44a13,13,0,0,0,6.24,1.58l15.41.18a8.78,8.78,0,0,1,4.26,1.08Z"/><polygon class="cls-40" points="85.75 60.32 84.2 61.2 62.48 48.3 64.03 47.43 85.75 60.32"/><polygon class="cls-41" points="175.66 63.51 174.11 64.38 148.37 49.11 149.91 48.23 175.66 63.51"/><path class="cls-42" d="M83.84,9a3.1,3.1,0,0,1,1.76,2.49l-.07,8.93c0,1.34.93,2.68,2.57,3.65l20.49,12.16a3.12,3.12,0,0,1,1.76,2.5l-.07,8.92c0,1.35.93,2.68,2.57,3.65L126,59.13a12.94,12.94,0,0,0,6.23,1.57l15.41.18A8.91,8.91,0,0,1,151.91,62l12.92,7.67-1.54.87-12.93-7.67a5.62,5.62,0,0,0-2.73-.68L132.22,62a16.16,16.16,0,0,1-7.77-2L111.3,52.2c-2-1.22-3.2-2.87-3.19-4.55l.06-8.93a2,2,0,0,0-1.13-1.6L86.55,25c-2-1.21-3.2-2.87-3.19-4.55l.06-8.92a2,2,0,0,0-1.13-1.6L77.41,7,79,6.12Z"/><polygon class="cls-43" points="154 75.75 152.46 76.62 141.18 69.93 142.72 69.05 154 75.75"/><path class="cls-44" d="M90.11,37.82a3.1,3.1,0,0,1,1.75,2.5l-.06,8.93c0,1.34.93,2.67,2.56,3.64l48.82,29-1.55.87-48.81-29c-2-1.21-3.2-2.87-3.19-4.55l.05-8.92a1.93,1.93,0,0,0-1.12-1.6L55.75,19.23l1.55-.88Z"/><path class="cls-45" d="M101.06,82l-1.55.87-7.57-4.49a12.94,12.94,0,0,0-6.23-1.57L70.3,76.57A8.9,8.9,0,0,1,66,75.5L35,57.1a12.9,12.9,0,0,0-6.24-1.58l-15.4-.18a8.92,8.92,0,0,1-4.28-1.08L1.63,49.82l1.54-.88,7.48,4.45a5.84,5.84,0,0,0,2.74.69l15.41.18a16.13,16.13,0,0,1,7.77,2l31,18.4a5.69,5.69,0,0,0,2.73.7l15.4.18a16.17,16.17,0,0,1,7.78,2Z"/><path class="cls-46" d="M110.52,75c2,1.21,3.2,2.86,3.19,4.54l0,8.93a2,2,0,0,0,1.13,1.6l16.82,10-1.54.87L113.24,91a3.06,3.06,0,0,1-1.75-2.5l.05-8.92c0-1.35-.92-2.68-2.57-3.65L98.41,69.63a12.87,12.87,0,0,0-6.24-1.58l-15.41-.19a8.82,8.82,0,0,1-4.27-1.07L52.87,55.15a3.1,3.1,0,0,1-1.75-2.5l.06-8.93c0-1.35-.93-2.67-2.57-3.64L34.1,31.46l1.55-.87L50.16,39.2c2,1.21,3.2,2.87,3.19,4.55l-.06,8.92a2,2,0,0,0,1.13,1.6L74,65.91a5.55,5.55,0,0,0,2.73.69l15.41.19a16.08,16.08,0,0,1,7.77,2Z"/><path class="cls-47" d="M122.38,107.06l-1.54.88-32.21-19a5.57,5.57,0,0,0-2.73-.69L70.48,88a16,16,0,0,1-7.77-2l-40.41-24,1.55-.87,40.41,24a12.94,12.94,0,0,0,6.23,1.58L85.91,87A8.75,8.75,0,0,1,90.17,88Z"/><polygon class="cls-48" points="100.73 106.81 99.19 107.69 76.18 94.06 77.72 93.19 100.73 106.81"/></g><polygon class="cls-49" points="39.9 45.66 38.36 46.53 23.28 37.58 24.82 36.71 39.9 45.66"/><polygon class="cls-50" points="132.39 88.16 130.85 89.03 122.46 84.06 124.01 83.19 132.39 88.16"/><polygon class="cls-51" points="347.41 190.53 345.87 191.41 333.55 184.09 335.09 183.22 347.41 190.53"/><polygon class="cls-52" points="379.89 172.18 378.34 173.05 353.59 158.36 355.13 157.49 379.89 172.18"/><g class="cls-1"><polygon class="cls-53" points="297.02 122.99 295.47 123.87 281.64 115.66 283.19 114.78 297.02 122.99"/><polygon class="cls-54" points="258.51 150.31 256.96 151.18 231.6 136.21 233.14 135.34 258.51 150.31"/><polygon class="cls-55" points="330.62 155.48 329.07 156.35 298.97 138.48 300.51 137.61 330.62 155.48"/><polygon class="cls-56" points="251.51 158.7 249.96 159.57 219.55 141.3 221.09 140.43 251.51 158.7"/><polygon class="cls-57" points="330.95 168.22 329.41 169.1 239.91 115.82 241.46 114.95 330.95 168.22"/><path class="cls-58" d="M341.19,149.21c2,1.21,3.2,2.87,3.19,4.54l-.05,8.93a1.93,1.93,0,0,0,1.12,1.6l23.61,14-1.54.88-23.61-14a3.07,3.07,0,0,1-1.76-2.5l.06-8.93a4.51,4.51,0,0,0-2.57-3.65L309.11,132a12.83,12.83,0,0,0-6.23-1.57l-15.42-.19a8.67,8.67,0,0,1-4.26-1.08l-23.07-13.63,1.54-.87,23.07,13.63a5.61,5.61,0,0,0,2.74.69l15.41.19a16.08,16.08,0,0,1,7.77,2Z"/><path class="cls-59" d="M358.24,184.41l-1.55.88-10.87-6.46a5.59,5.59,0,0,0-2.74-.69l-15.4-.18a16.13,16.13,0,0,1-7.77-2l-41.66-24.73,1.55-.87,41.65,24.73a12.94,12.94,0,0,0,6.23,1.57l15.42.18a8.78,8.78,0,0,1,4.26,1.08Z"/><polygon class="cls-60" points="242.58 191.03 241.03 191.9 195.04 164.6 196.58 163.73 242.58 191.03"/><polygon class="cls-61" points="336.58 196.65 335.04 197.52 313.55 184.77 315.1 183.9 336.58 196.65"/><path class="cls-62" d="M266.61,142.58a3.07,3.07,0,0,1,1.75,2.49L268.3,154a4.51,4.51,0,0,0,2.57,3.65l32,19a3.07,3.07,0,0,1,1.76,2.49l-.06,8.93a4.52,4.52,0,0,0,2.56,3.65l18.6,11-1.54.87-18.6-11c-2-1.21-3.2-2.86-3.19-4.54l.06-8.93a2,2,0,0,0-1.13-1.6l-32-19c-2-1.21-3.2-2.87-3.19-4.55l.06-8.92a2,2,0,0,0-1.13-1.6l-26.6-15.88,1.54-.87Z"/><path class="cls-63" d="M285,178.57c2,1.21,3.2,2.87,3.19,4.55l-.06,8.93a2,2,0,0,0,1.13,1.6l25.68,15.24-1.55.87-25.68-15.24A3.1,3.1,0,0,1,286,192l.05-8.93c0-1.34-.92-2.67-2.56-3.64l-18.79-11.16a12.94,12.94,0,0,0-6.23-1.57L243,166.54a8.91,8.91,0,0,1-4.27-1.08L194.5,138.82l1.55-.87,44.24,26.64a5.72,5.72,0,0,0,2.74.68l15.4.19a16,16,0,0,1,7.77,2Z"/><path class="cls-64" d="M270.59,182.56a3.1,3.1,0,0,1,1.75,2.5l-.06,8.93c0,1.34.93,2.68,2.56,3.65L304.11,215l-1.54.87L273.3,198.51c-2-1.21-3.21-2.87-3.19-4.55l.06-8.92a2,2,0,0,0-1.13-1.6L251.39,173l1.54-.87Z"/><path class="cls-65" d="M251,183.5c2,1.21,3.2,2.86,3.19,4.54l-.06,8.93a2,2,0,0,0,1.13,1.6l38,22.55-1.54.88-38-22.56a3.1,3.1,0,0,1-1.75-2.5L252,188c0-1.34-.92-2.67-2.55-3.64l-69-40.92,1.54-.88Z"/></g><path class="cls-66" d="M281.64,115.66l1.49-.1.06-.78-2.43-1.52c-2.25-1.18-.91-2,.06-2.52l1.53-.85.23-1.26-1.75.35-.95.55c-1.92,1.12-4.06,2.88,0,5Z"/><path class="cls-67" d="M121.41,113.72l-1.48-.14,0-.77,2.46-1.47c2.27-1.12,1-2,0-2.51l-1.51-.89-.19-1.26,1.73.38.93.57c1.9,1.17,4,3-.07,5.05Z"/><path class="cls-68" d="M99.76,113.47l-1.48-.14,0-.77,2.46-1.47c2.27-1.12,1-2,0-2.51l-1.51-.89-.2-1.26,1.74.38.93.58c1.9,1.16,4,3-.07,5Z"/><path class="cls-69" d="M260.12,115.49l1.49-.1.06-.77-2.43-1.52c-2.24-1.18-.9-2,.07-2.52l1.53-.85.22-1.26-1.74.35-.95.55c-1.92,1.12-4.06,2.88,0,5Z"/><path class="cls-70" d="M192.56,161.33a4.26,4.26,0,0,0-4.27-.05l-4.9,2.77,1.53.9,4.42-2.49a2.13,2.13,0,0,1,2.14,0L195,164.6l1.55-.87Z"/></g></g></svg>