<svg xmlns="http://www.w3.org/2000/svg" xmlns:xlink="http://www.w3.org/1999/xlink" viewBox="0 0 93.85 90.41"><defs><style>.cls-1,.cls-2,.cls-3{opacity:0.8;isolation:isolate;}.cls-1{fill:url(#未命名的渐变_233);}.cls-2{fill:url(#未命名的渐变_233-2);}.cls-3{fill:url(#未命名的渐变_233-3);}</style><linearGradient id="未命名的渐变_233" x1="-3065.98" y1="5046.59" x2="-3065.73" y2="5046.3" gradientTransform="matrix(91.91, 0, 0, -61.42, 281780.81, 309989.76)" gradientUnits="userSpaceOnUse"><stop offset="0" stop-color="#4c83ff"/><stop offset="1" stop-color="#2afadf"/></linearGradient><linearGradient id="未命名的渐变_233-2" x1="-3015.97" y1="5026.59" x2="-3015.96" y2="5028.65" gradientTransform="matrix(34.63, 0, 0, -83.33, 104512.41, 418956.52)" xlink:href="#未命名的渐变_233"/><linearGradient id="未命名的渐变_233-3" x1="-3016.35" y1="5027.44" x2="-3016.5" y2="5028.45" gradientTransform="matrix(34.86, 0, 0, -82.05, 105233.36, 412657.33)" xlink:href="#未命名的渐变_233"/></defs><title>资源 71</title><g id="图层_2" data-name="图层 2"><g id="央铋_1" data-name="央铋 1"><path id="Shape" class="cls-1" d="M0,81.74a5,5,0,0,0,3.62,4.78,112.91,112.91,0,0,0,29.09,3.89A109.43,109.43,0,0,0,61.8,86.56a5,5,0,0,0,3.61-4.77V48.67a2,2,0,0,0-2.61-1.91,97.47,97.47,0,0,1-30.09,4.76A111,111,0,0,1,2.59,46.7,2,2,0,0,0,0,48.62V81.74Z"/><path id="Shape-2" data-name="Shape" class="cls-2" d="M93.68,25.39S95,8.89,71.48.11a1.81,1.81,0,0,0-2.43,1.71V36.63a1.8,1.8,0,0,0,1.19,1.71c4.13,1.46,17.83,7.23,23.45,21.08Z"/><path id="Shape-3" data-name="Shape" class="cls-3" d="M69.05,49V81.82a2.06,2.06,0,0,0,2.9,1.9c6.45-2.86,21.41-10.52,21.73-20,.4-12.15,0-38.28,0-38.28s-5,15.33-21.27,19.4A4.39,4.39,0,0,0,69.05,49Z"/></g></g></svg>