<svg xmlns="http://www.w3.org/2000/svg" xmlns:xlink="http://www.w3.org/1999/xlink" viewBox="0 0 579.48 409.45"><defs><style>.cls-1,.cls-53,.cls-54{fill:none;}.cls-2{isolation:isolate;}.cls-3{fill:#036eb8;opacity:0.33;}.cls-3,.cls-79,.cls-9{mix-blend-mode:multiply;}.cls-4{fill:url(#linear-gradient);}.cls-5{fill:url(#未命名的渐变_64);}.cls-6{fill:#b3ebff;}.cls-7{fill:#5d9fd9;}.cls-8{fill:#92c7f6;}.cls-11,.cls-9{fill:#1e3b8c;}.cls-9{opacity:0.27;}.cls-10{fill:#172d6b;}.cls-12{fill:url(#linear-gradient-2);}.cls-13{fill:url(#linear-gradient-3);}.cls-14{fill:#213142;}.cls-15{fill:#033996;}.cls-16{fill:url(#linear-gradient-4);}.cls-17{fill:url(#linear-gradient-5);}.cls-18{fill:#1b3680;}.cls-19{fill:#a6caf7;}.cls-20{fill:url(#linear-gradient-6);}.cls-21{fill:url(#linear-gradient-7);}.cls-22{fill:url(#linear-gradient-8);}.cls-23{fill:url(#linear-gradient-9);}.cls-24,.cls-41,.cls-61,.cls-62,.cls-63,.cls-64{fill:#1245a4;}.cls-24,.cls-25,.cls-41,.cls-53,.cls-54,.cls-61,.cls-62,.cls-63,.cls-64{stroke:aqua;stroke-linecap:round;stroke-linejoin:round;}.cls-24,.cls-25,.cls-53{stroke-width:2.95px;}.cls-24,.cls-25,.cls-41,.cls-61{opacity:0.9;}.cls-25,.cls-28,.cls-55{fill:aqua;}.cls-26{fill:url(#linear-gradient-10);}.cls-27{fill:url(#linear-gradient-11);}.cls-29{fill:url(#linear-gradient-12);}.cls-30{fill:url(#linear-gradient-13);}.cls-31{fill:url(#linear-gradient-14);}.cls-32{fill:url(#linear-gradient-15);}.cls-33{fill:url(#linear-gradient-16);}.cls-34{fill:url(#linear-gradient-17);}.cls-35{fill:url(#linear-gradient-18);}.cls-36{fill:url(#linear-gradient-19);}.cls-37{fill:url(#linear-gradient-20);}.cls-38{fill:url(#linear-gradient-21);}.cls-39{fill:url(#linear-gradient-22);}.cls-40{fill:url(#linear-gradient-23);}.cls-41{stroke-width:4px;}.cls-42{fill:#b9d9f6;}.cls-43{fill:url(#linear-gradient-24);}.cls-44{fill:url(#linear-gradient-25);}.cls-45{fill:#6aaaf1;}.cls-46{fill:url(#linear-gradient-26);}.cls-47{fill:url(#linear-gradient-27);}.cls-48{fill:url(#linear-gradient-28);}.cls-49{fill:url(#linear-gradient-29);}.cls-50{fill:url(#linear-gradient-30);}.cls-51{fill:url(#linear-gradient-31);}.cls-52{opacity:0.8;fill:url(#linear-gradient-32);}.cls-53,.cls-63{opacity:0.2;}.cls-54{stroke-width:3px;}.cls-54,.cls-64{opacity:0.1;}.cls-55,.cls-57,.cls-62{opacity:0.3;}.cls-56{fill:url(#未命名的渐变_521);}.cls-57{fill:#111440;}.cls-58{fill:#31cdf3;}.cls-59{fill:#6ce1f5;}.cls-60{fill:url(#linear-gradient-33);}.cls-61,.cls-62,.cls-63,.cls-64{stroke-width:3.54px;}.cls-65{fill:url(#linear-gradient-34);}.cls-66{opacity:0.6;fill:url(#linear-gradient-35);}.cls-67{fill:url(#linear-gradient-36);}.cls-68{fill:url(#未命名的渐变_521-2);}.cls-69{fill:url(#linear-gradient-37);}.cls-70{fill:#184769;mix-blend-mode:screen;}.cls-71{fill:url(#未命名的渐变_28);}.cls-72{opacity:0.6;}.cls-72,.cls-87{mix-blend-mode:color-dodge;}.cls-73{clip-path:url(#clip-path);}.cls-74,.cls-99{fill:#fff;}.cls-75{clip-path:url(#clip-path-2);}.cls-76{clip-path:url(#clip-path-3);}.cls-77{clip-path:url(#clip-path-4);}.cls-78{clip-path:url(#clip-path-5);}.cls-80{fill:#5f1fa9;}.cls-81{fill:url(#未命名的渐变_52);}.cls-82{fill:url(#未命名的渐变_62);}.cls-83{fill:url(#铃琨眄_沭噤桢眚_24);}.cls-84{fill:url(#铃琨眄_沭噤桢眚_25);}.cls-85{fill:url(#未命名的渐变_521-3);}.cls-86{fill:url(#linear-gradient-38);}.cls-88{fill:url(#radial-gradient);}.cls-89{fill:url(#radial-gradient-2);}.cls-90{fill:url(#linear-gradient-39);}.cls-91{fill:url(#linear-gradient-40);}.cls-92{fill:url(#linear-gradient-41);}.cls-93{fill:#b2b2b2;}.cls-94{fill:#4c4c4c;}.cls-95{fill:#e4e4e4;}.cls-96{fill:url(#linear-gradient-42);}.cls-97{fill:url(#linear-gradient-43);}.cls-98{fill:url(#linear-gradient-44);}.cls-100,.cls-99{opacity:0.5;}.cls-100{fill:url(#radial-gradient-3);}</style><linearGradient id="linear-gradient" x1="64.26" y1="62.89" x2="84.26" y2="79.35" gradientUnits="userSpaceOnUse"><stop offset="0" stop-color="#12c2e9"/><stop offset="1" stop-color="#7d1edc"/></linearGradient><linearGradient id="未命名的渐变_64" x1="624.26" y1="108.05" x2="-25.36" y2="46.85" gradientUnits="userSpaceOnUse"><stop offset="0" stop-color="#0e1490"/><stop offset="1" stop-color="#15d4ff"/></linearGradient><linearGradient id="linear-gradient-2" x1="494.25" y1="57.16" x2="526.81" y2="57.16" gradientUnits="userSpaceOnUse"><stop offset="0" stop-color="#9ccff7"/><stop offset="1" stop-color="#2e7feb"/></linearGradient><linearGradient id="linear-gradient-3" x1="510.29" y1="57.48" x2="524.1" y2="65.07" gradientUnits="userSpaceOnUse"><stop offset="0" stop-color="#3985bf"/><stop offset="1" stop-color="#1567d4"/></linearGradient><linearGradient id="linear-gradient-4" x1="473.29" y1="68.87" x2="505.85" y2="68.87" xlink:href="#linear-gradient-2"/><linearGradient id="linear-gradient-5" x1="487.75" y1="70.18" x2="502.56" y2="75.53" xlink:href="#linear-gradient-3"/><linearGradient id="linear-gradient-6" x1="439.67" y1="85.86" x2="467.56" y2="85.86" xlink:href="#linear-gradient-2"/><linearGradient id="linear-gradient-7" x1="451" y1="89.32" x2="467.56" y2="89.32" xlink:href="#linear-gradient-3"/><linearGradient id="linear-gradient-8" x1="499.02" y1="24.61" x2="530.7" y2="24.61" xlink:href="#linear-gradient-2"/><linearGradient id="linear-gradient-9" x1="499.02" y1="25.31" x2="528.29" y2="25.31" xlink:href="#linear-gradient-3"/><linearGradient id="linear-gradient-10" x1="490.7" y1="29.41" x2="522.39" y2="29.41" xlink:href="#linear-gradient-2"/><linearGradient id="linear-gradient-11" x1="490.7" y1="30.1" x2="519.97" y2="30.1" xlink:href="#linear-gradient-3"/><linearGradient id="linear-gradient-12" x1="481.48" y1="34.7" x2="513.17" y2="34.7" xlink:href="#linear-gradient-2"/><linearGradient id="linear-gradient-13" x1="481.48" y1="35.4" x2="510.75" y2="35.4" xlink:href="#linear-gradient-3"/><linearGradient id="linear-gradient-14" x1="472.68" y1="39.91" x2="504.37" y2="39.91" xlink:href="#linear-gradient-2"/><linearGradient id="linear-gradient-15" x1="472.68" y1="40.61" x2="501.95" y2="40.61" xlink:href="#linear-gradient-3"/><linearGradient id="linear-gradient-16" x1="463.85" y1="45.1" x2="495.53" y2="45.1" xlink:href="#linear-gradient-2"/><linearGradient id="linear-gradient-17" x1="463.85" y1="45.8" x2="493.12" y2="45.8" xlink:href="#linear-gradient-3"/><linearGradient id="linear-gradient-18" x1="455.6" y1="49.75" x2="487.29" y2="49.75" xlink:href="#linear-gradient-2"/><linearGradient id="linear-gradient-19" x1="455.6" y1="50.45" x2="484.87" y2="50.45" xlink:href="#linear-gradient-3"/><linearGradient id="linear-gradient-20" x1="446.05" y1="55.4" x2="477.74" y2="55.4" xlink:href="#linear-gradient-2"/><linearGradient id="linear-gradient-21" x1="446.05" y1="56.1" x2="475.32" y2="56.1" xlink:href="#linear-gradient-3"/><linearGradient id="linear-gradient-22" x1="437.13" y1="60.58" x2="468.82" y2="60.58" xlink:href="#linear-gradient-2"/><linearGradient id="linear-gradient-23" x1="437.13" y1="61.28" x2="466.4" y2="61.28" xlink:href="#linear-gradient-3"/><linearGradient id="linear-gradient-24" x1="513.41" y1="33.52" x2="532.68" y2="33.52" xlink:href="#linear-gradient-2"/><linearGradient id="linear-gradient-25" x1="516.12" y1="34.37" x2="532.68" y2="34.37" xlink:href="#linear-gradient-3"/><linearGradient id="linear-gradient-26" x1="495.99" y1="43.57" x2="515.25" y2="43.57" xlink:href="#linear-gradient-2"/><linearGradient id="linear-gradient-27" x1="498.69" y1="44.42" x2="515.25" y2="44.42" xlink:href="#linear-gradient-3"/><linearGradient id="linear-gradient-28" x1="478.51" y1="53.84" x2="497.77" y2="53.84" xlink:href="#linear-gradient-2"/><linearGradient id="linear-gradient-29" x1="481.21" y1="54.69" x2="497.77" y2="54.69" xlink:href="#linear-gradient-3"/><linearGradient id="linear-gradient-30" x1="460.84" y1="63.99" x2="480.1" y2="63.99" xlink:href="#linear-gradient-2"/><linearGradient id="linear-gradient-31" x1="463.54" y1="64.84" x2="480.1" y2="64.84" xlink:href="#linear-gradient-3"/><linearGradient id="linear-gradient-32" x1="-18287.05" y1="55.29" x2="-18264.54" y2="68.66" gradientTransform="matrix(-1, 0, 0, 1, -17840.52, 0)" gradientUnits="userSpaceOnUse"><stop offset="0" stop-color="#3dc7f5"/><stop offset="0.34" stop-color="#3dc7f5" stop-opacity="0.62"/><stop offset="0.66" stop-color="#3dc7f5" stop-opacity="0.29"/><stop offset="0.89" stop-color="#3dc7f5" stop-opacity="0.08"/><stop offset="1" stop-color="#3dc7f5" stop-opacity="0"/></linearGradient><linearGradient id="未命名的渐变_521" x1="617.36" y1="351.61" x2="251.58" y2="299.35" gradientUnits="userSpaceOnUse"><stop offset="0" stop-color="#0e1490"/><stop offset="0.64" stop-color="#159eff"/><stop offset="1" stop-color="#15d4ff"/></linearGradient><linearGradient id="linear-gradient-33" x1="440.02" y1="303.23" x2="520.03" y2="303.23" gradientUnits="userSpaceOnUse"><stop offset="0" stop-color="#1f599c"/><stop offset="1" stop-color="#0029b0"/></linearGradient><linearGradient id="linear-gradient-34" x1="440.02" y1="271.06" x2="520.04" y2="271.06" gradientUnits="userSpaceOnUse"><stop offset="0" stop-color="#5fb5f7"/><stop offset="1" stop-color="#2e7feb"/></linearGradient><linearGradient id="linear-gradient-35" x1="480.51" y1="281.59" x2="480.51" y2="187.79" gradientUnits="userSpaceOnUse"><stop offset="0" stop-color="aqua"/><stop offset="0.36" stop-color="aqua" stop-opacity="0.6"/><stop offset="0.67" stop-color="aqua" stop-opacity="0.28"/><stop offset="0.89" stop-color="aqua" stop-opacity="0.08"/><stop offset="1" stop-color="aqua" stop-opacity="0"/></linearGradient><linearGradient id="linear-gradient-36" x1="480.25" y1="283.23" x2="480.25" y2="230.58" xlink:href="#linear-gradient-35"/><linearGradient id="未命名的渐变_521-2" x1="246.76" y1="101.96" x2="-185.71" y2="68.42" xlink:href="#未命名的渐变_521"/><linearGradient id="linear-gradient-37" x1="65.75" y1="63.52" x2="85.74" y2="79.98" xlink:href="#linear-gradient"/><linearGradient id="未命名的渐变_28" x1="52.95" y1="80.92" x2="168.97" y2="80.92" gradientUnits="userSpaceOnUse"><stop offset="0" stop-color="#1734bd"/><stop offset="1" stop-color="#02f6f7"/></linearGradient><clipPath id="clip-path"><polygon id="SVGID" class="cls-1" points="123.04 107.84 153.87 89.92 159.85 93.38 129.02 111.29 123.04 107.84"/></clipPath><clipPath id="clip-path-2"><polygon id="SVGID-2" data-name="SVGID" class="cls-1" points="99.83 110.28 69 92.37 63.02 95.82 93.85 113.73 99.83 110.28"/></clipPath><clipPath id="clip-path-3"><polygon id="SVGID-3" data-name="SVGID" class="cls-1" points="110.55 90.82 139.05 74.26 144.2 77.23 115.7 93.8 110.55 90.82"/></clipPath><clipPath id="clip-path-4"><polygon id="SVGID-4" data-name="SVGID" class="cls-1" points="92.26 78.58 123.09 60.67 127.37 63.13 96.54 81.05 92.26 78.58"/></clipPath><clipPath id="clip-path-5"><polygon id="SVGID-5" data-name="SVGID" class="cls-1" points="71.74 72.13 104.05 53.35 109.79 56.66 77.47 75.44 71.74 72.13"/></clipPath><linearGradient id="未命名的渐变_52" x1="109.58" y1="107.16" x2="109.58" y2="6.51" gradientUnits="userSpaceOnUse"><stop offset="0" stop-color="#00ebff"/><stop offset="0.22" stop-color="#02e9fa" stop-opacity="0.76"/><stop offset="0.6" stop-color="#05e5f1" stop-opacity="0.36"/><stop offset="0.87" stop-color="#07e2eb" stop-opacity="0.1"/><stop offset="1" stop-color="#08e1e9" stop-opacity="0"/></linearGradient><linearGradient id="未命名的渐变_62" x1="245.21" y1="353.68" x2="-168.36" y2="277.25" xlink:href="#未命名的渐变_64"/><linearGradient id="铃琨眄_沭噤桢眚_24" x1="318.58" y1="1659.28" x2="430.33" y2="1659.28" gradientTransform="matrix(-0.87, -0.5, 0, 1.15, 436.49, -1439)" gradientUnits="userSpaceOnUse"><stop offset="0" stop-color="#5761d7"/><stop offset="0.18" stop-color="#5c66d9"/><stop offset="0.39" stop-color="#6a73df"/><stop offset="0.61" stop-color="#8289e8"/><stop offset="0.85" stop-color="#a3a7f5"/><stop offset="1" stop-color="#bcbeff"/></linearGradient><radialGradient id="铃琨眄_沭噤桢眚_25" cx="127.95" cy="288.62" fx="84.41897843817188" fy="273.26705179974545" r="46.16" gradientTransform="matrix(-1, 0, 0, 1, 265.81, 0)" gradientUnits="userSpaceOnUse"><stop offset="0" stop-color="#2b237c"/><stop offset="1" stop-color="#180d5b"/></radialGradient><linearGradient id="未命名的渐变_521-3" x1="105.21" y1="303.13" x2="216.45" y2="303.13" gradientTransform="matrix(-1, 0, 0, 1, 265.81, 0)" xlink:href="#未命名的渐变_521"/><linearGradient id="linear-gradient-38" x1="45.06" y1="309.01" x2="141.84" y2="309.01" xlink:href="#linear-gradient-34"/><radialGradient id="radial-gradient" cx="108.54" cy="56.32" r="31.34" gradientUnits="userSpaceOnUse"><stop offset="0" stop-color="#fff0be"/><stop offset="0.06" stop-color="#fff0b5" stop-opacity="0.86"/><stop offset="0.16" stop-color="#fff0a8" stop-opacity="0.66"/><stop offset="0.26" stop-color="#fff09c" stop-opacity="0.48"/><stop offset="0.37" stop-color="#fff092" stop-opacity="0.33"/><stop offset="0.48" stop-color="#fff08a" stop-opacity="0.21"/><stop offset="0.59" stop-color="#fff084" stop-opacity="0.12"/><stop offset="0.71" stop-color="#fff07f" stop-opacity="0.05"/><stop offset="0.84" stop-color="#fff07d" stop-opacity="0.01"/><stop offset="1" stop-color="#fff07c" stop-opacity="0"/></radialGradient><radialGradient id="radial-gradient-2" cx="108.54" cy="56.32" r="24.47" gradientTransform="translate(146.24 -60.01) rotate(80.53)" gradientUnits="userSpaceOnUse"><stop offset="0" stop-color="#fff0be"/><stop offset="0.02" stop-color="#fff0bc" stop-opacity="0.98"/><stop offset="0.3" stop-color="#fff0a6" stop-opacity="0.63"/><stop offset="0.55" stop-color="#fff094" stop-opacity="0.36"/><stop offset="0.76" stop-color="#fff087" stop-opacity="0.17"/><stop offset="0.91" stop-color="#fff07f" stop-opacity="0.05"/><stop offset="1" stop-color="#fff07c" stop-opacity="0"/></radialGradient><linearGradient id="linear-gradient-39" x1="105.31" y1="74.31" x2="111.78" y2="74.31" gradientUnits="userSpaceOnUse"><stop offset="0" stop-color="#8a8a8a"/><stop offset="0.25" stop-color="#cacaca"/><stop offset="0.5" stop-color="#fff"/><stop offset="0.75" stop-color="#cacaca"/><stop offset="1" stop-color="gray"/></linearGradient><linearGradient id="linear-gradient-40" x1="103.97" y1="73.72" x2="113.11" y2="73.72" xlink:href="#linear-gradient-39"/><linearGradient id="linear-gradient-41" x1="103.59" y1="71.32" x2="113.5" y2="71.32" xlink:href="#linear-gradient-39"/><linearGradient id="linear-gradient-42" x1="103.59" y1="69.44" x2="113.5" y2="69.44" xlink:href="#linear-gradient-39"/><linearGradient id="linear-gradient-43" x1="103.59" y1="67.57" x2="113.5" y2="67.57" xlink:href="#linear-gradient-39"/><linearGradient id="linear-gradient-44" x1="103.59" y1="65.69" x2="113.5" y2="65.69" xlink:href="#linear-gradient-39"/><radialGradient id="radial-gradient-3" cx="108.54" cy="56.32" r="10.91" gradientTransform="translate(146.02 -60.08) rotate(80.42)" gradientUnits="userSpaceOnUse"><stop offset="0" stop-color="#fff" stop-opacity="0"/><stop offset="0.37" stop-color="#fff" stop-opacity="0.01"/><stop offset="0.51" stop-color="#fff" stop-opacity="0.03"/><stop offset="0.6" stop-color="#fff" stop-opacity="0.08"/><stop offset="0.68" stop-color="#fff" stop-opacity="0.15"/><stop offset="0.75" stop-color="#fff" stop-opacity="0.23"/><stop offset="0.8" stop-color="#fff" stop-opacity="0.34"/><stop offset="0.86" stop-color="#fff" stop-opacity="0.47"/><stop offset="0.91" stop-color="#fff" stop-opacity="0.61"/><stop offset="0.95" stop-color="#fff" stop-opacity="0.78"/><stop offset="0.99" stop-color="#fff" stop-opacity="0.96"/><stop offset="1" stop-color="#fff"/></radialGradient></defs><title>资源 76</title><g class="cls-2"><g id="图层_2" data-name="图层 2"><g id="央铋_1" data-name="央铋 1"><path class="cls-3" d="M13,354.91l89.85,51.87a16.28,16.28,0,0,0,14.16,0l80.16-46.59a1,1,0,0,0,0-1.65l-89.85-51.87a14.7,14.7,0,0,0-7.1-1.62,14.55,14.55,0,0,0-7.07,1.61L12.91,353.26A1,1,0,0,0,13,354.91Z"/><path class="cls-4" d="M82,77a3.52,3.52,0,0,1-1.76-.54A3.52,3.52,0,0,0,82,77Z"/><path class="cls-3" d="M385.34,119.17,475.19,171a16.28,16.28,0,0,0,14.16,0l80.16-46.59a1,1,0,0,0,0-1.65L479.62,71a14.77,14.77,0,0,0-7.11-1.62,14.48,14.48,0,0,0-7.06,1.61l-80.17,46.58A1,1,0,0,0,385.34,119.17Z"/><path class="cls-5" d="M576.46,91.45c0-2.09-1.4-4.17-4.16-5.77L482.45,33.81c-5.51-3.18-14.41-3.18-19.88,0L382.41,80.4c-2.74,1.59-4.1,3.67-4.09,5.76s0,8.71,0,10.78,1.38,4.2,4.15,5.81l89.85,51.87c5.51,3.18,14.41,3.18,19.89,0L572.37,108c2.68-1.55,4-3.59,4.08-5.63S576.47,93.53,576.46,91.45Z"/><path class="cls-6" d="M385.33,85.65l89.85,51.87a16.33,16.33,0,0,0,14.16,0L569.5,90.94a1,1,0,0,0,0-1.64L479.6,37.42a16.35,16.35,0,0,0-14.17,0L385.27,84A1,1,0,0,0,385.33,85.65Z"/><polygon class="cls-7" points="505.56 1.82 505.56 4.29 505.56 4.29 505.56 64.03 503.41 65.27 501.25 64.03 501.25 1.82 503.41 0.58 505.56 1.82"/><polygon class="cls-8" points="501.25 64.03 503.4 65.27 503.4 3.06 501.25 1.82 501.25 64.03"/><polygon class="cls-9" points="461.48 123.58 534.85 81.05 503.38 62.72 430 105.25 461.48 123.58"/><polygon class="cls-10" points="430 96.45 461.49 114.78 461.48 112.57 430 94.24 430 96.45"/><polygon class="cls-10" points="534.85 72.26 461.49 114.78 461.48 112.57 534.85 70.04 534.85 72.26"/><polygon class="cls-11" points="461.48 112.57 534.85 70.04 503.38 51.72 430 94.24 461.48 112.57"/><polygon class="cls-12" points="524.54 65.4 510.27 76.29 494.25 66.58 494.25 47.59 510.8 38.04 526.81 47.75 524.54 65.4"/><polygon class="cls-13" points="526.8 66.73 510.27 76.29 510.25 57.29 526.81 47.75 526.8 66.73"/><ellipse class="cls-14" cx="499.6" cy="63.99" rx="2.98" ry="5.16" transform="translate(36 260.89) rotate(-30.31)"/><path class="cls-15" d="M499.84,64.83l.26,0c.35.38.69.77,1,1.14.2.22.43.4.64.61a.84.84,0,0,1,.29.77,2.49,2.49,0,0,1-.55,1.06c-.14.16-.37.08-.6-.19a3.3,3.3,0,0,1-.22-.3,5.85,5.85,0,0,1-.74-1.74,5,5,0,0,1-.17-1.22A.09.09,0,0,1,499.84,64.83Z"/><path class="cls-15" d="M501.16,63.15a1.56,1.56,0,0,1-1,.54.2.2,0,0,1-.14,0c-.1-.1-.19-.22-.3-.33v-.07c0-.35,0-.7-.05-1.06s-.1-.64-.15-1,.05-.6.36-.48a8,8,0,0,1,1.16.53.94.94,0,0,1,.5.93A1.46,1.46,0,0,1,501.16,63.15Z"/><path class="cls-15" d="M496.34,61.73a1.34,1.34,0,0,1,.44,0,3.18,3.18,0,0,1,1.12.63,5.69,5.69,0,0,1,1,1,.28.28,0,0,1,.06.14c0,.13,0,.26,0,.38-.27.06-.55.1-.81.17a5.15,5.15,0,0,0-.54.23c-.28.14-.52,0-.78-.48a5.77,5.77,0,0,1-.27-.56c-.14-.32-.28-.63-.4-1S496.13,61.76,496.34,61.73Z"/><path class="cls-15" d="M499.58,63.39a1.15,1.15,0,0,1,.49.61.67.67,0,0,1,0,.56c-.14.22-.46.15-.71-.16a1.13,1.13,0,0,1-.2-.35,1,1,0,0,1-.08-.33C499.07,63.38,499.29,63.24,499.58,63.39Z"/><path class="cls-15" d="M501.24,65.59a5.84,5.84,0,0,1-.93-.93.32.32,0,0,1-.06-.15c0-.13,0-.26,0-.37.31-.07.63-.12.93-.2s.34-.16.51-.22.42.06.6.37a8.83,8.83,0,0,1,.75,1.67c.11.34,0,.54-.19.57a1,1,0,0,1-.24,0A3.2,3.2,0,0,1,501.24,65.59Z"/><path class="cls-15" d="M499.1,63.24l-.05-.05c-.27-.32-.53-.64-.8-.94s-.49-.49-.74-.73-.44-.62-.33-.9a4.34,4.34,0,0,1,.5-.93c.17-.25.43-.14.73.25a4.76,4.76,0,0,1,.68,1.35,5.9,5.9,0,0,1,.33,1.77s0,.11-.05.12Z"/><path class="cls-15" d="M498.27,64.61a1.35,1.35,0,0,1,.8-.32.16.16,0,0,1,.12,0c.09.11.19.22.28.34,0,.38,0,.76.07,1.16a8.89,8.89,0,0,0,.13.88c.08.48-.05.64-.42.51a2.88,2.88,0,0,1-.45-.19,7.92,7.92,0,0,1-.74-.41.89.89,0,0,1-.41-.72,2.85,2.85,0,0,1,.06-.52A1.36,1.36,0,0,1,498.27,64.61Z"/><ellipse class="cls-15" cx="496.48" cy="58.55" rx="0.18" ry="0.31" transform="translate(38.32 258.57) rotate(-30.31)"/><ellipse class="cls-15" cx="496.48" cy="65.54" rx="0.18" ry="0.31" transform="translate(34.79 259.53) rotate(-30.31)"/><ellipse class="cls-15" cx="502.69" cy="62.14" rx="0.18" ry="0.31" transform="translate(37.36 262.2) rotate(-30.31)"/><ellipse class="cls-15" cx="502.69" cy="69.13" rx="0.18" ry="0.31" transform="translate(33.83 263.15) rotate(-30.31)"/><polygon class="cls-16" points="503.58 77.11 489.31 88 473.29 78.29 473.29 59.3 489.84 49.74 505.85 59.45 503.58 77.11"/><polygon class="cls-17" points="505.83 78.44 489.3 88 489.28 69 505.84 59.45 505.83 78.44"/><ellipse class="cls-18" cx="478.64" cy="75.7" rx="2.98" ry="5.16" transform="matrix(0.86, -0.5, 0.5, 0.86, 27.23, 251.91)"/><path class="cls-19" d="M478.88,76.54a1.17,1.17,0,0,1,.26,0c.35.38.69.77,1,1.13.2.22.43.41.64.62a.83.83,0,0,1,.29.76,2.53,2.53,0,0,1-.55,1.07c-.14.16-.37.08-.6-.19a3.3,3.3,0,0,1-.22-.3,5.6,5.6,0,0,1-.74-1.74,5,5,0,0,1-.17-1.22A.09.09,0,0,1,478.88,76.54Z"/><path class="cls-19" d="M480.19,74.86a1.56,1.56,0,0,1-1,.54.22.22,0,0,1-.14-.06c-.1-.09-.19-.21-.3-.33V75c0-.35,0-.7-.06-1.06s-.09-.64-.14-1,0-.6.36-.48a9.32,9.32,0,0,1,1.16.54,1,1,0,0,1,.5.93A1.42,1.42,0,0,1,480.19,74.86Z"/><path class="cls-19" d="M475.38,73.44a1.34,1.34,0,0,1,.44,0,3.18,3.18,0,0,1,1.12.63,5.69,5.69,0,0,1,1,1,.25.25,0,0,1,.06.14c0,.13,0,.25,0,.38-.27.06-.55.1-.81.17a5.15,5.15,0,0,0-.54.23c-.28.14-.52,0-.78-.48a5.77,5.77,0,0,1-.27-.56c-.14-.32-.28-.64-.4-1S475.17,73.47,475.38,73.44Z"/><path class="cls-19" d="M478.62,75.1a1.15,1.15,0,0,1,.49.61.67.67,0,0,1,0,.56c-.14.22-.46.14-.71-.17a1,1,0,0,1-.2-.34,1,1,0,0,1-.08-.33C478.11,75.09,478.33,75,478.62,75.1Z"/><path class="cls-19" d="M480.28,77.3a5.84,5.84,0,0,1-.93-.93.32.32,0,0,1-.06-.15c0-.13,0-.26,0-.37.31-.07.63-.12.93-.21s.34-.15.51-.21.42.06.6.37a8.56,8.56,0,0,1,.75,1.67c.11.33,0,.54-.19.57a1,1,0,0,1-.24,0A3.2,3.2,0,0,1,480.28,77.3Z"/><path class="cls-19" d="M478.13,75l0-.06c-.27-.31-.53-.64-.8-.93s-.49-.49-.74-.73a.87.87,0,0,1-.33-.91,4.51,4.51,0,0,1,.5-.92c.17-.25.43-.15.73.25a4.76,4.76,0,0,1,.68,1.35,5.9,5.9,0,0,1,.33,1.77s0,.11,0,.12A2.3,2.3,0,0,1,478.13,75Z"/><path class="cls-19" d="M477.31,76.31a1.42,1.42,0,0,1,.8-.32.27.27,0,0,1,.12.06l.28.33c0,.39,0,.77.07,1.17s.08.58.13.88c.08.47,0,.64-.42.51a2.88,2.88,0,0,1-.45-.19c-.24-.13-.49-.25-.74-.41a.89.89,0,0,1-.41-.72,2.75,2.75,0,0,1,.06-.52A1.42,1.42,0,0,1,477.31,76.31Z"/><ellipse class="cls-15" cx="475.52" cy="70.26" rx="0.18" ry="0.31" transform="translate(29.54 249.59) rotate(-30.31)"/><ellipse class="cls-15" cx="475.52" cy="77.25" rx="0.18" ry="0.31" transform="translate(26.02 250.55) rotate(-30.31)"/><ellipse class="cls-15" cx="481.73" cy="73.84" rx="0.18" ry="0.31" transform="matrix(0.86, -0.5, 0.5, 0.86, 28.58, 253.22)"/><ellipse class="cls-15" cx="481.73" cy="80.83" rx="0.18" ry="0.31" transform="translate(25.06 254.17) rotate(-30.31)"/><polygon class="cls-20" points="465.29 89.2 451.02 100.09 439.67 93.18 439.67 81.19 456.22 71.64 467.56 78.55 465.29 89.2"/><polygon class="cls-21" points="467.55 90.53 451.02 100.09 451 88.09 467.56 78.55 467.55 90.53"/><polygon class="cls-8" points="439.67 81.19 451 88.09 451.02 100.09 439.67 93.18 439.67 81.19"/><polygon class="cls-11" points="449.69 89.33 440.59 84.07 440.59 83.45 449.69 88.71 449.69 89.33"/><polygon class="cls-11" points="449.69 90.28 440.59 85.02 440.59 84.4 449.69 89.66 449.69 90.28"/><polygon class="cls-11" points="449.69 91.22 440.59 85.97 440.59 85.35 449.69 90.6 449.69 91.22"/><polygon class="cls-11" points="449.69 92.17 440.59 86.92 440.59 86.29 449.69 91.55 449.69 92.17"/><polygon class="cls-11" points="449.69 93.12 440.59 87.86 440.59 87.24 449.69 92.5 449.69 93.12"/><polygon class="cls-11" points="449.69 94.06 440.59 88.81 440.59 88.19 449.69 93.44 449.69 94.06"/><polygon class="cls-11" points="449.69 95.01 440.59 89.76 440.59 89.13 449.69 94.39 449.69 95.01"/><polygon class="cls-11" points="449.69 95.96 440.59 90.7 440.59 90.08 449.69 95.34 449.69 95.96"/><polygon class="cls-11" points="449.69 96.91 440.59 91.65 440.59 91.03 449.69 96.28 449.69 96.91"/><polygon class="cls-11" points="449.69 97.85 440.59 92.6 440.59 91.97 449.69 97.23 449.69 97.85"/><polygon class="cls-10" points="430 64.1 461.49 82.43 461.48 80.22 430 61.89 430 64.1"/><polygon class="cls-10" points="534.85 39.91 461.49 82.43 461.48 80.22 534.85 37.69 534.85 39.91"/><polygon class="cls-11" points="461.48 80.22 534.85 37.69 503.38 19.36 430 61.89 461.48 80.22"/><polygon class="cls-7" points="434.31 42.95 434.31 45.42 434.3 45.41 434.3 105.15 432.15 106.39 430 105.15 430 42.94 432.16 41.7 434.31 42.95"/><polygon class="cls-8" points="430 105.15 432.15 106.39 432.15 44.18 430 42.94 430 105.15"/><polygon class="cls-22" points="501.44 7.64 499.02 9.04 501.44 23.27 528.27 41.58 530.7 40.17 530.7 24.54 501.44 7.64"/><polygon class="cls-23" points="499.02 9.04 499.02 24.67 528.29 41.57 528.29 25.94 499.02 9.04"/><ellipse class="cls-24" cx="505.67" cy="21.45" rx="3.48" ry="6.03" transform="translate(58.3 258.14) rotate(-30.31)"/><ellipse class="cls-25" cx="505.67" cy="21.45" rx="1.22" ry="2.11" transform="translate(58.3 258.14) rotate(-30.31)"/><polygon class="cls-11" points="514.24 20.76 525.55 27.29 525.55 27.89 514.24 21.36 514.24 20.76"/><polygon class="cls-11" points="514.24 22.17 525.55 28.7 525.55 29.3 514.24 22.77 514.24 22.17"/><polygon class="cls-11" points="514.24 23.59 525.55 30.11 525.55 30.71 514.24 24.19 514.24 23.59"/><polygon class="cls-11" points="514.24 25 525.55 31.53 525.55 32.13 514.24 25.6 514.24 25"/><polygon class="cls-11" points="514.24 26.42 525.55 32.95 525.55 33.55 514.24 27.02 514.24 26.42"/><polygon class="cls-11" points="514.24 27.83 525.55 34.36 525.55 34.96 514.24 28.43 514.24 27.83"/><polygon class="cls-11" points="514.24 29.25 525.55 35.77 525.55 36.37 514.24 29.84 514.24 29.25"/><polygon class="cls-11" points="514.24 30.66 525.55 37.19 525.55 37.79 514.24 31.26 514.24 30.66"/><polygon class="cls-26" points="493.12 12.44 490.7 13.84 493.12 28.07 519.95 46.37 522.39 44.97 522.39 29.34 493.12 12.44"/><polygon class="cls-27" points="490.7 13.84 490.71 29.47 519.97 46.37 519.97 30.74 490.7 13.84"/><ellipse class="cls-24" cx="497.36" cy="26.25" rx="3.48" ry="6.03" transform="translate(54.74 254.6) rotate(-30.31)"/><ellipse class="cls-28" cx="497.36" cy="26.25" rx="1.22" ry="2.11" transform="translate(54.74 254.6) rotate(-30.31)"/><polygon class="cls-11" points="505.93 25.55 517.23 32.08 517.23 32.68 505.93 26.15 505.93 25.55"/><polygon class="cls-11" points="505.93 26.97 517.23 33.5 517.23 34.1 505.93 27.57 505.93 26.97"/><polygon class="cls-11" points="505.93 28.38 517.23 34.91 517.23 35.51 505.93 28.98 505.93 28.38"/><polygon class="cls-11" points="505.93 29.8 517.23 36.33 517.23 36.93 505.93 30.4 505.93 29.8"/><polygon class="cls-11" points="505.93 31.21 517.23 37.74 517.23 38.34 505.93 31.81 505.93 31.21"/><polygon class="cls-11" points="505.93 32.63 517.23 39.16 517.23 39.76 505.93 33.23 505.93 32.63"/><polygon class="cls-11" points="505.93 34.04 517.23 40.57 517.23 41.17 505.93 34.64 505.93 34.04"/><polygon class="cls-11" points="505.93 35.46 517.23 41.98 517.23 42.59 505.93 36.06 505.93 35.46"/><polygon class="cls-29" points="483.9 17.73 481.48 19.14 483.9 33.37 510.73 51.67 513.17 50.26 513.17 34.63 483.9 17.73"/><polygon class="cls-30" points="481.48 19.14 481.49 34.77 510.75 51.66 510.75 36.03 481.48 19.14"/><ellipse class="cls-24" cx="488.14" cy="31.55" rx="3.48" ry="6.03" transform="translate(50.81 250.67) rotate(-30.31)"/><ellipse class="cls-28" cx="488.14" cy="31.55" rx="1.22" ry="2.11" transform="translate(50.81 250.67) rotate(-30.31)"/><polygon class="cls-11" points="496.71 30.85 508.01 37.38 508.01 37.98 496.71 31.45 496.71 30.85"/><polygon class="cls-11" points="496.71 32.27 508.01 38.79 508.01 39.39 496.71 32.87 496.71 32.27"/><polygon class="cls-11" points="496.71 33.68 508.01 40.21 508.01 40.81 496.71 34.28 496.71 33.68"/><polygon class="cls-11" points="496.71 35.09 508.01 41.62 508.01 42.22 496.71 35.69 496.71 35.09"/><polygon class="cls-11" points="496.71 36.51 508.01 43.04 508.01 43.64 496.71 37.11 496.71 36.51"/><polygon class="cls-11" points="496.71 37.92 508.01 44.45 508.01 45.05 496.71 38.52 496.71 37.92"/><polygon class="cls-11" points="496.71 39.34 508.01 45.87 508.01 46.47 496.71 39.94 496.71 39.34"/><polygon class="cls-11" points="496.71 40.75 508.01 47.28 508.01 47.88 496.71 41.35 496.71 40.75"/><polygon class="cls-31" points="475.1 22.94 472.68 24.34 475.1 38.57 501.93 56.88 504.37 55.47 504.37 39.84 475.1 22.94"/><polygon class="cls-32" points="472.68 24.34 472.69 39.97 501.95 56.87 501.95 41.24 472.68 24.34"/><ellipse class="cls-24" cx="479.34" cy="36.75" rx="3.48" ry="6.03" transform="translate(46.98 246.94) rotate(-30.31)"/><ellipse class="cls-28" cx="479.34" cy="36.75" rx="1.22" ry="2.11" transform="translate(46.98 246.94) rotate(-30.31)"/><polygon class="cls-11" points="487.91 36.06 499.21 42.58 499.21 43.18 487.91 36.66 487.91 36.06"/><polygon class="cls-11" points="487.91 37.47 499.21 44 499.21 44.6 487.91 38.07 487.91 37.47"/><polygon class="cls-11" points="487.91 38.88 499.21 45.41 499.21 46.01 487.91 39.48 487.91 38.88"/><polygon class="cls-11" points="487.91 40.3 499.21 46.83 499.21 47.43 487.91 40.9 487.91 40.3"/><polygon class="cls-11" points="487.91 41.71 499.21 48.24 499.21 48.84 487.91 42.31 487.91 41.71"/><polygon class="cls-11" points="487.91 43.13 499.21 49.66 499.21 50.26 487.91 43.73 487.91 43.13"/><polygon class="cls-11" points="487.91 44.54 499.21 51.07 499.21 51.67 487.91 45.14 487.91 44.54"/><polygon class="cls-11" points="487.91 45.96 499.21 52.49 499.21 53.09 487.91 46.56 487.91 45.96"/><polygon class="cls-33" points="466.26 28.14 463.85 29.54 466.26 43.76 493.1 62.07 495.53 60.66 495.53 45.03 466.26 28.14"/><polygon class="cls-34" points="463.85 29.54 463.85 45.17 493.12 62.06 493.12 46.43 463.85 29.54"/><ellipse class="cls-24" cx="470.5" cy="41.95" rx="3.48" ry="6.03" transform="translate(43.15 243.19) rotate(-30.31)"/><ellipse class="cls-25" cx="470.5" cy="41.78" rx="1.22" ry="2.11" transform="translate(43.23 243.17) rotate(-30.31)"/><polygon class="cls-11" points="479.07 41.25 490.38 47.78 490.38 48.38 479.07 41.85 479.07 41.25"/><polygon class="cls-11" points="479.07 42.66 490.38 49.19 490.38 49.79 479.07 43.27 479.07 42.66"/><polygon class="cls-11" points="479.07 44.08 490.38 50.61 490.38 51.21 479.07 44.68 479.07 44.08"/><polygon class="cls-11" points="479.07 45.49 490.38 52.02 490.38 52.62 479.07 46.09 479.07 45.49"/><polygon class="cls-11" points="479.07 46.91 490.38 53.44 490.38 54.04 479.07 47.51 479.07 46.91"/><polygon class="cls-11" points="479.07 48.32 490.38 54.85 490.38 55.45 479.07 48.92 479.07 48.32"/><polygon class="cls-11" points="479.07 49.74 490.38 56.27 490.38 56.87 479.07 50.34 479.07 49.74"/><polygon class="cls-11" points="479.07 51.15 490.38 57.68 490.38 58.28 479.07 51.75 479.07 51.15"/><polygon class="cls-35" points="458.02 32.78 455.6 34.19 458.02 48.41 484.85 66.72 487.29 65.31 487.29 49.68 458.02 32.78"/><polygon class="cls-36" points="455.6 34.19 455.61 49.81 484.87 66.71 484.87 51.08 455.6 34.19"/><ellipse class="cls-24" cx="462.26" cy="46.59" rx="3.48" ry="6.03" transform="translate(39.67 239.67) rotate(-30.31)"/><ellipse class="cls-28" cx="462.26" cy="46.59" rx="1.22" ry="2.11" transform="translate(39.67 239.67) rotate(-30.31)"/><polygon class="cls-11" points="470.83 45.9 482.13 52.43 482.13 53.03 470.83 46.5 470.83 45.9"/><polygon class="cls-11" points="470.83 47.31 482.13 53.84 482.13 54.44 470.83 47.91 470.83 47.31"/><polygon class="cls-11" points="470.83 48.73 482.13 55.26 482.13 55.86 470.83 49.33 470.83 48.73"/><polygon class="cls-11" points="470.83 50.14 482.13 56.67 482.13 57.27 470.83 50.74 470.83 50.14"/><polygon class="cls-11" points="470.83 51.56 482.13 58.09 482.13 58.69 470.83 52.16 470.83 51.56"/><polygon class="cls-11" points="470.83 52.97 482.13 59.5 482.13 60.1 470.83 53.57 470.83 52.97"/><polygon class="cls-11" points="470.83 54.39 482.13 60.92 482.13 61.52 470.83 54.99 470.83 54.39"/><polygon class="cls-11" points="470.83 55.8 482.13 62.33 482.13 62.93 470.83 56.4 470.83 55.8"/><polygon class="cls-37" points="448.47 38.43 446.05 39.83 448.47 54.06 475.3 72.37 477.74 70.96 477.74 55.33 448.47 38.43"/><polygon class="cls-38" points="446.05 39.83 446.06 55.46 475.32 72.36 475.32 56.73 446.05 39.83"/><ellipse class="cls-24" cx="452.71" cy="52.24" rx="3.48" ry="6.03" transform="translate(35.52 235.62) rotate(-30.31)"/><ellipse class="cls-25" cx="452.71" cy="52.24" rx="1.22" ry="2.11" transform="translate(35.52 235.62) rotate(-30.31)"/><polygon class="cls-11" points="461.28 51.55 472.58 58.08 472.58 58.67 461.28 52.15 461.28 51.55"/><polygon class="cls-11" points="461.28 52.96 472.58 59.49 472.58 60.09 461.28 53.56 461.28 52.96"/><polygon class="cls-11" points="461.28 54.38 472.58 60.9 472.58 61.5 461.28 54.98 461.28 54.38"/><polygon class="cls-11" points="461.28 55.79 472.58 62.32 472.58 62.92 461.28 56.39 461.28 55.79"/><polygon class="cls-11" points="461.28 57.2 472.58 63.73 472.58 64.33 461.28 57.8 461.28 57.2"/><polygon class="cls-11" points="461.28 58.62 472.58 65.15 472.58 65.75 461.28 59.22 461.28 58.62"/><polygon class="cls-11" points="461.28 60.03 472.58 66.56 472.58 67.16 461.28 60.63 461.28 60.03"/><polygon class="cls-11" points="461.28 61.45 472.58 67.98 472.58 68.58 461.28 62.05 461.28 61.45"/><polygon class="cls-39" points="439.55 43.61 437.13 45.01 439.55 59.24 466.38 77.55 468.82 76.14 468.82 60.51 439.55 43.61"/><polygon class="cls-40" points="437.13 45.01 437.13 60.64 466.4 77.54 466.4 61.91 437.13 45.01"/><ellipse class="cls-41" cx="443.79" cy="57.42" rx="3.48" ry="6.03" transform="translate(31.69 231.82) rotate(-30.31)"/><ellipse class="cls-24" cx="443.79" cy="57.42" rx="1.22" ry="2.11" transform="translate(31.69 231.82) rotate(-30.31)"/><polygon class="cls-11" points="452.36 56.73 463.66 63.25 463.66 63.85 452.36 57.33 452.36 56.73"/><polygon class="cls-11" points="452.36 58.14 463.66 64.67 463.66 65.27 452.36 58.74 452.36 58.14"/><polygon class="cls-11" points="452.36 59.55 463.66 66.08 463.66 66.68 452.36 60.16 452.36 59.55"/><polygon class="cls-11" points="452.36 60.97 463.66 67.5 463.66 68.1 452.36 61.57 452.36 60.97"/><polygon class="cls-11" points="452.36 62.38 463.66 68.91 463.66 69.51 452.36 62.98 452.36 62.38"/><polygon class="cls-11" points="452.36 63.8 463.66 70.33 463.66 70.93 452.36 64.4 452.36 63.8"/><polygon class="cls-11" points="452.36 65.21 463.66 71.74 463.66 72.34 452.36 65.81 452.36 65.21"/><polygon class="cls-11" points="452.36 66.63 463.66 73.16 463.66 73.76 452.36 67.23 452.36 66.63"/><polygon class="cls-7" points="532.7 20.07 532.7 82.63 534.85 81.39 534.85 18.83 532.7 20.07"/><polygon class="cls-8" points="530.55 81.39 532.7 82.63 532.7 20.07 530.55 18.83 530.55 40.29 532.7 39.04 532.7 41.05 530.55 42.4 530.55 81.39"/><polygon class="cls-42" points="530.55 18.84 532.62 17.67 534.85 18.83 532.7 20.08 530.55 18.84"/><polygon class="cls-43" points="530.41 37.75 516.13 48.64 513.41 46.95 513.41 27.95 529.96 18.4 532.68 20.09 530.41 37.75"/><polygon class="cls-44" points="532.67 39.08 516.13 48.64 516.12 29.64 532.68 20.09 532.67 39.08"/><ellipse class="cls-18" cx="524.39" cy="34.36" rx="10.19" ry="5.88" transform="translate(230.07 469.73) rotate(-59.69)"/><path class="cls-45" d="M523.93,36a5.06,5.06,0,0,0-.52-.08c-.69.76-1.36,1.52-2,2.25-.41.43-.85.8-1.27,1.22a1.63,1.63,0,0,0-.57,1.5A4.89,4.89,0,0,0,520.61,43c.28.33.73.16,1.19-.37.15-.18.29-.39.43-.59a11.19,11.19,0,0,0,1.45-3.44A9.09,9.09,0,0,0,524,36.2.19.19,0,0,0,523.93,36Z"/><path class="cls-45" d="M521.33,32.7a3.06,3.06,0,0,0,2,1.07.41.41,0,0,0,.27-.11c.2-.19.38-.42.59-.65v-.13c0-.7,0-1.38.1-2.09s.19-1.27.29-1.91c.13-.8-.09-1.18-.72-.94A16.11,16.11,0,0,0,521.59,29a1.88,1.88,0,0,0-1,1.83A2.87,2.87,0,0,0,521.33,32.7Z"/><path class="cls-45" d="M530.83,29.9A2.7,2.7,0,0,0,530,30a6.32,6.32,0,0,0-2.2,1.24,11.35,11.35,0,0,0-2,1.91.69.69,0,0,0-.13.29c0,.25,0,.5,0,.74.53.11,1.08.2,1.6.34a6.28,6.28,0,0,1,1.06.46c.55.27,1,0,1.54-.95.19-.37.38-.74.54-1.11.28-.62.56-1.25.78-1.88S531.25,30,530.83,29.9Z"/><path class="cls-45" d="M524.44,33.18a2.2,2.2,0,0,0-1,1.2,1.25,1.25,0,0,0,0,1.11c.28.43.89.28,1.4-.33a2.6,2.6,0,0,0,.39-.68,2,2,0,0,0,.15-.66C525.43,33.16,525,32.87,524.44,33.18Z"/><path class="cls-45" d="M521.17,37.51A11.26,11.26,0,0,0,523,35.68a.72.72,0,0,0,.13-.3c0-.26,0-.5,0-.72-.62-.14-1.24-.25-1.84-.41-.36-.1-.67-.3-1-.42s-.82.12-1.17.72a17.72,17.72,0,0,0-1.49,3.31c-.22.65-.06,1,.37,1.11a1.56,1.56,0,0,0,.48,0A6.3,6.3,0,0,0,521.17,37.51Z"/><path class="cls-45" d="M525.39,32.88l.1-.11c.52-.62,1-1.26,1.58-1.85s1-1,1.44-1.43.88-1.23.66-1.79a9.67,9.67,0,0,0-1-1.83c-.34-.49-.86-.28-1.44.5A9.33,9.33,0,0,0,525.4,29a11.1,11.1,0,0,0-.64,3.49c0,.1,0,.21.1.23A2.75,2.75,0,0,0,525.39,32.88Z"/><path class="cls-45" d="M527,35.57a2.74,2.74,0,0,0-1.58-.63.4.4,0,0,0-.23.12c-.19.2-.37.43-.56.65,0,.76-.06,1.52-.13,2.3,0,.56-.16,1.15-.26,1.74-.16.93.1,1.25.84,1a7.08,7.08,0,0,0,.87-.37c.49-.25,1-.5,1.47-.81a1.76,1.76,0,0,0,.8-1.42,4.08,4.08,0,0,0-.12-1A2.65,2.65,0,0,0,527,35.57Z"/><ellipse class="cls-15" cx="531.36" cy="22.71" rx="0.69" ry="0.4" transform="matrix(0.5, -0.86, 0.86, 0.5, 243.58, 469.97)"/><ellipse class="cls-15" cx="531.36" cy="38.28" rx="0.69" ry="0.4" transform="translate(230.14 477.69) rotate(-59.69)"/><ellipse class="cls-15" cx="517.53" cy="30.7" rx="0.69" ry="0.4" transform="translate(229.84 461.99) rotate(-59.69)"/><ellipse class="cls-15" cx="517.53" cy="46.27" rx="0.69" ry="0.4" transform="translate(216.39 469.7) rotate(-59.69)"/><polygon class="cls-46" points="512.98 47.8 498.71 58.69 495.99 57 495.99 38.01 512.53 28.45 515.25 30.15 512.98 47.8"/><polygon class="cls-47" points="515.24 49.13 498.71 58.69 498.69 39.7 515.25 30.15 515.24 49.13"/><ellipse class="cls-18" cx="506.96" cy="44.42" rx="10.19" ry="5.88" transform="translate(212.76 459.66) rotate(-59.69)"/><path class="cls-45" d="M506.5,46.07A3.28,3.28,0,0,0,506,46c-.68.75-1.35,1.51-2,2.24-.41.44-.85.8-1.27,1.22a1.65,1.65,0,0,0-.56,1.51,4.93,4.93,0,0,0,1.07,2.09c.29.32.73.16,1.19-.37a6.36,6.36,0,0,0,.43-.59,11.42,11.42,0,0,0,1.46-3.44,9.08,9.08,0,0,0,.34-2.4A.19.19,0,0,0,506.5,46.07Z"/><path class="cls-45" d="M503.9,42.75a3,3,0,0,0,2,1.07.35.35,0,0,0,.27-.11c.2-.19.39-.41.6-.65v-.12c0-.7,0-1.38.1-2.1s.19-1.26.29-1.9c.13-.81-.09-1.18-.72-.95a18,18,0,0,0-2.29,1.07,1.87,1.87,0,0,0-1,1.82A2.93,2.93,0,0,0,503.9,42.75Z"/><path class="cls-45" d="M513.41,40a2.43,2.43,0,0,0-.88.06,6,6,0,0,0-2.2,1.24,10.72,10.72,0,0,0-2,1.91.64.64,0,0,0-.13.29c0,.25,0,.49,0,.74.52.11,1.08.19,1.6.34a6.55,6.55,0,0,1,1.05.46c.56.26,1,0,1.54-1,.2-.36.38-.73.55-1.1.27-.63.55-1.26.77-1.89S513.82,40,513.41,40Z"/><path class="cls-45" d="M507,43.23a2.21,2.21,0,0,0-1,1.21,1.29,1.29,0,0,0,0,1.11c.28.42.9.28,1.4-.34a2.58,2.58,0,0,0,.4-.67,1.78,1.78,0,0,0,.14-.66C508,43.21,507.58,42.93,507,43.23Z"/><path class="cls-45" d="M503.74,47.56a10.51,10.51,0,0,0,1.82-1.83.51.51,0,0,0,.13-.29c0-.26,0-.51,0-.73-.61-.13-1.24-.24-1.84-.4-.35-.1-.66-.3-1-.42s-.81.11-1.17.72a17.63,17.63,0,0,0-1.49,3.3c-.22.66-.06,1.05.38,1.12a1.89,1.89,0,0,0,.47,0A6.12,6.12,0,0,0,503.74,47.56Z"/><path class="cls-45" d="M508,42.94l.09-.11c.53-.62,1-1.26,1.58-1.86s1-.95,1.45-1.43.88-1.23.65-1.78a9.07,9.07,0,0,0-1-1.83c-.35-.5-.87-.28-1.45.5A9.25,9.25,0,0,0,508,39.09a11.19,11.19,0,0,0-.65,3.5.27.27,0,0,0,.1.23A3.92,3.92,0,0,0,508,42.94Z"/><path class="cls-45" d="M509.6,45.63A2.77,2.77,0,0,0,508,45a.29.29,0,0,0-.22.11c-.2.21-.38.44-.56.66-.05.75-.06,1.51-.13,2.3-.06.56-.17,1.15-.26,1.73-.16.94.09,1.26.83,1a6.4,6.4,0,0,0,.87-.36c.49-.26,1-.5,1.47-.82a1.72,1.72,0,0,0,.8-1.41,4.23,4.23,0,0,0-.11-1A2.67,2.67,0,0,0,509.6,45.63Z"/><ellipse class="cls-15" cx="513.94" cy="32.77" rx="0.69" ry="0.4" transform="matrix(0.5, -0.86, 0.86, 0.5, 226.27, 459.91)"/><ellipse class="cls-15" cx="513.94" cy="48.34" rx="0.69" ry="0.4" transform="translate(212.83 467.62) rotate(-59.69)"/><ellipse class="cls-15" cx="500.1" cy="40.75" rx="0.69" ry="0.4" transform="translate(212.52 451.92) rotate(-59.69)"/><ellipse class="cls-15" cx="500.1" cy="56.32" rx="0.69" ry="0.4" transform="translate(199.08 459.64) rotate(-59.69)"/><polygon class="cls-48" points="495.5 58.07 481.23 68.96 478.51 67.27 478.51 48.28 495.06 38.72 497.77 40.42 495.5 58.07"/><polygon class="cls-49" points="497.76 59.4 481.23 68.96 481.21 49.96 497.77 40.42 497.76 59.4"/><ellipse class="cls-18" cx="489.49" cy="54.68" rx="10.19" ry="5.88" transform="translate(195.24 449.66) rotate(-59.69)"/><path class="cls-45" d="M489,56.34c-.18-.05-.37-.06-.53-.09-.68.76-1.35,1.52-2,2.25-.41.43-.85.8-1.27,1.22a1.62,1.62,0,0,0-.56,1.5,5,5,0,0,0,1.07,2.1c.29.32.73.15,1.19-.38a5.26,5.26,0,0,0,.43-.59,11.27,11.27,0,0,0,1.46-3.43,9.22,9.22,0,0,0,.35-2.4C489.13,56.44,489.08,56.35,489,56.34Z"/><path class="cls-45" d="M486.43,53a3.06,3.06,0,0,0,2,1.07.34.34,0,0,0,.27-.11c.2-.19.39-.42.6-.65V53.2c0-.69,0-1.38.1-2.09s.19-1.27.29-1.9c.13-.81-.09-1.19-.72-1a17.9,17.9,0,0,0-2.29,1.06,1.89,1.89,0,0,0-1,1.83A2.85,2.85,0,0,0,486.43,53Z"/><path class="cls-45" d="M495.93,50.22a2.44,2.44,0,0,0-.88.07,6,6,0,0,0-2.2,1.24,11,11,0,0,0-2,1.9.6.6,0,0,0-.12.29c0,.26,0,.5,0,.75.53.11,1.08.19,1.6.34a5.73,5.73,0,0,1,1.05.45c.56.27,1,0,1.54-.95.2-.36.38-.74.55-1.11.27-.62.55-1.25.77-1.88S496.34,50.28,495.93,50.22Z"/><path class="cls-45" d="M489.53,53.5a2.19,2.19,0,0,0-1,1.2,1.29,1.29,0,0,0,0,1.11c.28.43.9.28,1.4-.33a2.48,2.48,0,0,0,.4-.68,1.69,1.69,0,0,0,.14-.65C490.53,53.48,490.1,53.2,489.53,53.5Z"/><path class="cls-45" d="M486.26,57.83A11.31,11.31,0,0,0,488.09,56a.6.6,0,0,0,.12-.29c0-.26,0-.51,0-.73-.62-.13-1.25-.24-1.85-.41-.35-.1-.66-.3-1-.42s-.81.12-1.17.72a17.67,17.67,0,0,0-1.48,3.31c-.23.65-.07,1,.37,1.11a1.51,1.51,0,0,0,.47,0A6.09,6.09,0,0,0,486.26,57.83Z"/><path class="cls-45" d="M490.49,53.21l.09-.12c.53-.62,1-1.26,1.58-1.85s1-1,1.45-1.43.88-1.23.65-1.78a9.43,9.43,0,0,0-1-1.84c-.35-.49-.87-.28-1.45.5a9.43,9.43,0,0,0-1.34,2.67,11.42,11.42,0,0,0-.65,3.49c0,.1,0,.21.1.23A2.85,2.85,0,0,0,490.49,53.21Z"/><path class="cls-45" d="M492.12,55.89a2.77,2.77,0,0,0-1.58-.63.35.35,0,0,0-.23.12c-.19.21-.38.43-.56.65,0,.76-.06,1.52-.13,2.3-.05.57-.16,1.16-.26,1.74-.16.93.09,1.26.83,1a6.48,6.48,0,0,0,.87-.37c.49-.25,1-.5,1.47-.81a1.74,1.74,0,0,0,.8-1.42,4.09,4.09,0,0,0-.11-1A2.73,2.73,0,0,0,492.12,55.89Z"/><ellipse class="cls-15" cx="496.46" cy="43.03" rx="0.69" ry="0.4" transform="translate(208.75 449.91) rotate(-59.69)"/><ellipse class="cls-15" cx="496.46" cy="58.6" rx="0.69" ry="0.4" transform="translate(195.31 457.62) rotate(-59.69)"/><ellipse class="cls-15" cx="482.62" cy="51.02" rx="0.69" ry="0.4" transform="translate(195 441.92) rotate(-59.69)"/><ellipse class="cls-15" cx="482.62" cy="66.59" rx="0.69" ry="0.4" transform="translate(181.56 449.63) rotate(-59.69)"/><polygon class="cls-50" points="477.83 68.22 463.56 79.11 460.83 77.42 460.83 58.42 477.38 48.87 480.1 50.56 477.83 68.22"/><polygon class="cls-51" points="480.09 69.55 463.56 79.11 463.54 60.11 480.1 50.56 480.09 69.55"/><ellipse class="cls-18" cx="471.82" cy="64.83" rx="10.19" ry="5.88" transform="translate(177.73 439.43) rotate(-59.69)"/><path class="cls-45" d="M471.36,66.49c-.18,0-.37-.06-.53-.09-.68.76-1.35,1.52-2,2.25-.41.43-.85.8-1.27,1.22a1.62,1.62,0,0,0-.56,1.5A4.88,4.88,0,0,0,468,73.46c.29.33.73.16,1.19-.37a6.36,6.36,0,0,0,.43-.59,11.21,11.21,0,0,0,1.46-3.44,9.09,9.09,0,0,0,.35-2.39C471.46,66.59,471.41,66.5,471.36,66.49Z"/><path class="cls-45" d="M468.75,63.17a3.06,3.06,0,0,0,2,1.07.39.39,0,0,0,.27-.11c.2-.19.39-.42.6-.65v-.13c0-.69,0-1.38.1-2.09s.19-1.27.29-1.9c.13-.81-.09-1.19-.72-1A16.63,16.63,0,0,0,469,59.47a1.89,1.89,0,0,0-1,1.83A2.92,2.92,0,0,0,468.75,63.17Z"/><path class="cls-45" d="M478.26,60.37a2.67,2.67,0,0,0-.88.06,6.15,6.15,0,0,0-2.2,1.24,11.05,11.05,0,0,0-2,1.91.74.74,0,0,0-.13.29c0,.25,0,.5,0,.75.53.1,1.08.19,1.6.33a6.55,6.55,0,0,1,1.05.46c.56.27,1,0,1.54-1,.2-.37.38-.74.55-1.11.27-.62.55-1.25.77-1.88S478.67,60.43,478.26,60.37Z"/><path class="cls-45" d="M471.86,63.65a2.19,2.19,0,0,0-1,1.2,1.29,1.29,0,0,0,0,1.11c.28.43.9.28,1.4-.33a2.64,2.64,0,0,0,.4-.68,1.74,1.74,0,0,0,.14-.66C472.86,63.63,472.43,63.34,471.86,63.65Z"/><path class="cls-45" d="M468.59,68a10.87,10.87,0,0,0,1.82-1.83.53.53,0,0,0,.13-.3c0-.26,0-.5,0-.72-.61-.14-1.24-.25-1.84-.41-.35-.1-.66-.3-1-.42s-.81.12-1.17.72a17,17,0,0,0-1.48,3.31c-.23.65-.07,1,.37,1.11a1.51,1.51,0,0,0,.47,0A6.19,6.19,0,0,0,468.59,68Z"/><path class="cls-45" d="M472.82,63.35l.09-.11c.53-.62,1-1.26,1.58-1.85s1-1,1.45-1.43.88-1.23.65-1.79a9.64,9.64,0,0,0-1-1.83c-.35-.49-.87-.28-1.45.5a9.3,9.3,0,0,0-1.34,2.67,11.13,11.13,0,0,0-.65,3.49c0,.1,0,.21.1.23A2.85,2.85,0,0,0,472.82,63.35Z"/><path class="cls-45" d="M474.45,66a2.77,2.77,0,0,0-1.59-.63.35.35,0,0,0-.22.12c-.2.2-.38.43-.56.65,0,.76-.06,1.52-.13,2.3-.06.56-.16,1.15-.26,1.74-.16.93.09,1.26.83,1a6.48,6.48,0,0,0,.87-.37c.49-.25,1-.5,1.47-.81a1.74,1.74,0,0,0,.8-1.42,4.09,4.09,0,0,0-.11-1A2.73,2.73,0,0,0,474.45,66Z"/><ellipse class="cls-15" cx="478.79" cy="53.18" rx="0.69" ry="0.4" transform="translate(191.24 439.68) rotate(-59.69)"/><ellipse class="cls-15" cx="478.79" cy="68.75" rx="0.69" ry="0.4" transform="translate(177.8 447.39) rotate(-59.69)"/><ellipse class="cls-15" cx="464.95" cy="61.17" rx="0.69" ry="0.4" transform="translate(177.49 431.69) rotate(-59.69)"/><ellipse class="cls-15" cx="464.95" cy="76.74" rx="0.69" ry="0.4" transform="translate(164.05 439.4) rotate(-59.69)"/><polygon class="cls-42" points="459.29 59.95 461.37 58.79 463.59 59.95 461.44 61.2 459.29 59.95"/><polygon class="cls-7" points="461.44 61.19 461.44 123.75 463.59 122.51 463.59 59.95 461.44 61.19"/><polygon class="cls-8" points="459.29 122.51 461.44 123.75 461.44 61.2 459.29 59.95 459.29 122.51"/><path class="cls-52" d="M412.87,58.85l16.7,22.95L446.9,62.9h0a3.08,3.08,0,0,0,1.19-2.75,9.61,9.61,0,0,0-4.36-7.53,3.07,3.07,0,0,0-3.11-.3v0Z"/><ellipse class="cls-53" cx="437.37" cy="61.42" rx="4.57" ry="7.91" transform="translate(28.79 229.13) rotate(-30.31)"/><ellipse class="cls-54" cx="429.35" cy="66.26" rx="6.26" ry="10.84" transform="translate(25.25 225.74) rotate(-30.31)"/><circle class="cls-28" cx="432.38" cy="63.31" r="0.55"/><circle class="cls-28" cx="434.58" cy="64.51" r="0.55"/><circle class="cls-28" cx="436.51" cy="61.92" r="0.55"/><circle class="cls-28" cx="438.06" cy="59.28" r="0.55"/><circle class="cls-28" cx="439.44" cy="60.91" r="0.55"/><circle class="cls-55" cx="429.44" cy="57.27" r="0.35"/><circle class="cls-55" cx="430.27" cy="60.75" r="0.35"/><circle class="cls-55" cx="426.34" cy="59.98" r="0.35"/><circle class="cls-55" cx="422.62" cy="63.97" r="0.35"/><circle class="cls-55" cx="425.94" cy="63.44" r="0.35"/><circle class="cls-55" cx="432.61" cy="57.05" r="0.35"/><circle class="cls-55" cx="438.15" cy="53.85" r="0.35"/><circle class="cls-55" cx="438.1" cy="64.34" r="0.35"/><circle class="cls-55" cx="439.49" cy="67.81" r="0.35"/><circle class="cls-55" cx="433.81" cy="68.05" r="0.35"/><circle class="cls-55" cx="438.21" cy="70.73" r="0.35"/><circle class="cls-55" cx="435.92" cy="70.58" r="0.35"/><circle class="cls-55" cx="435.69" cy="72.91" r="0.35"/><circle class="cls-55" cx="431.66" cy="74.14" r="0.35"/><circle class="cls-55" cx="439.19" cy="71.79" r="0.35"/><circle class="cls-28" cx="431.73" cy="64.96" r="0.55"/><circle class="cls-28" cx="428.78" cy="65.55" r="0.55"/><circle class="cls-28" cx="429.76" cy="66.87" r="0.38"/><circle class="cls-28" cx="426.37" cy="67.82" r="0.38"/><circle class="cls-28" cx="434.97" cy="62.74" r="0.38"/><circle class="cls-28" cx="439.72" cy="62.73" r="0.38"/><circle class="cls-28" cx="428.26" cy="68.26" r="0.55"/><circle class="cls-28" cx="426.37" cy="69.13" r="0.55"/><path class="cls-3" d="M391.21,356l89.84,51.87a16.3,16.3,0,0,0,14.17,0l80.16-46.59a1,1,0,0,0,0-1.65l-89.85-51.87a14.7,14.7,0,0,0-7.1-1.62,14.55,14.55,0,0,0-7.07,1.61L391.15,354.3A1,1,0,0,0,391.21,356Z"/><path class="cls-56" d="M579.46,329.27c0-2.08-1.4-4.17-4.16-5.76l-89.85-51.87c-5.51-3.18-14.41-3.18-19.88,0l-80.16,46.58c-2.74,1.59-4.1,3.67-4.09,5.76s0,8.72,0,10.79,1.38,4.2,4.15,5.8l89.85,51.87c5.51,3.19,14.41,3.19,19.89,0l80.16-46.59c2.68-1.56,4-3.59,4.08-5.63S579.47,331.36,579.46,329.27Z"/><path class="cls-6" d="M388.33,322.72l89.85,51.88a16.33,16.33,0,0,0,14.16,0L572.5,328a1,1,0,0,0,0-1.65L482.6,274.5a16.35,16.35,0,0,0-14.17,0l-80.16,46.59A1,1,0,0,0,388.33,322.72Z"/><path class="cls-57" d="M520,336.83a4.29,4.29,0,0,1-2.43,3l-32.11,18.54c-2.94,1.7-7.4,1.88-9.95.41L441.73,339.3A3,3,0,0,1,440,337v-.39a4.28,4.28,0,0,1,2.43-3l9.46-5.47,2.11-1.22L474.56,315c2.95-1.7,7.4-1.89,9.95-.42l21.57,12.46,2.25,1.3,10,5.76A2.89,2.89,0,0,1,520,336.83Z"/><path class="cls-58" d="M503.25,273l-.86.5-19,11a6.82,6.82,0,0,1-6.14.25l-19.6-11.31-1.3-.75c-1.58-.91-1.38-2.5.44-3.55l19.85-11.46a6.87,6.87,0,0,1,6.15-.26l20.89,12.07C505.27,270.37,505.07,272,503.25,273Z"/><path class="cls-59" d="M502.39,273.51l-19,11a6.82,6.82,0,0,1-6.14.25l-19.6-11.31,19-11a6.84,6.84,0,0,1,6.15-.25Z"/><path class="cls-60" d="M520,312.45c0-.1,0-.21,0-.31v-41.2H440v41.57a3,3,0,0,0,1.71,2.49l33.81,19.52c2.55,1.47,7,1.28,9.95-.42l32.11-18.54a4.29,4.29,0,0,0,2.42-3h0Z"/><ellipse class="cls-61" cx="459.6" cy="305.28" rx="4.4" ry="7.63" transform="translate(-91.25 273.68) rotate(-30.31)"/><ellipse class="cls-62" cx="451.48" cy="310.39" rx="4.4" ry="7.63" transform="translate(-94.93 270.29) rotate(-30.31)"/><ellipse class="cls-63" cx="443.81" cy="315.65" rx="4.4" ry="7.63" transform="translate(-98.64 267.14) rotate(-30.31)"/><ellipse class="cls-64" cx="435.7" cy="321.81" rx="4.4" ry="7.63" transform="translate(-102.86 263.88) rotate(-30.31)"/><ellipse class="cls-61" cx="500.74" cy="305.01" rx="7.63" ry="4.4" transform="translate(-15.29 583.36) rotate(-59.69)"/><ellipse class="cls-62" cx="508.85" cy="310.12" rx="7.63" ry="4.4" transform="translate(-15.69 592.9) rotate(-59.69)"/><ellipse class="cls-63" cx="516.52" cy="315.38" rx="7.63" ry="4.4" transform="matrix(0.5, -0.86, 0.86, 0.5, -16.43, 602.12)"/><ellipse class="cls-64" cx="524.64" cy="321.54" rx="7.63" ry="4.4" transform="translate(-17.73 612.18) rotate(-59.69)"/><path class="cls-65" d="M520,271.18a4.31,4.31,0,0,1-2.43,3l-32.11,18.54c-2.94,1.69-7.4,1.88-9.95.41l-33.81-19.52a3,3,0,0,1-1.71-2.32v-.39a4.28,4.28,0,0,1,2.43-3l9.46-5.47,2.11-1.22,20.54-11.85c2.95-1.71,7.4-1.89,9.95-.42l21.57,12.46,2.25,1.3,10,5.76A2.89,2.89,0,0,1,520,271.18Z"/><path class="cls-66" d="M516.39,186.66l-6,43.28-4.34,31.47-1.32,9.53v0a1.92,1.92,0,0,1-.59,1.33,4.11,4.11,0,0,1-.92.7l-.86.5h0l-19,11a7.08,7.08,0,0,1-3.24.87h-.42a5.35,5.35,0,0,1-2.48-.62l-19.59-11.31h0l-1.3-.75a3.61,3.61,0,0,1-.43-.3l-.17-.16c-.06-.06-.1-.12-.15-.18l-.12-.17a.47.47,0,0,0-.05-.1,1.34,1.34,0,0,1-.09-.26.28.28,0,0,1,0-.13.64.64,0,0,1,0-.07h0l0-.34L454,261.22l-3.93-31-5.46-43Z"/><path class="cls-67" d="M510.42,229.94l-4.34,31.47-1.32,9.53v0a1.92,1.92,0,0,1-.59,1.33,4.11,4.11,0,0,1-.92.7l-.86.5h0l-19,11a7.08,7.08,0,0,1-3.24.87h-.42a5.35,5.35,0,0,1-2.48-.62l-19.59-11.31h0l-1.3-.75a3.61,3.61,0,0,1-.43-.3l-.17-.16c-.06-.06-.1-.12-.15-.18l-.12-.17a.47.47,0,0,0-.05-.1,1.34,1.34,0,0,1-.09-.26.28.28,0,0,1,0-.13.64.64,0,0,1,0-.07h0l0-.34L454,261.22l-3.93-31Z"/><circle class="cls-28" cx="473.69" cy="242.34" r="1.41"/><circle class="cls-28" cx="479.25" cy="239.18" r="1.41"/><circle class="cls-28" cx="476.22" cy="231.54" r="1.41"/><circle class="cls-28" cx="472.56" cy="224.65" r="1.41"/><circle class="cls-28" cx="477.93" cy="223.83" r="1.41"/><circle class="cls-55" cx="456.69" cy="240.64" r="0.9"/><circle class="cls-55" cx="465.33" cy="243.51" r="0.9"/><circle class="cls-55" cx="458.42" cy="250.98" r="0.9"/><circle class="cls-55" cx="462.11" cy="264.38" r="0.9"/><circle class="cls-55" cx="465.37" cy="256.48" r="0.9"/><circle class="cls-55" cx="460.46" cy="233.48" r="0.9"/><circle class="cls-55" cx="460.89" cy="217.21" r="0.9"/><circle class="cls-55" cx="483.57" cy="231.32" r="0.9"/><circle class="cls-55" cx="492.96" cy="232.94" r="0.9"/><circle class="cls-55" cx="485.88" cy="245.59" r="0.9"/><circle class="cls-55" cx="497.57" cy="239.62" r="0.9"/><circle class="cls-55" cx="494.19" cy="244.37" r="0.9"/><circle class="cls-55" cx="498.94" cy="247.99" r="0.9"/><circle class="cls-55" cx="496.23" cy="258.37" r="0.9"/><circle class="cls-55" cx="501.18" cy="238.91" r="0.9"/><circle class="cls-28" cx="476.41" cy="245.95" r="1.41"/><circle class="cls-28" cx="473.76" cy="253.15" r="1.41"/><circle class="cls-28" cx="477.92" cy="252.79" r="0.96"/><circle class="cls-28" cx="475.47" cy="261.39" r="0.96"/><circle class="cls-28" cx="475.93" cy="235.98" r="0.96"/><circle class="cls-28" cx="482.25" cy="225.68" r="0.96"/><circle class="cls-28" cx="478.94" cy="257.89" r="1.41"/><circle class="cls-28" cx="478.31" cy="263.14" r="1.41"/><path class="cls-3" d="M21.28,115.12,111.13,167a14.74,14.74,0,0,0,7.11,1.62,14.58,14.58,0,0,0,7.05-1.61l80.17-46.59a1,1,0,0,0-.05-1.65L115.56,66.9a14.77,14.77,0,0,0-7.11-1.62,14.62,14.62,0,0,0-7.06,1.61L21.22,113.47A1,1,0,0,0,21.28,115.12Z"/><path class="cls-68" d="M209.23,88.6c0-2.09-1.39-4.17-4.14-5.76L115.23,31c-5.51-3.18-14.41-3.18-19.88,0L15.18,77.55c-2.73,1.59-4.09,3.67-4.08,5.76s0,8.72,0,10.79,1.38,4.2,4.15,5.8l89.85,51.87c5.51,3.18,14.41,3.18,19.89,0l80.16-46.58c2.68-1.56,4-3.6,4.08-5.64S209.25,90.68,209.23,88.6Z"/><path class="cls-6" d="M18.1,82.8,108,134.67a14.77,14.77,0,0,0,7.11,1.62,14.51,14.51,0,0,0,7.06-1.61L202.28,88.1a1,1,0,0,0-.05-1.65L112.38,34.57a14.7,14.7,0,0,0-7.1-1.62,14.55,14.55,0,0,0-7.07,1.62L18.05,81.15A1,1,0,0,0,18.1,82.8Z"/><path class="cls-69" d="M73.1,71.3a8.62,8.62,0,0,1-3.92-6.78A8.62,8.62,0,0,0,73.1,71.3Z"/><path class="cls-70" d="M82.24,67.45a8.62,8.62,0,0,1,3.92,6.78c0,2.5-1.77,3.5-3.94,2.25L73.1,71.3a8.62,8.62,0,0,1-3.92-6.78c0-2.5,1.77-3.5,3.94-2.25Z"/><path class="cls-71" d="M169,74c0-2.54-1.6-5.09-5-7L122.7,43.07c-6.59-3.8-17.24-3.8-23.79,0l-41,23.85C54.61,68.82,53,71.3,53,73.78v0L53,88c0,2.51,1.65,5,5,6.94l41.31,23.85.6.33.21.1.42.21.26.12.39.17.28.12.26.11.14,0,.18.07.52.19.12,0,.65.21.16.05.28.08.29.08.09,0,.66.17.12,0,.59.13h.06l.52.1.28,0,.69.11.12,0h0l.81.1.19,0,.62.06h0l.29,0,.51,0h.34l.48,0h1.76l.57,0h.12l.72,0h0l.43,0,.24,0,.18,0,.69-.08.1,0,.61-.1a.57.57,0,0,0,.18,0l.14,0,.25-.05c.15,0,.3,0,.44-.09l.36-.07.43-.1.35-.09.42-.11.35-.1.41-.13.18,0,.25-.09.15,0,.62-.22.11,0a4.71,4.71,0,0,0,.52-.21l.15-.06.59-.27.07,0,.52-.26.14-.08c.19-.09.38-.2.56-.3l41-23.85.2-.12,0,0,.16-.1.14-.08.15-.1.13-.09.15-.1.13-.09.14-.11.13-.09.13-.1.12-.09.14-.11.11-.09.13-.11.11-.09.12-.12.09-.08h0l.26-.24.06-.07c.07-.06.13-.13.19-.19l.07-.08.19-.21,0,0,.21-.26,0,0,0-.06.12-.15.06-.09a1.3,1.3,0,0,0,.1-.15l.07-.09.09-.15.06-.09a.86.86,0,0,1,.1-.16l0-.07h0l.08-.15a.56.56,0,0,0,0-.08.8.8,0,0,1,.08-.16l0-.08a1.6,1.6,0,0,0,.1-.23l0,0c0-.07,0-.14.08-.2h0l0-.09a.58.58,0,0,0,.05-.14l0-.1a.5.5,0,0,0,0-.13l0-.1a.5.5,0,0,1,0-.13.43.43,0,0,1,0-.11l0-.13v0s0,0,0-.08,0-.09,0-.13,0-.07,0-.11,0-.09,0-.13,0-.07,0-.11a.62.62,0,0,1,0-.13v-.11a.49.49,0,0,0,0-.12v0s0-.1,0-.15l0-14.22S169,73.92,169,74Zm-.61,2.51v0l0-.1h0Zm-1.16,1.74h0l0-.06h0Zm-2.7,2.25.14-.09h0Zm.3-.19.13-.09h0Zm.28-.19.12-.09h0Zm.27-.2.12-.08h0Zm.26-.19.12-.09h0Zm.26-.2.11-.09h0Zm.23-.2.11-.09h0Zm.24-.2.1-.1h0Zm.63-.62,0,0h0Zm.54-.64h0Zm.17-.22,0,0h0Zm.15-.22,0-.06h0Zm.14-.22,0-.08h0A.16.16,0,0,1,168,77.16Zm.14-.23a.41.41,0,0,1,.05-.09h0A.59.59,0,0,1,168.1,76.93Zm.12-.22a.47.47,0,0,0,.05-.1h0Zm.23-.47a1,1,0,0,0,0-.1v0Zm.1-.25,0-.07h0Zm.08-.22,0-.08h0Zm.08-.25a.14.14,0,0,0,0-.06h0A.14.14,0,0,1,168.71,75.52Zm.2-.87Zm0-.23v0h0Zm0-.24v0h0ZM55.24,78.65a.47.47,0,0,0,.1.1A.47.47,0,0,1,55.24,78.65ZM53,73.9v0Zm0,.24s0,.08,0,.11S53,74.18,53,74.14Zm0,.23s0,.08,0,.12S53,74.41,53,74.37Zm0,.24s0,.07,0,.11S53.06,74.64,53.05,74.61Zm0,.23s0,.08,0,.11S53.1,74.88,53.09,74.84Zm0,.23s0,.08,0,.12S53.15,75.11,53.14,75.07Zm.06.24,0,.11Zm.06.23a.49.49,0,0,1,0,.11A.49.49,0,0,0,53.26,75.54Zm.08.23a.49.49,0,0,1,0,.11A.49.49,0,0,0,53.34,75.77Zm.09.23,0,.11Zm.1.23a.54.54,0,0,0,0,.11A.54.54,0,0,1,53.53,76.23Zm.1.23.06.11Zm.12.22.06.11Zm.13.23.06.11Zm.13.22.07.11Zm.15.23.07.1Zm.15.22.08.1Zm.17.21a1,1,0,0,0,.08.11A1,1,0,0,1,54.48,77.79Zm.17.22.09.11Zm.19.22.09.1Zm.19.21.1.1Zm2.62,2.08-.09-.06Zm-.3-.19-.11-.07Zm-.28-.18L57,80.06Zm-.28-.2-.12-.08Zm-.27-.19-.11-.09Zm-.25-.2-.12-.09ZM56,79.37l-.11-.1Zm-.24-.21-.1-.09Zm-.22-.2-.11-.1Zm108.77,1.59h0l-.25.15Z"/><g class="cls-72"><g class="cls-2"><g class="cls-73"><path class="cls-74" d="M158.94,92.85a1.83,1.83,0,0,0-1.61-.13.47.47,0,0,0-.21.24l-7.43-.61L123,107.84l.56.32,26.48-15.38,7.14.59a1.24,1.24,0,0,0,.34.28,1.81,1.81,0,0,0,1.6.13c.38-.23.28-.64-.22-.93"/></g></g><g class="cls-2"><g class="cls-75"><path class="cls-74" d="M63.94,95.29a1.81,1.81,0,0,1,1.6-.13.42.42,0,0,1,.21.25l7.43-.61,26.65,15.48-.56.33L72.8,95.22l-7.15.59a1.16,1.16,0,0,1-.33.28,1.83,1.83,0,0,1-1.61.13c-.38-.22-.28-.64.23-.93"/></g></g><g class="cls-2"><g class="cls-76"><path class="cls-74" d="M142.17,77.37c-.32-.19-.38-.45-.14-.59a1.14,1.14,0,0,1,1,.08c.31.18.38.45.14.59a1.17,1.17,0,0,1-1-.08m1.13-.66a1.83,1.83,0,0,0-1.61-.13c-.1.06-.2.12-.23.21l-5.84-.53-8.37,4.86.81,2.78-14.7,8.54.56.33,14.88-8.65-.8-2.78,8-4.66,5.53.51a1.17,1.17,0,0,0,.37.31,1.8,1.8,0,0,0,1.61.13c.38-.22.29-.63-.21-.92"/></g></g><g class="cls-2"><g class="cls-77"><path class="cls-74" d="M124,61.2a1.8,1.8,0,0,0-1.61-.13c-.3.17-.29.47,0,.74l-3,1.76.62,3.22-7.09,4.12-3-.19-15.55,9,.56.32,15.38-8.94,3,.19L120.69,67l-.62-3.22,2.86-1.66a1.66,1.66,0,0,0,1.3,0c.38-.22.28-.63-.22-.92"/></g></g><g class="cls-2"><g class="cls-78"><path class="cls-74" d="M103.81,54.52c-.32-.19-.39-.45-.15-.59a1.17,1.17,0,0,1,1,.08c.32.18.39.45.14.59a1.15,1.15,0,0,1-1-.08m1.14-.65a1.78,1.78,0,0,0-1.59-.12c-.31.19-.46.41,0,.78l-4.56,2.66L100,61.71l-4.68,2.72-4.74-.5L74.1,73.5l.56.32,16.28-9.46,4.74.5,5-2.93-1.18-4.52L104,54.85a1.87,1.87,0,0,0,1.22,0c.38-.23.27-.65-.23-.94"/></g></g></g><g class="cls-79"><path class="cls-80" d="M139.56,70.76c4.22,2.44,4.25,6.4.05,8.84L113.28,94.9A16.8,16.8,0,0,1,98,94.9L71.53,79.6c-4.23-2.44-4.25-6.4,0-8.84L97.81,55.47c4.19-2.44,11-2.44,15.25,0Z"/></g><g class="cls-79"><path class="cls-80" d="M144,73.73c4.22,2.44,4.24,6.4.05,8.84L117.73,97.86a16.8,16.8,0,0,1-15.25,0L76,82.57c-4.23-2.44-4.25-6.4,0-8.84l26.32-15.3a16.82,16.82,0,0,1,15.26,0Z"/></g><path class="cls-81" d="M109.54,0,74.68,20.26l-.15,53.83A8.88,8.88,0,0,0,79,81.79L103.5,96a12.17,12.17,0,0,0,12.2,0L140,81.83a9,9,0,0,0,4.5-7.8l.16-53.77Z"/><path class="cls-82" d="M198.13,323.9c0-2.08-1.39-4.17-4.15-5.76l-89.85-51.87c-5.51-3.18-14.41-3.18-19.88,0L4.08,312.85C1.35,314.44,0,316.53,0,318.61s0,8.72,0,10.79,1.38,4.2,4.15,5.8L94,387.07c5.51,3.19,14.41,3.19,19.88,0l80.17-46.59c2.68-1.56,4-3.59,4.08-5.63S198.15,326,198.13,323.9Z"/><path class="cls-6" d="M7,321.3l89.85,51.87a14.77,14.77,0,0,0,7.11,1.62,14.62,14.62,0,0,0,7.06-1.61l80.16-46.59a1,1,0,0,0-.05-1.64l-89.85-51.88a16.35,16.35,0,0,0-14.17,0L7,319.65A1,1,0,0,0,7,321.3Z"/><path class="cls-83" d="M79.41,261.26A27.6,27.6,0,0,1,86.24,267c2.87-9.19,11.6-12,21.93-6.08,8.54,4.93,16,14.64,19.93,24.92a9.23,9.23,0,0,1,4.3,1.36c5.58,3.22,10.1,11,10.1,17.49,0,.14,0,.27,0,.4a12.16,12.16,0,0,1,5.19,1.74C154.82,311,160.6,321,160.6,329.22s-5.78,11.58-12.92,7.46L79.41,297.26c-8.61-5-15.59-17.06-15.59-27S70.8,256.29,79.41,261.26Z"/><path class="cls-84" d="M79.41,261.26a25,25,0,0,1,4.11,3l7.63-4.41h0c4.19-2.95,10.26-2.82,17,1.08,8.55,4.93,16,14.64,19.93,24.92a9.23,9.23,0,0,1,4.3,1.36c5.58,3.22,10.1,11,10.1,17.49,0,.14,0,.27,0,.4a12.16,12.16,0,0,1,5.19,1.74C154.82,311,160.6,321,160.6,329.22c0,4.08-1.42,7-3.72,8.32h0l-.06,0h0l-18.7,10.85L134,328.79,79.41,297.26c-8.61-5-15.59-17.06-15.59-27S70.8,256.29,79.41,261.26Z"/><path class="cls-85" d="M49.36,271.23l19-11h0c2.82-1.68,6.75-1.47,11.1,1a25,25,0,0,1,4.11,3l7.63-4.41h0c4.19-2.95,10.26-2.82,17,1.08,8.55,4.93,16,14.64,19.93,24.92a9.23,9.23,0,0,1,4.3,1.36c5.58,3.22,10.1,11,10.1,17.49,0,.14,0,.27,0,.4a12.16,12.16,0,0,1,5.19,1.74C154.82,311,160.6,321,160.6,329.22c0,4.08-1.42,7-3.72,8.32h0l-.06,0h0l-18.7,10.85L134,328.79,79.41,297.26c-7-4-12.88-12.73-14.87-21.18Z"/><path class="cls-74" d="M67.48,277.91a27.6,27.6,0,0,0-6.83-5.76c-5.27-3-9.93-2.71-12.75.29,2.76-3.47,7.64-4,13.2-.81a27.43,27.43,0,0,1,6.63,5.55C67.65,277.42,67.56,277.66,67.48,277.91Z"/><path class="cls-74" d="M141.84,340.11c0-8.24-5.78-18.25-12.92-22.37a12.16,12.16,0,0,0-5.19-1.74c0-.13,0-.26,0-.4,0-6.44-4.52-14.27-10.09-17.49a9.27,9.27,0,0,0-4.31-1.36c-3.94-10.28-11.38-20-19.93-24.92-7.83-4.52-14.73-4-18.87.55,4.07-5,11.2-5.75,19.32-1.07,8.54,4.94,16,14.64,19.93,24.92a9.37,9.37,0,0,1,4.3,1.37c5.58,3.22,10.1,11,10.1,17.49,0,.13,0,.26,0,.4a12.19,12.19,0,0,1,5.2,1.74c7.13,4.12,12.92,14.13,12.92,22.37,0,3.23-.91,5.7-2.42,7.27A10.79,10.79,0,0,0,141.84,340.11Z"/><path class="cls-86" d="M60.65,272.15a27.6,27.6,0,0,1,6.83,5.76c2.87-9.2,11.6-12.05,21.93-6.08,8.55,4.93,16,14.64,19.93,24.92a9.27,9.27,0,0,1,4.31,1.36c5.57,3.22,10.09,11.05,10.09,17.49,0,.14,0,.27,0,.4a12.16,12.16,0,0,1,5.19,1.74c7.14,4.12,12.92,14.13,12.92,22.37s-5.78,11.58-12.92,7.46L60.65,308.15c-8.61-5-15.59-17.06-15.59-27S52,267.18,60.65,272.15Z"/><g class="cls-87"><circle class="cls-88" cx="108.54" cy="56.32" r="31.34"/><circle class="cls-89" cx="108.54" cy="56.32" r="24.47" transform="translate(35.13 154.12) rotate(-80.53)"/><path class="cls-90" d="M105.31,73.08v.43h0a1.77,1.77,0,0,0,1,1.44,4.72,4.72,0,0,0,4.58,0,1.76,1.76,0,0,0,.94-1.44h0v-.43Z"/><path class="cls-91" d="M104,72.37a18,18,0,0,0,1.18,1.47,4.25,4.25,0,0,0,2.67,1.2,5.77,5.77,0,0,0,.72,0,5.88,5.88,0,0,0,.73,0,4.2,4.2,0,0,0,2.66-1.2,14.55,14.55,0,0,0,1.18-1.47Z"/><path class="cls-92" d="M113.5,70.21h-.39a3.68,3.68,0,0,0-1.07-.92,7.73,7.73,0,0,0-7,0,3.5,3.5,0,0,0-1.06.92h-.38v1.11h0a2.47,2.47,0,0,0,1.46,2,7.73,7.73,0,0,0,7,0,2.46,2.46,0,0,0,1.44-2h0Z"/><path class="cls-93" d="M112,68.18a7.73,7.73,0,0,0-7,0c-1.93,1.12-1.92,2.94,0,4.06a7.73,7.73,0,0,0,7,0c1.93-1.12,1.92-2.94,0-4.06"/><path class="cls-94" d="M111.77,68.13a7.12,7.12,0,0,0-6.48,0c-1.78,1-1.77,2.71,0,3.75a7.1,7.1,0,0,0,6.47,0c1.79-1,1.78-2.72,0-3.75"/><path class="cls-95" d="M103.59,70.21a2.14,2.14,0,0,0,1.33.72,8.78,8.78,0,0,0,1.23.11c.8,0,1.6,0,2.4,0s1.6,0,2.4,0a8.51,8.51,0,0,0,1.22-.11,2,2,0,0,0,1.33-.72,2,2,0,0,1,.09,2.07,4.16,4.16,0,0,1-1.35,1.63,6.38,6.38,0,0,1-7.38,0,4.38,4.38,0,0,1-1.35-1.62A2,2,0,0,1,103.59,70.21Z"/><path class="cls-96" d="M113.5,68.33h-.39a3.51,3.51,0,0,0-1.07-.91,7.67,7.67,0,0,0-7,0,3.35,3.35,0,0,0-1.06.91h-.38v1.11h0a2.47,2.47,0,0,0,1.46,2,7.67,7.67,0,0,0,7,0,2.46,2.46,0,0,0,1.44-2h0Z"/><path class="cls-93" d="M112,66.3a7.73,7.73,0,0,0-7,0c-1.93,1.13-1.92,2.94,0,4.06a7.73,7.73,0,0,0,7,0c1.93-1.12,1.92-2.93,0-4.06"/><path class="cls-94" d="M111.77,66.25a7.12,7.12,0,0,0-6.48,0c-1.78,1-1.77,2.72,0,3.75a7.1,7.1,0,0,0,6.47,0c1.79-1,1.78-2.71,0-3.75"/><path class="cls-95" d="M103.59,68.33a2.14,2.14,0,0,0,1.33.72,10.65,10.65,0,0,0,1.23.12c.8,0,1.6,0,2.4,0s1.6,0,2.4,0a10.28,10.28,0,0,0,1.22-.12,2,2,0,0,0,1.33-.72,2.05,2.05,0,0,1,.09,2.08A4.2,4.2,0,0,1,112.24,72a6.38,6.38,0,0,1-7.38,0,4.38,4.38,0,0,1-1.35-1.62A2,2,0,0,1,103.59,68.33Z"/><path class="cls-97" d="M113.5,66.46h-.39a3.4,3.4,0,0,0-1.07-.92,7.73,7.73,0,0,0-7,0,3.25,3.25,0,0,0-1.06.92h-.38v1.11h0a2.48,2.48,0,0,0,1.46,2,7.73,7.73,0,0,0,7,0,2.48,2.48,0,0,0,1.44-2h0Z"/><path class="cls-93" d="M112,64.43a7.73,7.73,0,0,0-7,0c-1.93,1.12-1.92,2.93,0,4.06a7.73,7.73,0,0,0,7,0c1.93-1.13,1.92-2.94,0-4.06"/><path class="cls-94" d="M111.77,64.37a7.12,7.12,0,0,0-6.48,0c-1.78,1-1.77,2.72,0,3.75a7.1,7.1,0,0,0,6.47,0c1.79-1,1.78-2.71,0-3.75"/><path class="cls-95" d="M103.59,66.46a2.12,2.12,0,0,0,1.33.71,10.65,10.65,0,0,0,1.23.12c.8,0,1.6,0,2.4,0s1.6,0,2.4,0a8.54,8.54,0,0,0,1.22-.12,2.07,2.07,0,0,0,1.33-.71,2,2,0,0,1,.09,2.07,4.13,4.13,0,0,1-1.35,1.62,6.16,6.16,0,0,1-3.69,1.18,6.29,6.29,0,0,1-3.69-1.19,4.3,4.3,0,0,1-1.35-1.62A2,2,0,0,1,103.59,66.46Z"/><path class="cls-98" d="M113.5,64.58h-.39a3.4,3.4,0,0,0-1.07-.92,7.73,7.73,0,0,0-7,0,3.25,3.25,0,0,0-1.06.92h-.38v1.11h0a2.48,2.48,0,0,0,1.46,2,7.73,7.73,0,0,0,7,0,2.48,2.48,0,0,0,1.44-2h0Z"/><path class="cls-93" d="M112,62.55a7.73,7.73,0,0,0-7,0c-1.93,1.12-1.92,2.94,0,4.06a7.73,7.73,0,0,0,7,0c1.93-1.12,1.92-2.94,0-4.06"/><path class="cls-95" d="M111.39,62.72a6.25,6.25,0,0,0-5.71,0c-1.57.91-1.56,2.39,0,3.3a6.25,6.25,0,0,0,5.71,0c1.57-.91,1.56-2.39,0-3.3"/><path class="cls-95" d="M103.59,64.58a2.07,2.07,0,0,0,1.33.71,8.82,8.82,0,0,0,1.23.12c.8,0,1.6,0,2.4,0s1.6,0,2.4,0a8.54,8.54,0,0,0,1.22-.12,2.07,2.07,0,0,0,1.33-.71,2,2,0,0,1,.09,2.07,4.06,4.06,0,0,1-1.35,1.62,6.34,6.34,0,0,1-7.38,0,4.23,4.23,0,0,1-1.35-1.62A2,2,0,0,1,103.59,64.58Z"/><circle class="cls-99" cx="108.54" cy="56.32" r="10.91" transform="translate(34.94 153.98) rotate(-80.42)"/><circle class="cls-100" cx="108.54" cy="56.32" r="10.91" transform="translate(34.94 153.98) rotate(-80.42)"/><ellipse class="cls-99" cx="104.02" cy="51.8" rx="4.82" ry="3.9" transform="translate(-6.16 88.73) rotate(-45)"/></g></g></g></g></svg>