<?xml version="1.0" encoding="UTF-8"?>
<svg width="56px" height="56px" viewBox="0 0 56 56" version="1.1" xmlns="http://www.w3.org/2000/svg" xmlns:xlink="http://www.w3.org/1999/xlink">
    <!-- Generator: Sketch 53.2 (72643) - https://sketchapp.com -->
    <title>Group 85</title>
    <desc>Created with Sketch.</desc>
    <g id="Page-1" stroke="none" stroke-width="1" fill="none" fill-rule="evenodd">
        <g id="官网首页" transform="translate(-856.000000, -2732.000000)">
            <g id="Group-29" transform="translate(856.000000, 2732.000000)">
                <g id="Group-27">
                    <g id="Group-85">
                        <circle id="Oval" fill="#F5F5F5" cx="28" cy="28" r="28"></circle>
                        <g id="Group-31" transform="translate(14.000000, 14.000000)">
                            <path d="M14.3320797,14.242222 L24.6704105,18.7323098 C25.0250099,18.8863175 25.1876216,19.2986249 25.0336139,19.6532242 C24.9629434,19.8159415 24.8331278,19.9457571 24.6704105,20.0164275 L14.3320797,24.5065153 C13.9763245,24.661025 13.5724128,24.661025 13.2166576,24.5065153 L2.87832679,20.0164275 C2.52372747,19.8624199 2.36111579,19.4501125 2.51512345,19.0955131 C2.58579393,18.9327959 2.71560951,18.8029803 2.87832679,18.7323098 L13.2166576,14.242222 C13.5724128,14.0877124 13.9763245,14.0877124 14.3320797,14.242222 Z" id="Rectangle" fill="#434F59" opacity="0.45"></path>
                            <path d="M14.0997001,9.1772711 C13.8921762,9.08714046 13.6565611,9.08714046 13.4490372,9.1772711 L3.1107064,13.6673589 C3.08358685,13.6791373 3.06195092,13.7007732 3.05017251,13.7278927 C3.02450456,13.7869926 3.05160651,13.8557105 3.1107064,13.8813785 L13.4490372,18.3714662 C13.6565611,18.4615969 13.8921762,18.4615969 14.0997001,18.3714662 L24.4380309,13.8813785 C24.4651505,13.8696001 24.4867864,13.8479641 24.4985648,13.8208446 C24.5242328,13.7617447 24.4971308,13.6930268 24.4380309,13.6673589 L14.0997001,9.1772711 Z" id="Rectangle-Copy-38" stroke="#434F59" stroke-width="1.16666667"></path>
                            <path d="M14.3320797,3.04222204 L24.6704105,7.5323098 C25.0250099,7.68631745 25.1876216,8.09862487 25.0336139,8.4532242 C24.9629434,8.61594148 24.8331278,8.74575706 24.6704105,8.81642754 L14.3320797,13.3065153 C13.9763245,13.461025 13.5724128,13.461025 13.2166576,13.3065153 L2.87832679,8.81642754 C2.52372747,8.66241989 2.36111579,8.25011247 2.51512345,7.89551314 C2.58579393,7.73279586 2.71560951,7.60298028 2.87832679,7.5323098 L13.2166576,3.04222204 C13.5724128,2.88771236 13.9763245,2.88771236 14.3320797,3.04222204 Z" id="Rectangle-Copy-39" fill="#434F59"></path>
                        </g>
                    </g>
                </g>
            </g>
        </g>
    </g>
</svg>