<?xml version="1.0" encoding="UTF-8"?>
<svg width="56px" height="56px" viewBox="0 0 56 56" version="1.1" xmlns="http://www.w3.org/2000/svg" xmlns:xlink="http://www.w3.org/1999/xlink">
    <!-- Generator: Sketch 53.2 (72643) - https://sketchapp.com -->
    <title>Group 83</title>
    <desc>Created with Sketch.</desc>
    <g id="Page-1" stroke="none" stroke-width="1" fill="none" fill-rule="evenodd">
        <g id="官网首页" transform="translate(-856.000000, -1808.000000)">
            <g id="Group-57" transform="translate(856.000000, 1808.000000)">
                <g id="Group-83">
                    <circle id="Oval-Copy-8" fill="#F5F5F5" cx="28" cy="28" r="28"></circle>
                    <g id="Group-58" transform="translate(15.000000, 18.000000)">
                        <rect id="Rectangle" fill="#434F59" opacity="0.45" x="0" y="0" width="26" height="20" rx="2"></rect>
                        <path d="M2.75,3.5 C2.33578644,3.5 2,3.16421356 2,2.75 C2,2.33578644 2.33578644,2 2.75,2 C3.16421356,2 3.5,2.33578644 3.5,2.75 C3.5,3.16421356 3.16421356,3.5 2.75,3.5 Z M5.75,3.5 C5.33578644,3.5 5,3.16421356 5,2.75 C5,2.33578644 5.33578644,2 5.75,2 C6.16421356,2 6.5,2.33578644 6.5,2.75 C6.5,3.16421356 6.16421356,3.5 5.75,3.5 Z M8.75,3.5 C8.33578644,3.5 8,3.16421356 8,2.75 C8,2.33578644 8.33578644,2 8.75,2 C9.16421356,2 9.5,2.33578644 9.5,2.75 C9.5,3.16421356 9.16421356,3.5 8.75,3.5 Z" id="Combined-Shape" fill="#FFFFFF"></path>
                        <path d="M0,5 L26,5 L26,18 C26,19.1045695 25.1045695,20 24,20 L2,20 C0.8954305,20 1.3527075e-16,19.1045695 0,18 L0,5 Z" id="Rectangle" fill="#434F59"></path>
                        <rect id="Rectangle" fill="#F5F5F5" x="0" y="5" width="26" height="1"></rect>
                        <rect id="Rectangle" fill="#F5F5F5" x="5" y="6" width="1" height="14"></rect>
                        <rect id="Rectangle" fill="#F5F5F5" x="6" y="11" width="20" height="1"></rect>
                    </g>
                </g>
            </g>
        </g>
    </g>
</svg>