<?xml version="1.0" encoding="utf-8"?>
<!-- Generator: Adobe Illustrator 23.0.1, SVG Export Plug-In . SVG Version: 6.00 Build 0)  -->
<svg version="1.1" id="图层_1" xmlns="http://www.w3.org/2000/svg" xmlns:xlink="http://www.w3.org/1999/xlink" x="0px" y="0px"
	 viewBox="0 0 111 129" style="enable-background:new 0 0 111 129;" xml:space="preserve">
<style type="text/css">
	.st0{opacity:0.2029;clip-path:url(#SVGID_2_);}
	.st1{fill:none;stroke:#FFFFFF;}
</style>
<title>Looper_Group</title>
<desc>Created with Sketch.</desc>
<g>
	<defs>
		<rect id="SVGID_1_" width="111" height="127.6"/>
	</defs>
	<clipPath id="SVGID_2_">
		<use xlink:href="#SVGID_1_"  style="overflow:visible;"/>
	</clipPath>
	<g id="产品页" class="st0">
		<g id="创宇ads" transform="translate(-654.000000, -2355.000000)">
			<g id="底板_image" transform="translate(400.000000, 2304.000000)">
				<g id="底板">
					<g id="Looper_Group" transform="translate(245.569853, 38.955224)">
						<g id="original_路径_70289452-Group" transform="translate(0.000000, 0.000000)">
							<path id="duplicate_20_original_路径_70289452" class="st1" d="M152.5,193.8c-56.2-2-105.4-12.1-132.2-88.3
								s198-12.7,229.1,8.1S208.6,195.7,152.5,193.8z"/>
							<path id="duplicate_19_original_路径_70289452" class="st1" d="M162.5,189.7c-55.6,7.8-105.9,6.4-145.5-64
								s192.8-46.9,227-31.8S218.1,181.9,162.5,189.7z"/>
							<path id="duplicate_18_original_路径_70289452" class="st1" d="M171.6,183.9c-53.4,17.4-103.2,24.7-154.4-37.7
								s181.7-79.7,218.1-70.8C271.6,84.3,225,166.5,171.6,183.9z"/>
							<path id="duplicate_17_original_路径_70289452" class="st1" d="M179.6,176.6C129.9,203,82.2,218.9,21,166.3
								S186.1,56.3,223.5,58.7C260.8,61.1,229.2,150.2,179.6,176.6z"/>
							<path id="duplicate_16_original_路径_70289452" class="st1" d="M186.2,168.1c-44.3,34.6-88.5,58.5-157.9,17.4
								S171.7,48.4,208.9,44.3C246.1,40.2,230.5,133.5,186.2,168.1z"/>
							<path id="duplicate_15_original_路径_70289452" class="st1" d="M191.2,158.5c-37.6,41.8-77,73-152.5,44.6
								s117.6-160,153.5-170.5C228.1,22.2,228.8,116.7,191.2,158.5z"/>
							<path id="duplicate_14_original_路径_70289452" class="st1" d="M194.5,148.2c-29.8,47.7-63.2,85.3-142.5,70.5
								c-79.3-14.8,88-178,121.6-194.6S224.3,100.6,194.5,148.2z"/>
							<path id="duplicate_13_original_路径_70289452" class="st1" d="M195.9,137.5c-21.1,52.1-47.4,95-128.1,94.1
								c-80.6-0.8,55.8-190.6,86-212.7C184-3.2,217,85.4,195.9,137.5z"/>
							<path id="duplicate_12_original_路径_70289452" class="st1" d="M195.5,126.8c-11.7,55-30.3,101.8-109.8,115
								C6.1,254.9,107.6,44.4,133.4,17.3S207.2,71.7,195.5,126.8z"/>
							<path id="duplicate_11_original_路径_70289452" class="st1" d="M193.2,116.2c-2,56.2-12.1,105.5-88.2,132.3
								S92.3,50.3,113.1,19.2S195.2,60,193.2,116.2z"/>
							<path id="duplicate_10_original_路径_70289452" class="st1" d="M189.1,106.2c7.8,55.7,6.4,106-63.9,145.6
								S78.4,58.9,93.4,24.6C108.5-9.7,181.3,50.5,189.1,106.2z"/>
							<path id="duplicate_9_original_路径_70289452" class="st1" d="M183.3,97.1c17.3,53.5,24.6,103.3-37.7,154.5
								S66.1,69.7,74.9,33.3C83.8-3.1,166,43.6,183.3,97.1z"/>
							<path id="duplicate_8_original_路径_70289452" class="st1" d="M176.1,89.1c26.4,49.7,42.2,97.4-10.3,158.7
								S55.8,82.5,58.3,45.2C60.7,7.8,149.7,39.4,176.1,89.1z"/>
							<path id="duplicate_7_original_路径_70289452" class="st1" d="M167.6,82.5c34.6,44.3,58.4,88.6,17.4,158.1
								S48,96.9,43.9,59.7C39.8,22.4,133,38.2,167.6,82.5z"/>
							<path id="duplicate_6_original_路径_70289452" class="st1" d="M158,77.5c41.7,37.7,72.9,77.1,44.6,152.7
								S42.8,112.5,32.3,76.5S116.3,39.8,158,77.5z"/>
							<path id="duplicate_5_original_路径_70289452" class="st1" d="M147.7,74.2c47.6,29.8,85.2,63.3,70.4,142.6
								C203.3,296.1,40.3,128.7,23.7,95.1S100.1,44.4,147.7,74.2z"/>
							<path id="duplicate_4_original_路径_70289452" class="st1" d="M137,72.7c52.1,21.1,94.9,47.5,94,128.2
								c-0.8,80.7-190.4-55.9-212.5-86.1S85,51.6,137,72.7z"/>
							<path id="duplicate_3_original_路径_70289452" class="st1" d="M126.3,73.2c55,11.7,101.7,30.3,114.9,109.9
								c13.2,79.6-197.2-21.9-224.2-47.8S71.3,61.4,126.3,73.2z"/>
							<path id="duplicate_2_original_路径_70289452" class="st1" d="M115.7,75.5c56.2,2,105.4,12.1,132.2,88.3
								s-198,12.7-229.1-8.1S59.6,73.5,115.7,75.5z"/>
							<path id="duplicate_1_original_路径_70289452" class="st1" d="M105.7,79.6c55.6-7.8,105.9-6.4,145.5,64
								s-192.8,46.9-227,31.8C-10.1,160.3,50.1,87.4,105.7,79.6z"/>
						</g>
					</g>
				</g>
			</g>
		</g>
	</g>
</g>
</svg>
