<?xml version="1.0" encoding="UTF-8"?>
<svg width="32px" height="34px" viewBox="0 0 32 34" version="1.1" xmlns="http://www.w3.org/2000/svg" xmlns:xlink="http://www.w3.org/1999/xlink">
    <!-- Generator: Sketch 60.1 (88133) - https://sketch.com -->
    <title>icon-05-hover</title>
    <desc>Created with Sketch.</desc>
    <g id="产品页" stroke="none" stroke-width="1" fill="none" fill-rule="evenodd">
        <g id="零信任" transform="translate(-1103.000000, -4165.000000)">
            <g id="icon-05-hover" transform="translate(1103.000000, 4165.000000)">
                <circle id="椭圆形" fill="#CCDCF1" opacity="0.500720796" cx="9.5" cy="17.5" r="6.5"></circle>
                <g id="guanli-2" fill="#FFFFFF" fill-rule="nonzero">
                    <path d="M28.51938,30.5824975 C28.7341981,30.5824975 28.9490162,30.6253687 29.1483096,30.707178 C29.5375093,30.0648968 29.8209248,29.3710914 29.9916961,28.6403147 C29.4288367,28.4495575 28.9988395,27.9697148 28.872837,27.374238 C28.7825773,26.946706 28.8555071,26.5054081 29.0786291,26.1317601 C29.2880316,25.7801377 29.61766,25.5166175 30,25.3891839 C29.85053,24.7358899 29.6111613,24.1097345 29.2855043,23.5233038 C29.0490239,23.6471976 28.7872708,23.7117011 28.518658,23.7120944 L28.509632,23.7120944 C28.1240426,23.7117011 27.746035,23.5760079 27.4460118,23.3301868 C27.0885834,23.0375615 26.8679888,22.6210423 26.8253862,22.1573255 C26.7903654,21.7773845 26.879542,21.4045231 27.0777523,21.0867257 C26.3383449,20.5746313 25.5216752,20.2123894 24.6454341,20.0078663 C24.4645537,20.639528 23.9388813,21.1166175 23.2846791,21.2216323 C22.4308224,21.3588987 21.6202904,20.8212389 21.3888645,20 C20.5097352,20.2009833 19.6901772,20.560472 18.9467984,21.0702065 C19.1226242,21.3455261 19.2175774,21.6684366 19.2175774,21.9992134 C19.2175774,22.9427729 18.4579519,23.7109145 17.5246667,23.7109145 C17.2419733,23.7136676 16.9675839,23.6420846 16.7213554,23.507178 C16.3931712,24.0943953 16.1509142,24.7221239 16,25.3777778 C16.5989633,25.5618486 17.0480955,26.0613569 17.1675994,26.6945919 C17.248472,27.1233038 17.1661552,27.5626352 16.9354514,27.9311701 C16.7191892,28.2768928 16.3859504,28.53294 16.0025273,28.6525074 C16.1747428,29.3836775 16.4592413,30.0778761 16.8502463,30.719764 C17.0628212,30.6276207 17.2897504,30.5811426 17.518529,30.5828909 C17.8225237,30.5813176 18.1207417,30.6654867 18.3824948,30.8224189 C18.7832478,31.0627335 19.0623308,31.4477876 19.1677541,31.907178 C19.2533203,32.2792527 19.2143281,32.6623402 19.0590814,33.0053097 C19.7775485,33.4772861 20.564613,33.8112094 21.4033061,34 C21.5917683,33.4328417 22.0643681,32.9986234 22.651056,32.8696165 C23.4998582,32.6831858 24.3432447,33.1791544 24.616551,33.9921337 C25.4537999,33.79941 26.2386982,33.4619469 26.954277,32.986824 C26.8589628,32.7677483 26.8098615,32.5301868 26.8105836,32.2894789 C26.814194,31.3470993 27.5734585,30.5828909 28.5049385,30.5828909 C28.509632,30.5824975 28.5146865,30.5824975 28.51938,30.5824975 L28.51938,30.5824975 Z M23.0171493,29.7010816 C21.5466385,29.7010816 20.350156,28.4955752 20.350156,27.0135693 C20.350156,25.5315634 21.5466385,24.326057 23.0171493,24.326057 C24.4876602,24.326057 25.6841427,25.5315634 25.6841427,27.0135693 C25.6841427,28.4955752 24.4876602,29.7010816 23.0171493,29.7010816 Z" id="形状"></path>
                    <path d="M32,18.4786229 L32,7.95918636 C31.9917651,5.84149044 31.075546,3.79170567 29.4865736,2.33576615 C27.839599,0.824365861 25.6820623,-0.00264098903 23.4138919,0.00188642073 L8.59112066,0.00188642073 C8.52989617,0.000754568293 8.46831364,0 8.40708915,0 C3.85642678,0 0.103472968,3.53477517 0,7.96031821 L0,25.0422352 C0.104547082,29.52588 3.95810956,33.0961199 8.58968851,32.998026 L10.8567848,32.998026 C10.8653777,32.998026 10.8739706,32.9984033 10.8825636,32.9984033 C11.5084139,32.9984033 12.0236305,32.514725 12.037594,31.909184 C12.037594,31.8341044 12.0408163,31.7567612 12.0443967,31.6745133 C12.0698174,31.0791589 12.0959542,30.4634311 10.8535625,30.318554 L8.59076262,30.318554 C7.07089151,30.3336454 5.59756534,29.7307453 4.54887218,28.6634085 C3.42892947,27.7684905 2.80451128,26.4483733 2.83566058,25.0411034 L2.83566058,7.95918636 C2.83566058,6.40024826 3.38560687,5.08503573 4.4264232,4.15616216 C5.45363409,3.23936168 6.89366273,2.75455156 8.59076262,2.75455156 L23.4310777,2.75455156 C25.0665951,2.75455156 26.6211958,3.35405606 27.8102399,4.44402996 C28.8084497,5.3404571 29.292159,6.65604692 29.104189,7.96333648 L29.104189,18.4729637 C29.2842821,19.2147043 30.0325815,19.6953643 30.8105979,19.5682196 L30.8152524,19.567465 L30.8199069,19.567465 C31.4579305,19.5818018 31.9860365,19.0924642 32,18.4786229 Z" id="路径"></path>
                    <path d="M22.5470044,7 L10.4529956,7 C9.65384802,7 9,7.70453545 9,8.56563433 C9,9.42673321 9.65384802,10.1312687 10.4529956,10.1312687 L22.5470044,10.1312687 C23.346152,10.1312687 24,9.42673321 24,8.56563433 C24,7.70453545 23.346152,7 22.5470044,7 L22.5470044,7 Z M22.5470044,13.4973825 L10.4529956,13.4973825 C9.65384802,13.4973825 9,14.2019179 9,15.0630168 C9,15.9241157 9.65384802,16.6286511 10.4529956,16.6286511 L22.5470044,16.6286511 C23.346152,16.6286511 24,15.9241157 24,15.0630168 C24,14.2019179 23.346152,13.4973825 22.5470044,13.4973825 L22.5470044,13.4973825 Z M15.0775173,19.8687313 L10.5074829,19.8687313 C9.70833535,19.8687313 9.05448733,20.5732668 9.05448733,21.4343657 C9.05448733,22.2954646 9.70833535,23 10.5074829,23 L15.0775173,23 C15.8766649,23 16.5305129,22.2954646 16.5305129,21.4343657 C16.5305129,20.5732668 15.8766649,19.8687313 15.0775173,19.8687313 Z" id="形状"></path>
                </g>
            </g>
        </g>
    </g>
</svg>