<?xml version="1.0" encoding="UTF-8"?>
<svg width="33px" height="38px" viewBox="0 0 33 38" version="1.1" xmlns="http://www.w3.org/2000/svg" xmlns:xlink="http://www.w3.org/1999/xlink">
    <!-- Generator: Sketch 60.1 (88133) - https://sketch.com -->
    <title>icon-02-hover</title>
    <desc>Created with Sketch.</desc>
    <g id="产品页" stroke="none" stroke-width="1" fill="none" fill-rule="evenodd">
        <g id="零信任" transform="translate(-1154.000000, -4104.000000)" fill-rule="nonzero">
            <g id="icon-02-hover" transform="translate(1154.000000, 4104.000000)">
                <path d="M1.18444528,21.537597 C0.530893044,21.537597 -1.08002496e-12,21.007742 -1.08002496e-12,20.3539098 L-1.08002496e-12,7.0912998 C-0.0158663932,5.84070426 1.01564376,4.79378557 2.29961799,4.77213876 C2.31142918,4.77213876 2.32324036,4.77164679 2.33505155,4.77213876 C2.49204188,4.77410665 2.64706368,4.79083373 2.79519563,4.82182804 C3.31636416,4.92760225 3.90101782,4.98221126 4.52553423,4.98221126 C5.7273223,4.98221126 7.04722222,4.78296217 8.44881616,4.38938371 C10.8159745,3.73604348 12.9749607,2.46921283 14.696933,0.725660275 C15.1314862,0.272061107 15.7579711,0.00295183841 16.4036492,3.55271368e-15 C17.0040511,3.55271368e-15 17.5690195,0.223847746 18.001112,0.629725527 C19.0828197,1.62892283 21.3510593,3.45807869 24.2935208,4.40217501 C25.4731629,4.78984979 26.6946363,4.98959085 27.9318579,4.99746242 C28.5760596,4.99746242 29.2089423,4.93596579 29.8039307,4.81395647 C29.9943861,4.77755046 30.1656483,4.76574311 30.3334655,4.76475916 C30.9314067,4.76475916 31.5101548,4.99549453 31.9506136,5.41662348 C32.4004229,5.84218018 32.6627296,6.44583114 32.6646981,7.06916101 L32.6646981,12.1502589 C32.6646981,12.8035991 32.1346712,13.3339461 31.4806268,13.3339461 C30.8265825,13.3339461 30.2965556,12.8040911 30.2965556,12.1502589 L30.2965556,7.13213356 C30.283268,7.13262554 30.2729332,7.13410146 30.2596456,7.13656132 C29.52686,7.28661311 28.7345263,7.36434485 27.9229995,7.36434485 C26.4313453,7.35450539 24.9662662,7.11540648 23.5607352,6.6529518 C20.2053744,5.5770067 17.6384102,3.51563954 16.39922,2.37377005 C16.3923302,2.37918176 16.3834718,2.38557741 16.380519,2.38803727 C14.3676962,4.42628169 11.8440397,5.90712063 9.08268309,6.66967888 C7.4773462,7.12032621 5.94189216,7.34958566 4.52405783,7.34958566 C3.76125213,7.34958566 3.03535639,7.28267732 2.36605591,7.15082854 L2.36605591,20.3544017 C2.36802444,21.007742 1.83799751,21.537597 1.18444528,21.537597 L1.18444528,21.537597 Z M16.3313057,38 C16.1132909,38 15.8952762,37.9714653 15.6821827,37.9139045 C9.9419468,36.3641893 5.09099471,32.8682287 2.3734379,28.3219056 C2.03829553,27.7605643 2.22136889,27.0344121 2.78240018,26.6988864 C3.3439236,26.3638528 4.07031147,26.5468667 4.40594598,27.107716 C6.81149065,31.1315638 11.1461955,34.2373897 16.2998092,35.6286896 C16.3199867,35.6341013 16.3416405,35.6345933 16.3588652,35.6296735 C24.5656702,33.3336352 30.2985241,26.8573017 30.2985241,19.8816156 C30.2985241,19.2282754 30.828551,18.6979284 31.4825954,18.6979284 C32.1366397,18.6979284 32.6666667,19.2277834 32.6666667,19.8816156 C32.6666667,24.0107456 31.0687118,27.9470221 28.0455405,31.2648885 C25.2433369,34.3407041 21.3190707,36.7002069 16.9971613,37.9094767 C16.7803322,37.9696458 16.5563335,38 16.3313057,38 L16.3313057,38 Z" id="形状" fill="#FFFFFF"></path>
                <circle id="椭圆形" fill="#E1EFFC" opacity="0.500720796" cx="18.3333333" cy="20.3333333" r="8"></circle>
                <path d="M25.5579301,14.9569073 L16.5527068,25.24359 C16.5085421,25.2928676 16.5085421,25.2928676 16.4629215,25.3406668 C15.5975853,26.2197777 14.1935372,26.2197777 13.3277157,25.3406668 L7.84547356,19.7723067 C7.16261992,19.0784792 7.16261992,17.9539662 7.84547356,17.2606314 C8.52881253,16.5668039 9.63632639,16.5663111 10.3196654,17.2601387 L14.5774301,21.5822701 C14.7206012,21.7276388 14.9545284,21.72074 15.0889636,21.5669941 L22.9420231,12.5970067 C23.5845947,11.8627716 24.6901673,11.7967398 25.4128177,12.4491742 C26.1349827,13.1011158 26.2000164,14.2236577 25.5579301,14.9569073 Z" id="路径" fill="#FFFFFF"></path>
            </g>
        </g>
    </g>
</svg>