<?xml version="1.0" encoding="UTF-8"?>
<svg width="39px" height="35px" viewBox="0 0 39 35" version="1.1" xmlns="http://www.w3.org/2000/svg" xmlns:xlink="http://www.w3.org/1999/xlink">
    <!-- Generator: Sketch 60.1 (88133) - https://sketch.com -->
    <title>icon-01-hover</title>
    <desc>Created with Sketch.</desc>
    <g id="产品页" stroke="none" stroke-width="1" fill="none" fill-rule="evenodd">
        <g id="零信任" transform="translate(-1096.000000, -4105.000000)">
            <g id="icon-01-hover" transform="translate(1096.000000, 4105.000000)">
                <circle id="椭圆形" fill="#E1EFFC" opacity="0.500720796" cx="6.5" cy="10.5" r="6.5"></circle>
                <g id="gongji" transform="translate(4.000000, 0.000000)" fill="#FFFFFF" fill-rule="nonzero">
                    <path d="M6.67154712,17.8998009 C6.68364902,24.0832654 11.7101667,29.0884243 17.9038718,29.0843995 C24.0975768,29.0803697 29.1175597,24.0686783 29.1215961,17.8852033 C29.1256276,11.7017284 24.112188,6.68351299 17.9184935,6.67139636 C15.8407174,6.66622813 13.8035289,7.2456977 12.0405081,8.34339897 L13.5401238,9.8350348 C17.5426228,7.66192494 22.5361562,8.75112982 25.2661288,12.3927471 C27.9961015,16.0343645 27.6349666,21.1244972 24.4180982,24.3455906 C21.2012299,27.5666839 16.1037692,27.9423158 12.4480472,25.2276637 C8.79232526,22.5130116 7.68651452,17.530978 9.85134039,13.528663 L8.34628115,12.0206209 C7.25368425,13.7877976 6.67391455,15.8230882 6.67154712,17.8998009 L6.67154712,17.8998009 Z M12.2977592,17.8998009 C12.3021947,20.1672058 13.6743055,22.2086796 15.774278,23.0722856 C17.8742505,23.9358916 20.2885306,23.4515571 21.8913422,21.8451268 C23.4941539,20.2386965 23.9698505,17.8265296 23.0966153,15.7334168 C22.2233801,13.6403039 20.1731819,12.2784483 17.9020259,12.2828708 C17.3274451,12.2847573 16.7567441,12.3769526 16.2108927,12.5560799 L18.0607451,14.3646298 C19.9690675,14.4239594 21.4807117,15.993772 21.4649226,17.8998009 C21.5011885,19.8582532 19.9403218,21.4752432 17.9786294,21.5114491 C16.0169371,21.5476551 14.3972719,19.9893665 14.3610061,18.0309142 L12.5330991,16.2278331 C12.3818291,16.7724989 12.3027088,17.3346076 12.2977592,17.8998009 L12.2977592,17.8998009 Z M0.804526011,17.8998009 C0.791193997,25.6523197 6.01263152,32.440204 13.5184203,34.4278681 C21.0242091,36.4155322 28.929079,33.1037236 32.7662764,26.3638245 C36.6034739,19.6239254 35.4091889,11.1488333 29.8582684,5.7275134 C24.307348,0.306193536 15.7940471,-0.699651372 9.12892154,3.27834493 L10.6449021,4.79182159 C12.8641889,3.54008286 15.3695195,2.88138787 17.9184935,2.87946796 C26.2246655,2.87948683 32.9581366,9.60185664 32.9581303,17.8943094 C32.958124,26.1867622 26.2246427,32.9091218 17.9184707,32.9091281 C9.61229865,32.9091344 2.87880717,26.186785 2.87878826,17.8943322 C2.87438695,15.3505253 3.524561,12.8482319 4.76698523,10.62732 L3.2509704,9.11380917 C1.6475526,11.764122 0.805016323,14.8035918 0.815507177,17.8998009 L0.804526011,17.8998009 Z M0,3.66081566 L2.93900981,2.92321796 L3.65595085,0 L9.16723189,5.50217808 L8.94829115,7.48555712 L18.6956219,17.2167882 C19.0991407,17.6181304 19.1003669,18.2700589 18.6983607,18.6729113 C18.2963545,19.0757637 17.6433474,19.0769879 17.2398286,18.6756457 L7.47062091,8.94441463 L5.47297069,9.157525 L0,3.66081566 Z" id="形状"></path>
                </g>
            </g>
        </g>
    </g>
</svg>