<?xml version="1.0" encoding="UTF-8"?>
<svg width="36px" height="36px" viewBox="0 0 36 36" version="1.1" xmlns="http://www.w3.org/2000/svg" xmlns:xlink="http://www.w3.org/1999/xlink">
    <!-- Generator: Sketch 60.1 (88133) - https://sketch.com -->
    <title>icon-07-hover</title>
    <desc>Created with Sketch.</desc>
    <g id="产品页" stroke="none" stroke-width="1" fill="none" fill-rule="evenodd">
        <g id="零信任" transform="translate(-1209.000000, -4164.000000)">
            <g id="icon-07-hover" transform="translate(1209.000000, 4164.000000)">
                <circle id="椭圆形" fill="#CCDCF1" opacity="0.500720796" cx="11.5" cy="26.5" r="6.5"></circle>
                <g id="shuju1" fill="#FFFFFF" fill-rule="nonzero">
                    <path d="M35.8340013,33.4327191 L28.1905568,25.7889465 C31.4228142,21.7698696 32.5017635,16.4311942 31.0839727,11.4722333 C30.7828578,11.5203707 30.478321,11.5438884 30.1733859,11.5425529 L29.1614744,13.1239697 C30.4929508,19.603595 26.9680708,26.1012695 20.8105812,28.5177947 C14.6530916,30.9343198 7.65004677,28.5683607 4.21946927,22.9125339 C0.788891775,17.2567071 1.92641922,9.95247217 6.91441779,5.60786389 C11.9024163,1.26325561 19.2932466,1.13918576 24.4242433,5.3139265 C24.4720882,4.70118036 24.619307,4.10030146 24.8601296,3.53484134 C24.9369589,3.350918 25.02386,3.1713663 25.1204378,2.9970021 C18.4665986,-1.80457001 9.24825084,-0.732792684 3.87338295,5.46730503 C-1.50148495,11.6674028 -1.25509753,20.9450949 4.44127288,26.8511407 C10.1376433,32.7571864 19.3998821,33.3381197 25.7894906,28.1901138 L33.4329351,35.8339567 C33.5392002,35.9402702 33.6833521,36 33.8336636,36 C33.9839751,36 34.1281269,35.9402702 34.2343921,35.8339567 L35.8339661,34.2342919 C35.9402735,34.1280207 36,33.9838607 36,33.8335407 C36,33.6832206 35.9402735,33.5390606 35.8339661,33.4327894 L35.8340013,33.4327191 Z M21.1630769,16.7243318 C20.2683938,16.3365631 19.2533254,16.3353673 18.3577312,16.7210268 L15.003467,12.5146858 C15.6112835,11.3455979 15.3318204,9.91168273 14.3294725,9.05644366 C13.3271245,8.20120458 11.8671732,8.1509893 10.8084378,8.93533703 C9.74970234,9.71968477 9.37238782,11.13101 9.89845022,12.3390978 L7.66248501,15.1484702 C6.61593957,14.8844679 5.51724583,15.3142478 4.92756051,16.2183001 C4.33787519,17.1223524 4.38735382,18.3011345 5.05072524,19.1525846 C5.71409666,20.0040347 6.84494132,20.3402204 7.86568145,19.9894353 C8.88642158,19.6386502 9.5717591,18.6783196 9.57165855,17.5989315 C9.57259406,17.2602473 9.50437789,16.9249378 9.37118882,16.6135433 L11.5473155,13.8783933 C11.8508847,13.986047 12.1706889,14.0407541 12.4927788,14.0401283 C12.7518755,14.0396931 13.0097288,14.004296 13.2593593,13.934895 L16.6872439,18.2314912 C16.3934109,18.7542046 16.23964,19.343986 16.2408454,19.9436321 C16.2413864,21.4115998 17.1539203,22.7247017 18.5295302,23.2369633 C19.9051402,23.7492249 21.4542115,23.3527969 22.4146855,22.2427003 C23.3751595,21.1326037 23.5448222,19.5425532 22.840209,18.254767 L29.1366178,9.13586555 C29.4713404,9.2392643 29.8197901,9.29137588 30.1701163,9.29042796 C31.792377,9.29011216 33.203686,8.1795194 33.5855387,6.60275035 C33.9673915,5.02598131 33.2205809,3.39268838 31.778228,2.65011801 C30.335875,1.90754765 28.5727103,2.24862331 27.5113008,3.47553436 C26.4498913,4.70244542 26.3659965,6.4964343 27.308272,7.81705714 L21.1630769,16.7243318 Z" id="形状"></path>
                </g>
            </g>
        </g>
    </g>
</svg>