<?xml version="1.0" encoding="UTF-8"?>
<svg width="34px" height="34px" viewBox="0 0 34 34" version="1.1" xmlns="http://www.w3.org/2000/svg" xmlns:xlink="http://www.w3.org/1999/xlink">
    <!-- Generator: Sketch 60.1 (88133) - https://sketch.com -->
    <title>icon-08-hover</title>
    <desc>Created with Sketch.</desc>
    <g id="产品页" stroke="none" stroke-width="1" fill="none" fill-rule="evenodd">
        <g id="零信任" transform="translate(-1267.000000, -4167.000000)">
            <g id="icon-08-hover" transform="translate(1267.000000, 4167.000000)">
                <circle id="椭圆形" fill="#CCDCF1" opacity="0.500720796" cx="23.5" cy="25.5" r="6.5"></circle>
                <g id="jiankongyunwei" fill="#FFFFFF" fill-rule="nonzero">
                    <path d="M26.0608429,10.7782014 L23.6703745,13.1643866 C23.1581312,13.675712 22.338542,13.675712 21.8262988,13.1643866 C21.587252,12.9257681 21.4506538,12.5848845 21.4506538,12.2440009 C21.4506538,11.9031173 21.587252,11.5622337 21.8262988,11.3236152 L24.2167673,8.93742992 C23.2435051,8.30679525 22.11657,8 20.9896348,8 C19.8797745,8 18.7699141,8.30679525 17.7795772,8.92038574 C15.7989033,10.1816551 14.7231925,12.5167078 15.064688,14.8347163 L15.064688,14.8688047 L9.03729256,20.9194887 C7.65423581,22.3000673 7.65423581,24.5669433 9.03729256,25.964566 C10.4203493,27.3451447 12.6912943,27.3451447 14.0914259,25.964566 L20.1529709,19.913882 L20.1871204,19.913882 C22.5092898,20.2377215 24.8314591,19.1639381 26.0949925,17.1868132 C27.3073015,15.2267325 27.3073015,12.7212379 26.0608429,10.7782014 L26.0608429,10.7782014 Z M24.3704402,15.5846602 C24.1826177,15.9766764 23.9435709,16.3346042 23.6362249,16.6243552 L23.4825519,16.7777529 L23.4825519,16.7607087 C22.3897664,17.732227 20.7847375,17.9878897 19.4529051,17.3742992 L12.486397,24.3453689 C12.2302754,24.5839874 11.9058547,24.7032967 11.581434,24.7032967 C11.2399385,24.7032967 10.9155178,24.5839874 10.6593962,24.3283247 C10.1642277,23.8340435 10.1471529,23.0159229 10.6423214,22.5045974 L17.4551565,15.7039695 L17.5063808,15.6357928 L17.6088295,15.5335277 C17.1990349,14.6642745 17.1478105,13.6416237 17.4722313,12.7382821 C17.796652,11.8178964 18.4967177,11.0338641 19.4016808,10.6248038 L19.6236529,10.5225387 L19.5212042,10.744113 C18.8723628,12.1076475 19.162634,13.7268446 20.22127,14.7835838 C21.279906,15.8403229 22.9020096,16.130074 24.2679916,15.4823952 L24.4899637,15.3801301 L24.3704402,15.5846602 Z" id="形状"></path>
                    <path d="M21.7683061,31.8397682 C21.5115424,31.394862 20.9980151,31.1552971 20.518723,31.2750796 C18.0709095,31.8911036 15.4861554,31.85688 13.0554596,31.1895207 C10.6247637,30.5221614 8.38236112,29.2045545 6.58501557,27.4078179 C4.78767002,25.6110812 3.48673419,23.3694384 2.8191487,20.939566 C2.15156321,18.5268054 2.11732806,15.942927 2.71644324,13.4959428 C2.83626628,12.9997012 2.61373778,12.4863479 2.16868079,12.2296712 L2.15156321,12.2125595 C1.98038744,12.1098888 1.7920941,12.0585535 1.58668318,12.0585535 C1.43262499,12.0585535 1.2785668,12.092777 1.14162619,12.1441124 C0.816392229,12.2810066 0.576746156,12.5719068 0.491158272,12.9141423 C-0.929600592,18.6636996 0.782157076,24.8410513 4.97596336,29.0334367 C9.16976965,33.2258222 15.3492148,34.937 21.1007206,33.4996107 C21.4430721,33.4140518 21.7340709,33.1744869 21.8710115,32.8493631 C22.0079522,32.5242393 21.9908346,32.1477802 21.8025412,31.8397682 L21.7683061,31.8397682 Z M29.0261586,4.97427758 C24.8323523,0.781892092 18.6529071,-0.929285657 12.9014014,0.490991875 C12.5590498,0.576550762 12.268051,0.816115647 12.1311104,1.14123942 C11.9941698,1.46636319 12.0112874,1.8428223 12.1995807,2.15083429 L12.2166983,2.16794607 C12.4734619,2.61285228 12.9869892,2.85241717 13.4662814,2.73263473 C14.6302766,2.44173451 15.828507,2.28772851 17.0267373,2.28772851 C18.3447908,2.28772851 19.6457266,2.45884629 20.9295448,2.81819361 C23.3602407,3.48555294 25.6026433,4.8031598 27.3999888,6.59989644 C29.1973344,8.39663308 30.4982702,10.6382759 31.1829733,13.0681483 C31.8505588,15.480909 31.8847939,18.0647874 31.2856787,20.5117715 C31.1658557,21.0080131 31.3883842,21.5213664 31.8334412,21.7780431 L31.8505588,21.7951549 C32.1586751,21.9662726 32.5352618,22.0004962 32.8604958,21.8464902 C33.1857297,21.709596 33.4253758,21.4186958 33.5109637,21.0764602 C34.9317226,15.326903 33.2028473,9.14955129 29.0261586,4.97427758 Z" id="形状"></path>
                    <path d="M22.874931,26.482965 C22.4432094,28.6411314 23.6055366,30.7992979 25.6313069,31.6459631 C27.6570773,32.4926284 30.0149411,31.7787734 31.2270823,29.9526326 C32.4392236,28.1264918 32.2067581,25.6861036 30.6625234,24.1255832 C29.7990803,23.2623167 28.6201484,22.7808795 27.4080071,22.7808795 C25.1995854,22.7642783 23.2900478,24.3247986 22.874931,26.482965 Z M29.8322896,26.897997 C30.0647551,28.0600866 29.4337774,29.2387775 28.3378689,29.6870121 C28.0389848,29.8198223 27.723496,29.8696262 27.3914025,29.8696262 C26.5611687,29.8696262 25.780749,29.4545942 25.3158181,28.7573404 C24.6516311,27.7778649 24.7844685,26.4497625 25.6313069,25.6030972 C26.0962378,25.1382613 26.7272155,24.8726408 27.3747978,24.8726408 L27.3914025,24.8726408 C28.5703344,24.8892421 29.5998242,25.7359074 29.8322896,26.897997 L29.8322896,26.897997 Z M5.62267399,1 C3.43085693,1 1.52131935,2.56052033 1.0895978,4.70208547 C0.657876264,6.86025189 1.82020349,9.01841831 3.8459738,9.8650836 C5.87174411,10.7117489 8.22960791,9.98129256 9.44174916,8.17175302 C10.6538904,6.34561221 10.421425,3.90522402 8.86058554,2.34470369 C8.03035181,1.48143712 6.83481524,1 5.62267399,1 Z M6.56914044,7.90613254 C6.2702563,8.03894278 5.95476748,8.08874662 5.62267399,8.08874662 C4.79244025,8.08874662 4.01202054,7.67371462 3.54708965,6.97646085 C2.88290267,5.99698532 3.01574007,4.66888291 3.86257847,3.82221762 C4.32750936,3.35738178 4.958487,3.0917613 5.62267399,3.0917613 C6.81821056,3.0917613 7.84770039,3.93842658 8.08016584,5.10051619 C8.29602661,6.27920708 7.66504897,7.45789797 6.56914044,7.90613254 L6.56914044,7.90613254 Z" id="形状"></path>
                </g>
            </g>
        </g>
    </g>
</svg>