<?xml version="1.0" encoding="UTF-8"?>
<svg width="48px" height="119px" viewBox="0 0 48 119" version="1.1" xmlns="http://www.w3.org/2000/svg" xmlns:xlink="http://www.w3.org/1999/xlink">
    <title>编组 33</title>
    <g id="产品页" stroke="none" stroke-width="1" fill="none" fill-rule="evenodd">
        <g id="零信任" transform="translate(-555.000000, -3274.000000)" fill="#FFFFFF">
            <g id="编组-30" transform="translate(-3.000000, 2966.000000)">
                <g id="编组-33" transform="translate(558.000000, 309.000000)">
                    <ellipse id="椭圆形" stroke="#FFFFFF" fill-opacity="0.4" cx="24" cy="91.7181818" rx="23.5" ry="25.2454545"></ellipse>
                    <line x1="24" y1="0.536363636" x2="24" y2="70.2636364" id="直线" stroke="#FFFFFF" stroke-width="2" stroke-linecap="round" stroke-dasharray="1,5"></line>
                    <g id="icongenduo" transform="translate(14.000000, 79.918182)" fill-rule="nonzero">
                        <path d="M1.33490544,0 C0.796670592,0.00367953786 0.313144227,0.367206158 0.108849921,0.9217777 C-0.0954443849,1.47634924 0.0195168409,2.11331911 0.400351804,2.53691285 L9.1945016,12.3359014 L0.391006268,22.1348899 C0.0537835566,22.5104449 -0.0779169081,23.0578281 0.045515165,23.5708458 C0.168947238,24.0838634 0.52875958,24.4845757 0.989414361,24.6220384 C1.45006914,24.759501 1.94158194,24.6128301 2.27880464,24.2372752 L11.3159384,14.1754885 C12.2280205,13.1594227 12.2280205,11.5123801 11.3159384,10.4963143 L2.27880464,0.434527628 C2.03082369,0.158277246 1.69499542,0.00213141037 1.34425098,0 L1.33490544,0 Z" id="路径"></path>
                        <path d="M11.3374752,0 C10.7991342,0.00367953328 10.3155124,0.367206649 10.1111778,0.921778954 C9.90684321,1.47635126 10.0218271,2.11332201 10.4027372,2.53691634 L19.1986219,12.3359183 L10.391053,22.1349203 C9.86964901,22.7154788 9.86964901,23.65675 10.391053,24.2373084 C10.9124569,24.8178669 11.7578198,24.8178669 12.2792238,24.2373084 L21.3158034,14.1755079 C22.2280655,13.1594408 22.2280655,11.5123959 21.3158034,10.4963287 L12.2792238,0.434528225 C12.0294736,0.156373111 11.6907199,0 11.3374752,0 Z" id="路径"></path>
                    </g>
                </g>
            </g>
        </g>
    </g>
</svg>