<?xml version="1.0" encoding="UTF-8"?>
<svg width="48px" height="168px" viewBox="0 0 48 168" version="1.1" xmlns="http://www.w3.org/2000/svg" xmlns:xlink="http://www.w3.org/1999/xlink">
    <!-- Generator: Sketch 60.1 (88133) - https://sketch.com -->
    <title>编组 42</title>
    <desc>Created with Sketch.</desc>
    <defs>
        <polygon id="path-1" points="0 0 24 0 24 22 0 22"></polygon>
    </defs>
    <g id="产品页" stroke="none" stroke-width="1" fill="none" fill-rule="evenodd">
        <g id="零信任" transform="translate(-555.000000, -3132.000000)">
            <g id="编组-42" transform="translate(555.000000, 3132.000000)">
                <g id="编组-6" fill="#FFFFFF">
                    <circle id="椭圆形" stroke="#FFFFFF" fill-opacity="0.4" cx="24" cy="24" r="23.5"></circle>
                    <circle id="椭圆形" cx="24.5" cy="160.5" r="7.5"></circle>
                    <line x1="24.5" y1="48.5" x2="24.5" y2="153.5" id="直线" stroke="#FFFFFF" stroke-width="2" stroke-linecap="round" stroke-dasharray="1,5"></line>
                </g>
                <g id="编组" transform="translate(12.000000, 13.000000)">
                    <mask id="mask-2" fill="white">
                        <use xlink:href="#path-1"></use>
                    </mask>
                    <g id="Clip-2"></g>
                    <path d="M18.7724147,21.3111322 C18.7724147,21.6977885 18.4706268,21.9999998 18.083699,21.9999998 L6.47062676,21.9999998 C6.08972428,22.0002556 5.78086319,21.6988121 5.78086319,21.3267418 C5.78086319,21.3218798 5.78086319,21.3170178 5.78086319,21.3124117 C5.78086319,20.9247319 6.08291309,20.4825465 6.46957889,20.4825465 L18.0692907,20.4825465 C18.4549086,20.4825465 18.7724147,20.9247319 18.7724147,21.3124117 L18.7724147,21.3111322 Z M10.895802,20.592837 L12.703124,20.592837 L12.703124,18.3020713 L10.895802,18.3020713 L10.895802,20.592837 Z M24,2.27873864 C24,1.02306537 22.9796319,0 21.7232301,0 L2.27676993,0 C1.03608619,0 0,1.02101821 0,2.27873864 L0,16.0115615 C0,17.2659553 1.02063003,18.2900443 2.27676993,18.2900443 L14.8570306,18.2900443 L14.8570306,16.6198223 L2.41430349,16.6198223 C1.78060122,16.6198223 1.53146899,16.3554835 1.53146899,15.7211215 L1.53146899,2.56687561 C1.53146899,1.93149009 1.7950095,1.66843076 2.41430349,1.66843076 L21.5723361,1.66843076 C22.2070863,1.66843076 22.4554326,1.93149009 22.4554326,2.56687561 L22.4554326,10.2815766 L24,10.2815766 L24,2.27873864 Z M16.0128365,12.1311805 C15.9981662,12.1726354 15.9981662,12.2140903 15.9981662,12.253498 L15.9981662,17.3053631 C15.9981662,17.6078301 16.2619687,17.8711453 16.5637566,17.8711453 C16.8655446,17.8711453 17.129347,17.6088537 17.129347,17.3053631 L17.129347,13.3878774 L22.8274281,19.0892021 C23.0611042,19.3228336 23.4197393,19.3228336 23.6411029,19.0892021 C23.8624664,18.8609444 23.8624664,18.5034601 23.6411029,18.2749465 L17.9464274,12.5743894 L21.6291833,12.5743894 C21.9312332,12.5743894 22.1947737,12.3126096 22.1947737,12.0088631 C22.1916301,11.7030694 21.9424979,11.4538284 21.6291833,11.4433367 L16.5658524,11.4433367 C16.242845,11.4543401 15.9897832,11.7191907 16.0007859,12.0349643 C16.0020957,12.0674629 16.0057633,12.0994496 16.0128365,12.1311805 L16.0128365,12.1311805 Z" id="Fill-1" fill="#FFFFFF" mask="url(#mask-2)"></path>
                </g>
            </g>
        </g>
    </g>
</svg>