<?xml version="1.0" encoding="UTF-8"?>
<svg width="34px" height="39px" viewBox="0 0 34 39" version="1.1" xmlns="http://www.w3.org/2000/svg" xmlns:xlink="http://www.w3.org/1999/xlink">
    <!-- Generator: Sketch 60.1 (88133) - https://sketch.com -->
    <title>icon-02</title>
    <desc>Created with Sketch.</desc>
    <g id="产品页" stroke="none" stroke-width="1" fill="none" fill-rule="evenodd">
        <g id="零信任" transform="translate(-803.000000, -4111.000000)" fill-rule="nonzero">
            <g id="icon-02" transform="translate(803.000000, 4111.000000)">
                <path d="M1.85111228,22.204264 C1.19756004,22.204264 0.666667,21.674409 0.666667,21.0205768 L0.666667,7.7579668 C0.650800607,6.50737126 1.68231076,5.46045257 2.96628499,5.43880576 C2.97809618,5.43880576 2.98990736,5.43831379 3.00171855,5.43880576 C3.15870888,5.44077365 3.31373068,5.45750073 3.46186263,5.48849504 C3.98303116,5.59426925 4.56768482,5.64887826 5.19220123,5.64887826 C6.3939893,5.64887826 7.71388922,5.44962917 9.11548316,5.05605071 C11.4826415,4.40271048 13.6416277,3.13587983 15.3636,1.39232727 C15.7981532,0.938728107 16.4246381,0.669618838 17.0703162,0.666667 C17.6707181,0.666667 18.2356865,0.890514746 18.667779,1.29639253 C19.7494867,2.29558983 22.0177263,4.12474569 24.9601878,5.06884201 C26.1398299,5.45651679 27.3613033,5.65625785 28.5985249,5.66412942 C29.2427266,5.66412942 29.8756093,5.60263279 30.4705977,5.48062347 C30.6610531,5.44421746 30.8323153,5.43241011 31.0001325,5.43142616 C31.5980737,5.43142616 32.1768218,5.66216153 32.6172806,6.08329048 C33.0670899,6.50884718 33.3293966,7.11249814 33.3313651,7.73582801 L33.3313651,12.8169259 C33.3313651,13.4702661 32.8013382,14.0006131 32.1472938,14.0006131 C31.4932495,14.0006131 30.9632226,13.4707581 30.9632226,12.8169259 L30.9632226,7.79880056 C30.949935,7.79929254 30.9396002,7.80076846 30.9263126,7.80322832 C30.193527,7.95328011 29.4011933,8.03101185 28.5896665,8.03101185 C27.0980123,8.02117239 25.6329332,7.78207348 24.2274022,7.3196188 C20.8720414,6.2436737 18.3050772,4.18230654 17.065887,3.04043705 C17.0589972,3.04584876 17.0501388,3.05224441 17.047186,3.05470427 C15.0343632,5.09294869 12.5107067,6.57378763 9.74935009,7.33634588 C8.1440132,7.78699321 6.60855916,8.01625266 5.19072483,8.01625266 C4.42791913,8.01625266 3.70202339,7.94934432 3.03272291,7.81749554 L3.03272291,21.0210687 C3.03469144,21.674409 2.50466451,22.204264 1.85111228,22.204264 L1.85111228,22.204264 Z M16.9979727,38.666667 C16.7799579,38.666667 16.5619432,38.6381323 16.3488497,38.5805715 C10.6086138,37.0308563 5.75766171,33.5348957 3.0401049,28.9885726 C2.70496253,28.4272313 2.88803589,27.7010791 3.44906718,27.3655534 C4.0105906,27.0305198 4.73697847,27.2135337 5.07261298,27.774383 C7.47815765,31.7982308 11.8128625,34.9040567 16.9664762,36.2953566 C16.9866537,36.3007683 17.0083075,36.3012603 17.0255322,36.2963405 C25.2323372,34.0003022 30.9651911,27.5239687 30.9651911,20.5482826 C30.9651911,19.8949424 31.495218,19.3645954 32.1492624,19.3645954 C32.8033067,19.3645954 33.3333337,19.8944504 33.3333337,20.5482826 C33.3333337,24.6774126 31.7353788,28.6136891 28.7122075,31.9315555 C25.9100039,35.0073711 21.9857377,37.3668739 17.6638283,38.5761437 C17.4469992,38.6363128 17.2230005,38.666667 16.9979727,38.666667 L16.9979727,38.666667 Z" id="形状" fill="#537EE8"></path>
                <circle id="椭圆形" fill="#E5EDF8" opacity="0.500720796" cx="19.0000003" cy="21.0000003" r="8"></circle>
                <path d="M26.0794847,13.1158412 C26.8016497,13.7677828 26.8666834,14.8903247 26.2245971,15.6235743 L17.2193738,25.910257 C17.1752091,25.9595346 17.1752091,25.9595346 17.1295885,26.0073338 C16.2642523,26.8864447 14.8602042,26.8864447 13.9943827,26.0073338 L8.51214056,20.4389737 C7.82928692,19.7451462 7.82928692,18.6206332 8.51214056,17.9272984 C9.19547953,17.2334709 10.3029934,17.2329781 10.9863324,17.9268057 L15.2440971,22.2489371 C15.3872682,22.3943058 15.6211954,22.387407 15.7556306,22.2336611 L23.6086901,13.2636737 C24.2512617,12.5294386 25.3568343,12.4634068 26.0794847,13.1158412 L26.0794847,13.1158412 Z" id="路径" fill="#537EE8"></path>
            </g>
        </g>
    </g>
</svg>