<?xml version="1.0" encoding="UTF-8"?>
<svg width="48px" height="167px" viewBox="0 0 48 167" version="1.1" xmlns="http://www.w3.org/2000/svg" xmlns:xlink="http://www.w3.org/1999/xlink">
    <title>编组 35</title>
    <g id="产品页" stroke="none" stroke-width="1" fill="none" fill-rule="evenodd">
        <g id="零信任" transform="translate(-894.000000, -3131.000000)" fill="#FFFFFF">
            <g id="编组-35" transform="translate(894.000000, 3131.000000)">
                <g id="编组-6">
                    <circle id="椭圆形" stroke="#FFFFFF" fill-opacity="0.4" cx="24" cy="24" r="23.5"></circle>
                    <circle id="椭圆形" cx="24.5" cy="159.5" r="7.5"></circle>
                    <line x1="24.5" y1="47.5" x2="24.5" y2="152.5" id="直线" stroke="#FFFFFF" stroke-width="2" stroke-linecap="round" stroke-dasharray="1,5"></line>
                </g>
                <path d="M37.2164084,29.8931932 C36.7352733,29.4125487 36.0585666,29.1097488 35.3104552,29.1097488 L32.7990613,29.1097488 C32.051061,29.1097488 31.3918027,29.4125487 30.8931081,29.8931932 C30.4119729,30.3917639 30.1096554,31.0509755 30.1096554,31.7993457 L30.1096554,34.3104587 C30.1096554,35.0588011 30.4119729,35.7355221 30.8931081,36.2167502 C31.3918305,36.6973669 32.0510888,37 32.7990613,37 L35.3104552,37 C36.0585944,37 36.7352733,36.6973391 37.2164084,36.2167502 C37.6975436,35.7355221 38,35.0587733 38,34.3104587 L38,31.7993457 C38,31.0509755 37.6975158,30.3917639 37.2164084,29.8931932 Z M36.3971978,34.3104587 C36.3971978,34.6132586 36.2720865,34.8803729 36.0765151,35.076366 C35.8803602,35.2724703 35.6135506,35.3972867 35.3103996,35.3972867 L32.7990057,35.3972867 C32.4958825,35.3972867 32.229073,35.2724981 32.0328903,35.076366 C31.8372911,34.8803729 31.7303227,34.6132586 31.7303227,34.3104587 L31.7303227,31.7993457 C31.7303227,31.4966847 31.8372911,31.2295427 32.0328903,31.0334384 C32.2290452,30.8374731 32.4958547,30.7302216 32.7990057,30.7302216 L35.3103996,30.7302216 C35.6135229,30.7302216 35.8803324,30.8375009 36.0765151,31.0334384 C36.2720865,31.2294037 36.3971978,31.4966847 36.3971978,31.7993457 L36.3971978,34.3104587 Z M25.264824,29.109721 L22.752791,29.109721 C22.0052631,29.109721 21.327973,29.4125209 20.8474491,29.8931654 C20.3487267,30.3917361 20.0638019,31.0509477 20.0638019,31.7993179 L20.0638019,34.3104309 C20.0638019,35.0587733 20.3487822,35.7354943 20.8474491,36.2167224 C21.327973,36.6973391 22.0054298,36.9999722 22.752791,36.9999722 L25.264824,36.9999722 C25.994598,36.9999722 26.6720826,36.6973113 27.1706105,36.2167224 C27.6512733,35.7354943 27.9543688,35.0587455 27.9543688,34.3104309 L27.9543688,31.7993179 C27.9543688,31.0509477 27.6512456,30.3917361 27.1706105,29.8931654 C26.6720826,29.4125209 25.994598,29.109721 25.264824,29.109721 Z M26.3332569,34.3104587 C26.3332569,34.6132586 26.2264831,34.8803729 26.0302726,35.076366 C25.834729,35.2724703 25.5497487,35.3972867 25.264824,35.3972867 L22.752791,35.3972867 C22.4502791,35.3972867 22.1828583,35.2724981 21.9872868,35.076366 C21.7917154,34.8803729 21.6666042,34.6132586 21.6666042,34.3104587 L21.6666042,31.7993457 C21.6666042,31.4966847 21.7916876,31.2295427 21.9872868,31.0334384 C22.1828583,30.8374731 22.4503069,30.7302216 22.752791,30.7302216 L25.264824,30.7302216 C25.5498043,30.7302216 25.8347568,30.8375009 26.0302726,31.0334384 C26.2264831,31.2294037 26.3332569,31.4966847 26.3332569,31.7993457 L26.3332569,34.3104587 Z M27.1706105,9.7837223 C26.6720826,9.3027999 25.994598,9 25.264824,9 L22.752791,9 C22.0054298,9 21.327973,9.3027999 20.8474491,9.7837223 C20.3487267,10.2824875 20.0638019,10.9593474 20.0638019,11.6895968 L20.0638019,14.2010156 C20.0638019,14.9491912 20.3487822,15.6260789 20.8474491,16.1070013 C21.327973,16.6057666 22.0054298,16.8907236 22.752791,16.8907236 L25.264824,16.8907236 C25.994598,16.8907236 26.6720826,16.6057388 27.1706105,16.1070013 C27.6512733,15.6260789 27.9543688,14.9491912 27.9543688,14.2010156 L27.9543688,11.6895968 C27.9543688,10.9593752 27.6512456,10.2823208 27.1706105,9.7837223 Z M26.3332569,14.2010434 C26.3332569,14.5038155 26.2264831,14.7709576 26.0302726,14.9669229 C25.834729,15.1628882 25.5497487,15.2876768 25.264824,15.2876768 L22.752791,15.2876768 C22.4502791,15.2876768 22.1828583,15.1628882 21.9872868,14.9669229 C21.7917154,14.7709298 21.6666042,14.5038155 21.6666042,14.2010434 L21.6666042,11.6895968 C21.6666042,11.4046398 21.7916876,11.1196549 21.9872868,10.9237174 C22.1828583,10.7455949 22.4503069,10.6210564 22.752791,10.6210564 L25.264824,10.6210564 C25.5498043,10.6210564 25.8347568,10.7277521 26.0302726,10.9237174 C26.2264831,11.1196549 26.3332569,11.4046398 26.3332569,11.6895968 L26.3332569,14.2010434 Z M13.1525926,27.3994227 C13.1525926,27.6310181 13.2419737,27.8270112 13.3844499,27.9693369 C13.5267872,28.112274 13.7224698,28.20096 13.9542438,28.20096 C14.1679859,28.20096 14.3816725,28.1122462 14.5241765,27.9693369 C14.666625,27.827039 14.7554226,27.6310459 14.7554226,27.3995895 L14.7554226,23.1780947 L23.1982238,23.1780947 L23.1982238,27.3995617 C23.1982238,27.6309903 23.2876049,27.8269834 23.4300811,27.9693091 C23.5725852,28.1122462 23.7863273,28.2190808 24.0000139,28.2190808 C24.2312877,28.2190808 24.4274704,28.1122462 24.5699467,27.9693091 C24.7123951,27.8270112 24.8016928,27.6310181 24.8016928,27.3995617 L24.8016928,23.1780947 L33.2446608,23.1780947 L33.2446608,27.3994227 C33.2446608,27.6310181 33.3334306,27.8270112 33.4939386,27.9693369 C33.6363871,28.112274 33.8319585,28.2190808 34.0638436,28.2190808 C34.2775858,28.2190808 34.4731294,28.112274 34.6337764,27.9693369 C34.7762804,27.827039 34.8650502,27.6310459 34.8650502,27.3994227 L34.8650502,22.3767241 C34.8650502,22.1628882 34.7762804,21.9491357 34.6337764,21.8067822 C34.4731572,21.6641786 34.2775858,21.5751868 34.0638436,21.5751868 L24.8192523,21.5751868 L24.8192523,18.6006607 C24.8192523,18.3868247 24.7124507,18.1908594 24.5700022,18.0307465 C24.4275538,17.8880595 24.2313433,17.7990956 24.0000695,17.7990956 C23.7863551,17.7990956 23.5726407,17.8880873 23.4301367,18.0307465 C23.2876882,18.1908594 23.1982794,18.3868247 23.1982794,18.6006607 L23.1982794,21.5751868 L13.9544382,21.5751868 C13.7225254,21.5751868 13.5269817,21.6641786 13.3845055,21.8067822 C13.242057,21.9491079 13.1344774,22.162916 13.1344774,22.3767241 L13.1526482,22.3767241 L13.1526482,27.3994227 L13.1525926,27.3994227 Z M15.2010221,29.109721 L12.6889613,29.109721 C11.9414889,29.109721 11.2823418,29.4125209 10.7836194,29.8931654 C10.3024842,30.3917361 10,31.0509477 10,31.7993179 L10,34.3104309 C10,35.0587733 10.302512,35.7354943 10.7836194,36.2167224 C11.2823418,36.6973391 11.9414889,36.9999722 12.6889613,36.9999722 L15.2010221,36.9999722 C15.9489668,36.9999722 16.6256456,36.6973113 17.1067808,36.2167224 C17.6055032,35.7354943 17.8904279,35.0587455 17.8904279,34.3104309 L17.8904279,31.7993179 C17.8904279,31.0509477 17.6054476,30.3917361 17.1067808,29.8931654 C16.6256456,29.4125209 15.9489668,29.109721 15.2010221,29.109721 Z M16.2870145,34.3104587 C16.2870145,34.6132586 16.1627367,34.8803729 15.9671375,35.076366 C15.7708159,35.2724703 15.5033951,35.3972867 15.2010498,35.3972867 L12.6889891,35.3972867 C12.4040644,35.3972867 12.1190841,35.2724981 11.9235405,35.076366 C11.7278023,34.8803729 11.6204173,34.6132586 11.6204173,34.3104587 L11.6204173,31.7993457 C11.6204173,31.4966847 11.7278023,31.2295427 11.9235405,31.0334384 C12.1191119,30.8374731 12.3865049,30.7302216 12.6889891,30.7302216 L15.2010498,30.7302216 C15.5033673,30.7302216 15.7708437,30.8375009 15.9671375,31.0334384 C16.1627089,31.2294037 16.2870145,31.4966847 16.2870145,31.7993457 L16.2870145,34.3104587 L16.2870145,34.3104587 Z" id="形状" fill-rule="nonzero"></path>
            </g>
        </g>
    </g>
</svg>