<?xml version="1.0" encoding="UTF-8"?>
<svg width="32px" height="34px" viewBox="0 0 32 34" version="1.1" xmlns="http://www.w3.org/2000/svg" xmlns:xlink="http://www.w3.org/1999/xlink">
    <!-- Generator: Sketch 60.1 (88133) - https://sketch.com -->
    <title>icon-04</title>
    <desc>Created with Sketch.</desc>
    <g id="产品页" stroke="none" stroke-width="1" fill="none" fill-rule="evenodd">
        <g id="零信任" transform="translate(-949.000000, -4111.000000)">
            <g id="icon-04" transform="translate(949.000000, 4111.000000)">
                <rect id="矩形" fill="#E5EDF8" x="10" y="7" width="16" height="10" rx="2"></rect>
                <g id="动态信息抓取" fill="#537EE8" fill-rule="nonzero">
                    <path d="M20.5748886,11.3333333 L23.8781964,11.3333333 L23.8781964,4.53333334 L26.0489416,4.53333334 L22.2737326,0 L18.4985237,4.53333334 L20.5748886,4.53333334 L20.5748886,11.3333333 Z M20.763649,27.3888889 L11.3256267,27.3888889 L11.3256267,32.1111111 L2.83140669,32.1111111 L2.83140669,34 L29.2578691,34 L29.2578691,32.1111111 L20.763649,32.1111111 L20.763649,27.3888889 Z M5.66281339,6.61111112 L7.55041785,6.61111112 L7.55041785,19.8333333 L5.66281339,19.8333333 L5.66281339,6.61111112 Z M9.43802231,14.1666667 L11.3256267,14.1666667 L11.3256267,19.8333333 L9.43802231,19.8333333 L9.43802231,14.1666667 Z M13.2132312,10.3888889 L15.1008357,10.3888889 L15.1008357,19.8333333 L13.2132312,19.8333333 L13.2132312,10.3888889 Z M16.9884401,15.1111111 L18.8760446,15.1111111 L18.8760446,19.8333333 L16.9884401,19.8333333 L16.9884401,15.1111111 Z M24.538858,15.1111111 L26.4264624,15.1111111 L26.4264624,19.8333333 L24.538858,19.8333333 L24.538858,15.1111111 Z M20.763649,17 L22.6512535,17 L22.6512535,19.8333333 L20.763649,19.8333333 L20.763649,17 Z M29.3522493,1.88888889 L28.2196867,1.88888889 L28.2196867,3.5888889 L29.3522493,3.5888889 C29.8241504,3.5888889 30.2016714,3.96666666 30.2016714,4.4388889 L30.2016714,21.9111111 C30.2016714,22.3833333 29.8241505,22.7611111 29.3522493,22.7611111 L2.64264625,22.7611111 C2.17074515,22.7611111 1.79322424,22.3833333 1.79322424,21.9111111 L1.79322424,4.53333334 C1.79322424,4.06111114 2.17074512,3.68333334 2.64264625,3.68333334 L16.0446379,3.68333334 L16.0446379,1.88888889 L2.64264625,1.88888889 C1.13256267,1.88888889 0,3.02222222 0,4.53333334 L0,22.0055556 C0,23.4222222 1.22694289,24.65 2.64264625,24.65 L29.3522493,24.65 C30.8623329,24.65 31.9948956,23.5166667 31.9948956,22.0055556 L31.9948956,4.53333334 C32.0892758,3.11666669 30.8623329,1.88888889 29.3522493,1.88888889 Z" id="形状"></path>
                </g>
            </g>
        </g>
    </g>
</svg>