<?xml version="1.0" encoding="UTF-8"?>
<svg width="36px" height="34px" viewBox="0 0 36 34" version="1.1" xmlns="http://www.w3.org/2000/svg" xmlns:xlink="http://www.w3.org/1999/xlink">
    <!-- Generator: Sketch 60.1 (88133) - https://sketch.com -->
    <title>icon03</title>
    <desc>Created with Sketch.</desc>
    <g id="产品页" stroke="none" stroke-width="1" fill="none" fill-rule="evenodd">
        <g id="零信任" transform="translate(-873.000000, -4114.000000)">
            <g id="icon03" transform="translate(873.000000, 4114.000000)">
                <circle id="椭圆形" fill="#CCDCF1" opacity="0.500720796" cx="17.5" cy="14.5" r="6.5"></circle>
                <g id="tiyanke" fill="#537EE8" fill-rule="nonzero">
                    <path d="M14.1291957,9.25482882 C14.568643,9.69611725 15.2823054,9.69258694 15.7217526,9.25129852 L20.5732505,4.3582924 C21.6560485,3.44394278 22.8232205,2.81907836 24.0466417,2.49782038 L24.0501572,2.49782038 C25.3649835,2.14831995 26.7149655,2.18715333 28.0719786,2.61432053 L28.0754942,2.61432053 C29.2883686,2.99206343 30.4309315,3.68400368 31.3766221,4.61600485 C32.3082503,5.53035447 33.0078503,6.64240132 33.4015951,7.83564523 C33.8164333,9.11714683 33.8621358,10.3951181 33.535187,11.6307257 C33.376986,12.2344083 33.7320594,12.8522121 34.3332233,13.0110759 C34.4316595,13.0357881 34.5265801,13.0499093 34.6215007,13.0499093 C35.1207128,13.0499093 35.5742223,12.7145301 35.7078143,12.2096961 C36.1472616,10.543391 36.0910123,8.83472224 35.5390666,7.13311405 L35.535551,7.12605344 C35.0257922,5.59390001 34.1328353,4.1676558 32.9480855,3.00265435 C31.7457578,1.82000136 30.293824,0.940954804 28.7399385,0.457302685 C26.9997273,-0.0934252756 25.1751422,-0.14284958 23.4700868,0.31256008 C21.9056546,0.722075743 20.4291118,1.51639492 19.0791298,2.66374483 L19.043974,2.6955176 L18.0209407,3.72636737 L17.5217286,3.22859402 L17.468995,3.17563941 L17.4479015,3.15445757 C15.9537808,1.72821336 14.2979435,0.767969739 12.5260921,0.29843885 C10.8245523,-0.146379887 9.00699841,-0.0934252756 7.27030281,0.453772377 C5.70235496,0.944485111 4.24690562,1.82353166 3.06215579,3.00265435 C1.86685922,4.17824673 0.9703868,5.60096062 0.464143549,7.12252313 L0.464143549,7.12605344 C-0.0913177961,8.82060101 -0.147567046,10.5292698 0.29188022,12.2061658 L0.29188022,12.2132265 C0.734843065,13.86188 1.69459589,15.4717002 3.07270252,16.869702 L10.8386146,24.6681511 C11.0565805,24.8870302 11.3448579,25 11.6331353,25 C11.9214127,25 12.2096901,24.8905605 12.4276559,24.6681511 C12.8671032,24.2268627 12.8671032,23.5102103 12.4276559,23.0689218 L4.67229057,15.274003 C3.57191462,14.1584259 2.80903416,12.8945758 2.46802308,11.6271954 C2.14107432,10.3809969 2.18677683,9.1030256 2.60161505,7.83564523 C2.9953598,6.65299224 3.69847543,5.5409454 4.63713479,4.61600485 L4.64065037,4.61247454 C5.568763,3.68753399 6.71132589,2.99559373 7.93826266,2.61432053 L7.94177823,2.61432053 C9.27418235,2.19421394 10.6628357,2.14831995 11.9530529,2.48722946 C13.3487374,2.85791174 14.6705948,3.63104907 15.8869848,4.7854596 L16.435415,5.32912695 L14.1221646,7.66266017 C13.6862329,8.09688798 13.6897485,8.81354039 14.1291957,9.25482882 Z" id="路径"></path>
                    <path d="M30.9177964,12.5842265 C30.5422468,12.2076468 30.0438539,12 29.5138727,12 C28.9838915,12 28.4854986,12.2076468 28.1064392,12.5842265 L16.3380492,24.3848984 C16.0993822,24.6242201 15.9238917,24.9233723 15.8291268,25.2506799 L14.0742223,31.462486 C13.8811828,32.1522956 14.0707125,32.8984163 14.5726152,33.4087346 C14.9446549,33.7853143 15.4605969,34 15.9870683,34 C16.1625587,34 16.3380492,33.9753639 16.50652,33.9296113 L22.7645097,32.2332427 C23.0979416,32.1417373 23.4068048,31.962246 23.6489816,31.7194049 L35.4173717,19.918733 C35.7929213,19.5421533 36,19.0423932 36,18.5074388 C36,17.9760038 35.7929213,17.4727244 35.4173717,17.0961446 L30.9177964,12.5842265 Z M16.3626178,31.6349384 L17.7700513,26.6549352 L21.3816449,30.2764358 L16.3626178,31.6349384 L16.3626178,31.6349384 Z M23.2348241,28.9496081 L19.0967592,24.8037114 L29.5103629,14.3615422 L33.6484279,18.5109582 L23.2348241,28.9496081 L23.2348241,28.9496081 Z" id="形状"></path>
                </g>
            </g>
        </g>
    </g>
</svg>