<?xml version="1.0" encoding="UTF-8"?>
<svg width="32px" height="37px" viewBox="0 0 32 37" version="1.1" xmlns="http://www.w3.org/2000/svg" xmlns:xlink="http://www.w3.org/1999/xlink">
    <!-- Generator: Sketch 60.1 (88133) - https://sketch.com -->
    <title>icon-06</title>
    <desc>Created with Sketch.</desc>
    <g id="产品页" stroke="none" stroke-width="1" fill="none" fill-rule="evenodd">
        <g id="零信任" transform="translate(-807.000000, -4165.000000)">
            <g id="icon-06" transform="translate(807.000000, 4165.000000)">
                <circle id="椭圆形" fill="#CCDCF1" opacity="0.500720796" cx="25.5" cy="24.5" r="6.5"></circle>
                <g id="Policy_SBDataProtection" fill="#537EE8" fill-rule="nonzero">
                    <path d="M16,10.1568627 L23.0697674,13.9511765 L23.0697674,22.604098 L16,26.8431373 L8.93023257,22.6229608 L8.93023257,13.9511765 L16,10.1568627 M16,8.70588234 L7.44186047,13.1611177 L7.44186047,23.3172549 L16,28.2941177 L24.5581395,23.3172549 L24.5581395,13.1603922 L16,8.70588234 Z M17.1162791,2.76411766 L29.4541395,8.58182354 L29.4541395,13.7843137 L32,12.4980196 L32,7.00750982 L17.1162791,0 L17.1162791,2.76411766 Z M2.54586047,13.7843137 L2.54586047,8.60576471 L14.8837209,2.77282354 L14.8837209,0 L0,7.02709803 L0,12.4943922 L2.54586047,13.7843137 Z M14.8837209,34.0835294 L2.54586047,26.8228235 L2.54586047,16.5288431 L0,15.2352941 L0,28.232451 L14.8837209,37 L14.8837209,34.0835294 Z M29.4541395,16.5302941 L29.4541395,26.8141177 L17.1162791,34.081353 L17.1162791,37 L32,28.2244706 L32,15.2352941 L29.4541395,16.5302941 Z" id="形状"></path>
                    <path d="M15.25,18.5014444 L10,15.6111111 L10,21.8843333 L15.25,25 L15.25,18.5014444 L15.25,18.5014444 Z M15.99025,17.7777778 L21.25,14.9972222 L16.00975,12 L10.75,14.9972222 L15.99025,17.7777778 Z M16.75,18.5093889 L16.75,25 L22,21.8771111 L22,15.6111111 L16.75,18.5093889 L16.75,18.5093889 Z" id="形状"></path>
                </g>
            </g>
        </g>
    </g>
</svg>