<?xml version="1.0" encoding="UTF-8"?>
<svg width="48px" height="168px" viewBox="0 0 48 168" version="1.1" xmlns="http://www.w3.org/2000/svg" xmlns:xlink="http://www.w3.org/1999/xlink">
    <title>编组 38</title>
    <g id="产品页" stroke="none" stroke-width="1" fill="none" fill-rule="evenodd">
        <g id="零信任" transform="translate(-1230.000000, -3130.000000)" fill="#FFFFFF">
            <g id="编组-38" transform="translate(1230.000000, 3130.000000)">
                <g id="编组-6">
                    <circle id="椭圆形" stroke="#FFFFFF" fill-opacity="0.4" cx="24" cy="24" r="23.5"></circle>
                    <circle id="椭圆形" cx="24.5" cy="160.5" r="7.5"></circle>
                    <line x1="24.5" y1="48.5" x2="24.5" y2="153.5" id="直线" stroke="#FFFFFF" stroke-width="2" stroke-linecap="round" stroke-dasharray="1,5"></line>
                </g>
                <g id="shuju11" transform="translate(8.000000, 9.000000)" fill-rule="nonzero">
                    <path d="M24.5333333,4.38461538 C22.6133333,1.67032967 19.6266667,0 16.2133333,0 C11.7333333,0 7.68,2.92307692 6.61333333,7.30769231 C2.77333333,7.51648352 0,10.4395604 0,13.989011 C0,15.4505495 0.426666667,17.1208791 1.49333333,18.1648352 L1.92,18.5824176 L11.7333333,18.5824176 L11.7333333,16.4945055 L2.98666667,16.4945055 C2.34666667,15.8681319 2.13333333,15.032967 2.13333333,13.989011 C2.13333333,11.2747253 4.26666667,9.18681319 7.04,9.18681319 L8.10666667,9.18681319 L8.32,8.35164835 C8.96,4.59340659 12.16,2.08791209 16,2.08791209 C18.7733333,2.08791209 21.5466667,3.54945055 22.8266667,6.05494505 L23.2533333,6.68131868 L24.1066667,6.68131868 C27.3066667,6.68131868 29.8666667,9.18681319 29.8666667,12.3186813 C29.8666667,14.1978022 28.8,15.8681319 27.3066667,16.9120879 L20.48,16.9120879 L20.48,19 L27.9466667,19 L28.16,18.7912088 C30.5066667,17.3296703 32,14.8241758 32,12.1098901 C32,7.93406593 28.5866667,4.59340659 24.5333333,4.38461538 Z" id="路径"></path>
                    <path d="M17.0483871,21.5462963 L17.0483871,14.9444444 C18.9354839,14.5185185 20.4032258,12.6018519 20.4032258,10.4722222 C20.4032258,7.91666667 18.516129,6 16,6 C13.483871,6 11.5967742,8.12962963 11.5967742,10.4722222 C11.5967742,12.6018519 13.0645161,14.3055556 14.9516129,14.9444444 L14.9516129,21.5462963 C13.6935484,21.9722222 12.8548387,22.8240741 12.4354839,24.1018519 L3,24.1018519 L3,26.2314815 L12.4354839,26.2314815 C12.8548387,27.7222222 14.3225806,29 16,29 C17.6774194,29 19.1451613,27.9351852 19.5645161,26.2314815 L29,26.2314815 L29,24.1018519 L19.5645161,24.1018519 C19.1451613,22.8240741 18.3064516,21.7592593 17.0483871,21.5462963 Z M13.6935484,10.4722222 C13.6935484,9.19444444 14.7419355,8.12962963 16,8.12962963 C17.2580645,8.12962963 18.3064516,9.19444444 18.3064516,10.4722222 C18.3064516,11.75 17.2580645,12.8148148 16,12.8148148 C14.7419355,12.8148148 13.6935484,11.75 13.6935484,10.4722222 Z M16,26.6574074 C15.1612903,26.6574074 14.3225806,26.0185185 14.3225806,24.9537037 C14.3225806,23.8888889 14.9516129,23.25 16,23.25 C16.8387097,23.25 17.6774194,23.8888889 17.6774194,24.9537037 C17.6774194,26.0185185 16.8387097,26.6574074 16,26.6574074 Z" id="形状"></path>
                </g>
            </g>
        </g>
    </g>
</svg>